<svg viewBox="0 0 330 200" xmlns="http://www.w3.org/2000/svg"><g><g><g><g><g><line x1="58.59375" y1="177.828125" x2="53.59375" y2="177.828125" style="visibility: inherit;" fill="rgb(0, 0, 0)" stroke="rgb(204, 204, 204)" stroke-width="1px"></line><line x1="58.59375" y1="161.6619318181818" x2="53.59375" y2="161.6619318181818" style="visibility: inherit;" fill="rgb(0, 0, 0)" stroke="rgb(204, 204, 204)" stroke-width="1px"></line><line x1="58.59375" y1="145.49573863636363" x2="53.59375" y2="145.49573863636363" style="visibility: inherit;" fill="rgb(0, 0, 0)" stroke="rgb(204, 204, 204)" stroke-width="1px"></line><line x1="58.59375" y1="129.32954545454547" x2="53.59375" y2="129.32954545454547" style="visibility: inherit;" fill="rgb(0, 0, 0)" stroke="rgb(204, 204, 204)" stroke-width="1px"></line><line x1="58.59375" y1="113.16335227272727" x2="53.59375" y2="113.16335227272727" style="visibility: inherit;" fill="rgb(0, 0, 0)" stroke="rgb(204, 204, 204)" stroke-width="1px"></line><line x1="58.59375" y1="96.9971590909091" x2="53.59375" y2="96.9971590909091" style="visibility: inherit;" fill="rgb(0, 0, 0)" stroke="rgb(204, 204, 204)" stroke-width="1px"></line><line x1="58.59375" y1="80.83096590909092" x2="53.59375" y2="80.83096590909092" style="visibility: inherit;" fill="rgb(0, 0, 0)" stroke="rgb(204, 204, 204)" stroke-width="1px"></line><line x1="58.59375" y1="64.66477272727273" x2="53.59375" y2="64.66477272727273" style="visibility: inherit;" fill="rgb(0, 0, 0)" stroke="rgb(204, 204, 204)" stroke-width="1px"></line><line x1="58.59375" y1="48.49857954545453" x2="53.59375" y2="48.49857954545453" style="visibility: inherit;" fill="rgb(0, 0, 0)" stroke="rgb(204, 204, 204)" stroke-width="1px"></line><line x1="58.59375" y1="32.332386363636346" x2="53.59375" y2="32.332386363636346" style="visibility: inherit;" fill="rgb(0, 0, 0)" stroke="rgb(204, 204, 204)" stroke-width="1px"></line><line x1="58.59375" y1="16.166193181818187" x2="53.59375" y2="16.166193181818187" style="visibility: inherit;" fill="rgb(0, 0, 0)" stroke="rgb(204, 204, 204)" stroke-width="1px"></line><line x1="58.59375" y1="0" x2="53.59375" y2="0" style="visibility: inherit;" fill="rgb(0, 0, 0)" stroke="rgb(204, 204, 204)" stroke-width="1px"></line></g><g transform="translate(48.59375, 0)"><text x="0" y="177.828125" dx="0em" dy="0.3em" style="text-anchor: end; visibility: hidden; font-family: &quot;Helvetica Neue&quot;, sans-serif; font-size: 12px; font-weight: 200;" fill="rgb(50, 49, 63)" stroke="none" stroke-width="1px">-1e+3</text><text x="0" y="161.6619318181818" dx="0em" dy="0.3em" style="text-anchor: end; visibility: inherit; font-family: &quot;Helvetica Neue&quot;, sans-serif; font-size: 12px; font-weight: 200;" fill="rgb(50, 49, 63)" stroke="none" stroke-width="1px">0</text><text x="0" y="145.49573863636363" dx="0em" dy="0.3em" style="text-anchor: end; visibility: hidden; font-family: &quot;Helvetica Neue&quot;, sans-serif; font-size: 12px; font-weight: 200;" fill="rgb(50, 49, 63)" stroke="none" stroke-width="1px">1e+3</text><text x="0" y="129.32954545454547" dx="0em" dy="0.3em" style="text-anchor: end; visibility: inherit; font-family: &quot;Helvetica Neue&quot;, sans-serif; font-size: 12px; font-weight: 200;" fill="rgb(50, 49, 63)" stroke="none" stroke-width="1px">2e+3</text><text x="0" y="113.16335227272727" dx="0em" dy="0.3em" style="text-anchor: end; visibility: hidden; font-family: &quot;Helvetica Neue&quot;, sans-serif; font-size: 12px; font-weight: 200;" fill="rgb(50, 49, 63)" stroke="none" stroke-width="1px">3e+3</text><text x="0" y="96.9971590909091" dx="0em" dy="0.3em" style="text-anchor: end; visibility: inherit; font-family: &quot;Helvetica Neue&quot;, sans-serif; font-size: 12px; font-weight: 200;" fill="rgb(50, 49, 63)" stroke="none" stroke-width="1px">4e+3</text><text x="0" y="80.83096590909092" dx="0em" dy="0.3em" style="text-anchor: end; visibility: hidden; font-family: &quot;Helvetica Neue&quot;, sans-serif; font-size: 12px; font-weight: 200;" fill="rgb(50, 49, 63)" stroke="none" stroke-width="1px">5e+3</text><text x="0" y="64.66477272727273" dx="0em" dy="0.3em" style="text-anchor: end; visibility: inherit; font-family: &quot;Helvetica Neue&quot;, sans-serif; font-size: 12px; font-weight: 200;" fill="rgb(50, 49, 63)" stroke="none" stroke-width="1px">6e+3</text><text x="0" y="48.49857954545453" dx="0em" dy="0.3em" style="text-anchor: end; visibility: hidden; font-family: &quot;Helvetica Neue&quot;, sans-serif; font-size: 12px; font-weight: 200;" fill="rgb(50, 49, 63)" stroke="none" stroke-width="1px">7e+3</text><text x="0" y="32.332386363636346" dx="0em" dy="0.3em" style="text-anchor: end; visibility: inherit; font-family: &quot;Helvetica Neue&quot;, sans-serif; font-size: 12px; font-weight: 200;" fill="rgb(50, 49, 63)" stroke="none" stroke-width="1px">8e+3</text><text x="0" y="16.166193181818187" dx="0em" dy="0.3em" style="text-anchor: end; visibility: hidden; font-family: &quot;Helvetica Neue&quot;, sans-serif; font-size: 12px; font-weight: 200;" fill="rgb(50, 49, 63)" stroke="none" stroke-width="1px">9e+3</text><text x="0" y="0" dx="0em" dy="0.3em" style="text-anchor: end; visibility: hidden; font-family: &quot;Helvetica Neue&quot;, sans-serif; font-size: 12px; font-weight: 200;" fill="rgb(50, 49, 63)" stroke="none" stroke-width="1px">1e+4</text></g><line x1="58.59375" y1="0" x2="58.59375" y2="177.828125" fill="rgb(0, 0, 0)" stroke="rgb(204, 204, 204)" stroke-width="1px"></line></g></g><g transform="translate(58, 0)" clip-path="url(#clip_0)"><clipPath id="clip_0"><rect width="271" height="177"></rect></clipPath><g><g><g><line x1="0" y1="0" x2="0" y2="177.828125" fill="rgb(0, 0, 0)" stroke="rgb(60, 60, 60)" stroke-width="1px" opacity="0.25"></line><line x1="22.6171875" y1="0" x2="22.6171875" y2="177.828125" fill="rgb(0, 0, 0)" stroke="rgb(60, 60, 60)" stroke-width="1px" opacity="0.25"></line><line x1="45.234375" y1="0" x2="45.234375" y2="177.828125" fill="rgb(0, 0, 0)" stroke="rgb(60, 60, 60)" stroke-width="1px" opacity="0.25"></line><line x1="67.8515625" y1="0" x2="67.8515625" y2="177.828125" fill="rgb(0, 0, 0)" stroke="rgb(60, 60, 60)" stroke-width="1px" opacity="0.25"></line><line x1="90.46875" y1="0" x2="90.46875" y2="177.828125" fill="rgb(0, 0, 0)" stroke="rgb(60, 60, 60)" stroke-width="1px" opacity="0.25"></line><line x1="113.0859375" y1="0" x2="113.0859375" y2="177.828125" fill="rgb(0, 0, 0)" stroke="rgb(60, 60, 60)" stroke-width="1px" opacity="0.25"></line><line x1="135.703125" y1="0" x2="135.703125" y2="177.828125" fill="rgb(0, 0, 0)" stroke="rgb(60, 60, 60)" stroke-width="1px" opacity="0.25"></line><line x1="158.3203125" y1="0" x2="158.3203125" y2="177.828125" fill="rgb(0, 0, 0)" stroke="rgb(60, 60, 60)" stroke-width="1px" opacity="0.25"></line><line x1="180.9375" y1="0" x2="180.9375" y2="177.828125" fill="rgb(0, 0, 0)" stroke="rgb(60, 60, 60)" stroke-width="1px" opacity="0.25"></line><line x1="203.5546875" y1="0" x2="203.5546875" y2="177.828125" fill="rgb(0, 0, 0)" stroke="rgb(60, 60, 60)" stroke-width="1px" opacity="0.25"></line><line x1="226.171875" y1="0" x2="226.171875" y2="177.828125" fill="rgb(0, 0, 0)" stroke="rgb(60, 60, 60)" stroke-width="1px" opacity="0.25"></line><line x1="248.7890625" y1="0" x2="248.7890625" y2="177.828125" fill="rgb(0, 0, 0)" stroke="rgb(60, 60, 60)" stroke-width="1px" opacity="0.25"></line><line x1="271.40625" y1="0" x2="271.40625" y2="177.828125" fill="rgb(0, 0, 0)" stroke="rgb(60, 60, 60)" stroke-width="1px" opacity="0.25"></line></g><g><line x1="0" y1="177.828125" x2="271.40625" y2="177.828125" fill="rgb(0, 0, 0)" stroke="rgb(60, 60, 60)" stroke-width="1px" opacity="0.25"></line><line x1="0" y1="161.6619318181818" x2="271.40625" y2="161.6619318181818" fill="rgb(0, 0, 0)" stroke="rgb(60, 60, 60)" stroke-width="1px" opacity="0.25"></line><line x1="0" y1="145.49573863636363" x2="271.40625" y2="145.49573863636363" fill="rgb(0, 0, 0)" stroke="rgb(60, 60, 60)" stroke-width="1px" opacity="0.25"></line><line x1="0" y1="129.32954545454547" x2="271.40625" y2="129.32954545454547" fill="rgb(0, 0, 0)" stroke="rgb(60, 60, 60)" stroke-width="1px" opacity="0.25"></line><line x1="0" y1="113.16335227272727" x2="271.40625" y2="113.16335227272727" fill="rgb(0, 0, 0)" stroke="rgb(60, 60, 60)" stroke-width="1px" opacity="0.25"></line><line x1="0" y1="96.9971590909091" x2="271.40625" y2="96.9971590909091" fill="rgb(0, 0, 0)" stroke="rgb(60, 60, 60)" stroke-width="1px" opacity="0.25"></line><line x1="0" y1="80.83096590909092" x2="271.40625" y2="80.83096590909092" fill="rgb(0, 0, 0)" stroke="rgb(60, 60, 60)" stroke-width="1px" opacity="0.25"></line><line x1="0" y1="64.66477272727273" x2="271.40625" y2="64.66477272727273" fill="rgb(0, 0, 0)" stroke="rgb(60, 60, 60)" stroke-width="1px" opacity="0.25"></line><line x1="0" y1="48.49857954545453" x2="271.40625" y2="48.49857954545453" fill="rgb(0, 0, 0)" stroke="rgb(60, 60, 60)" stroke-width="1px" opacity="0.25"></line><line x1="0" y1="32.332386363636346" x2="271.40625" y2="32.332386363636346" fill="rgb(0, 0, 0)" stroke="rgb(60, 60, 60)" stroke-width="1px" opacity="0.25"></line><line x1="0" y1="16.166193181818187" x2="271.40625" y2="16.166193181818187" fill="rgb(0, 0, 0)" stroke="rgb(60, 60, 60)" stroke-width="1px" opacity="0.25"></line><line x1="0" y1="0" x2="271.40625" y2="0" fill="rgb(0, 0, 0)" stroke="rgb(60, 60, 60)" stroke-width="1px" opacity="0.25"></line></g></g></g><g><g><line x1="0" y1="161.6619318181818" x2="271.40625" y2="161.6619318181818" fill="rgb(0, 0, 0)" stroke="rgb(153, 153, 153)" stroke-width="1.5px"></line></g></g><g><g><line x1="22.6171875" y1="0" x2="22.6171875" y2="177.828125" fill="rgb(0, 0, 0)" stroke="rgb(153, 153, 153)" stroke-width="1.5px"></line></g></g><g><g><g><g><g><path stroke="rgb(255, 112, 67)" stroke-width="2px" d="M22.6171875,30.715767045454555L24.87890625,99.74016388860616L27.140625,114.36361120657489L29.40234375,129.53378259490518L31.6640625,139.87421509027135L33.92578125,144.43798769976965L36.1875,144.56649659456025L38.44921875,142.26793780301853L40.7109375,145.079823610262L42.97265625,145.20366029903482L45.234375,132.200169600582L47.49609375,140.4036310524298L49.7578125,145.04854155217737L52.01953125,148.50866052408685L54.28125,149.4275605046892L56.54296875,150.22777789016885L58.8046875,150.3506594175781L61.06640625,150.17471933065215L63.328125,149.42199093457947L65.58984375,148.70789088205277L67.8515625,149.63456935756932L70.11328125,150.08995952502397L72.375,149.61708566466862L74.63671875,150.47059411613844L76.8984375,150.298649580402L79.16015625,149.5437299046404L81.421875,147.76569478269198L83.68359375,148.54398173236396L85.9453125,149.98361333306582L88.20703125,149.99291373165408L90.46875,148.23222740837096L92.73046875,147.98757935369267L94.9921875,148.57244302838308L97.25390625,147.13757857949983L99.515625,147.00546951141507L101.77734375,144.56099605069863L104.0390625,145.30678420750831L106.30078125,143.99889742013073L108.5625,144.2856224320291L110.82421875,145.75913387288318L113.0859375,145.4243295033708L115.34765625,148.84306010242216L117.609375,149.12824111781282L119.87109375,148.40246464279096L122.1328125,148.79542774964364L124.39453125,147.26845906487983L126.65625,145.60337658681203L128.91796875,146.02119289372203L131.1796875,145.99742563249393L133.44140625,144.75998160643172L135.703125,147.5072240092187L137.96484375,148.75279206308878L140.2265625,148.70628282258107L142.48828125,149.76381637760682L144.75,149.92334960037346L147.01171875,151.01566956052855L149.2734375,150.03913801172973L151.53515625,151.09958206480192L153.796875,149.09812213455527L156.05859375,149.8594727347113L158.3203125,147.13750866322937L160.58203125,147.64411099402335L162.84375,146.73154109589103L165.10546875,145.19442408345736L167.3671875,145.30327677645712L169.62890625,146.8413881881707L171.890625,146.00892970058052L174.15234375,145.50709519633597L176.4140625,144.6541092335714L178.67578125,145.26361997080969L180.9375,147.56416832429517L183.19921875,147.60274829609494L185.4609375,147.71487625364406L187.72265625,149.2062115148346L189.984375,148.29533019772467L192.24609375,149.17595894072286L194.5078125,149.81544916346297L196.76953125,148.7407024434333L199.03125,148.70769154121643L201.29296875,146.4453806194348L203.5546875,143.07062523882342L205.81640625,143.59525171807044L208.078125,145.82269270453722L210.33984375,144.09263647406567L212.6015625,145.94271801270895L214.86328125,145.89700608027218L217.125,148.32994722469863L219.38671875,134.65538836919305L221.6484375,123.85646687771701L223.91015625,126.24046462550383L226.171875,109.92694594033026L228.43359375,115.786885632269L230.6953125,127.88025265455227L232.95703125,136.48144301569667L235.21875,143.1706131740864L237.48046875,146.45457475481584L239.7421875,145.8251949769712L242.00390625,148.43336195223884L244.265625,140.46354322683538L246.52734375,135.16077693152914L248.7890625,129.3732925800656" style="fill: none;" fill="none"></path></g></g></g></g><g opacity="0.20000000298023224"><g><g><g><path stroke="rgb(255, 112, 67)" stroke-width="2px" d="M22.6171875,30.715767045454555L24.87890625,141.15480199449712L27.140625,128.40212063182483L29.40234375,147.3739041475816L31.6640625,153.37468375622143L33.92578125,150.75132817684522L36.1875,144.75026637025314L38.44921875,138.91661701878635L40.7109375,149.2268089952469L42.97265625,145.38754334943945L45.234375,112.81287425648082L47.49609375,152.6641803552454L49.7578125,152.00074086310647L52.01953125,153.6920602486784L54.28125,150.80483034315978L56.54296875,151.4275395930897L58.8046875,150.5349297093478L61.06640625,149.9108538714322L63.328125,148.2930130110654L65.58984375,147.63680607483604L67.8515625,151.02453624959426L70.11328125,150.77302979139847L72.375,148.90778421020508L74.63671875,151.7508466827219L76.8984375,150.04073399890552L79.16015625,148.41135361038556L81.421875,145.09864664927397L83.68359375,149.7114109620181L85.9453125,152.14305940801447L88.20703125,150.0068643243963L90.46875,145.59119850730895L92.73046875,147.62060732035204L94.9921875,149.4497384705977L97.25390625,144.98528200895134L99.515625,146.80730591496555L101.77734375,140.89428592265736L104.0390625,146.42546643118425L106.30078125,142.03706725120543L108.5625,144.71570994827965L110.82421875,147.96940102924L113.0859375,144.9221229497736L115.34765625,153.97115599688618L117.609375,149.55601264069298L119.87109375,147.31379993057251L122.1328125,149.38487240982056L124.39453125,144.9780060379722L126.65625,143.1057528698661L128.91796875,146.64791735406357L131.1796875,145.9617747406526L133.44140625,142.90381556736338L135.703125,151.62808761336586L137.96484375,150.62114414388483L140.2265625,148.63651896181975L142.48828125,151.35011671014266L144.75,150.16264943452316L147.01171875,152.65414950076016L149.2734375,148.57434068853206L151.53515625,152.69024814440988L153.796875,146.0959322391857L156.05859375,151.00149863494528L158.3203125,143.0545625560067L160.58203125,148.40401449021425L162.84375,145.3626862486926L165.10546875,142.88874856480686L167.3671875,145.4665558159568L169.62890625,149.14855530574104L171.890625,144.76024196919528L174.15234375,144.75434343996915L176.4140625,143.37463028942454L178.67578125,146.1778860766671L180.9375,151.0149908545234L183.19921875,147.66061825379458L185.4609375,147.88306818996776L187.72265625,151.44321440662037L189.984375,146.92900822205976L192.24609375,150.49690205522018L194.5078125,150.77468449757316L196.76953125,147.12858236338874L199.03125,148.65817518789117L201.29296875,143.05191423676231L203.5546875,138.00849216790633L205.81640625,144.38219143694096L208.078125,149.16385418423738L210.33984375,141.49755212835834L212.6015625,148.71784032067387L214.86328125,145.82843818161706L217.125,151.9793589413383L219.38671875,114.14355008593472L221.6484375,107.65808464050293L223.91015625,129.81646124718407L226.171875,85.45666791256991L228.43359375,124.57679517017712L230.6953125,146.0203031879772L232.95703125,149.38322855741328L235.21875,153.20436841167103L237.48046875,151.38051712591L239.7421875,144.88112531020425L242.00390625,152.34561241514032L244.265625,128.50881513873014L246.52734375,127.20662748856978L248.7890625,120.69206605287033" style="fill: none;" fill="none"></path></g></g></g></g></g></g><g transform="translate(58, 177)" clip-path="url(#clip_1)"><clipPath id="clip_1"><rect width="271" height="22"></rect></clipPath><g><g><line x1="0" y1="0" x2="0" y2="5" style="visibility: inherit;" fill="rgb(0, 0, 0)" stroke="rgb(204, 204, 204)" stroke-width="1px"></line><line x1="22.6171875" y1="0" x2="22.6171875" y2="5" style="visibility: inherit;" fill="rgb(0, 0, 0)" stroke="rgb(204, 204, 204)" stroke-width="1px"></line><line x1="45.234375" y1="0" x2="45.234375" y2="5" style="visibility: inherit;" fill="rgb(0, 0, 0)" stroke="rgb(204, 204, 204)" stroke-width="1px"></line><line x1="67.8515625" y1="0" x2="67.8515625" y2="5" style="visibility: inherit;" fill="rgb(0, 0, 0)" stroke="rgb(204, 204, 204)" stroke-width="1px"></line><line x1="90.46875" y1="0" x2="90.46875" y2="5" style="visibility: inherit;" fill="rgb(0, 0, 0)" stroke="rgb(204, 204, 204)" stroke-width="1px"></line><line x1="113.0859375" y1="0" x2="113.0859375" y2="5" style="visibility: inherit;" fill="rgb(0, 0, 0)" stroke="rgb(204, 204, 204)" stroke-width="1px"></line><line x1="135.703125" y1="0" x2="135.703125" y2="5" style="visibility: inherit;" fill="rgb(0, 0, 0)" stroke="rgb(204, 204, 204)" stroke-width="1px"></line><line x1="158.3203125" y1="0" x2="158.3203125" y2="5" style="visibility: inherit;" fill="rgb(0, 0, 0)" stroke="rgb(204, 204, 204)" stroke-width="1px"></line><line x1="180.9375" y1="0" x2="180.9375" y2="5" style="visibility: inherit;" fill="rgb(0, 0, 0)" stroke="rgb(204, 204, 204)" stroke-width="1px"></line><line x1="203.5546875" y1="0" x2="203.5546875" y2="5" style="visibility: inherit;" fill="rgb(0, 0, 0)" stroke="rgb(204, 204, 204)" stroke-width="1px"></line><line x1="226.171875" y1="0" x2="226.171875" y2="5" style="visibility: inherit;" fill="rgb(0, 0, 0)" stroke="rgb(204, 204, 204)" stroke-width="1px"></line><line x1="248.7890625" y1="0" x2="248.7890625" y2="5" style="visibility: inherit;" fill="rgb(0, 0, 0)" stroke="rgb(204, 204, 204)" stroke-width="1px"></line><line x1="271.40625" y1="0" x2="271.40625" y2="5" style="visibility: inherit;" fill="rgb(0, 0, 0)" stroke="rgb(204, 204, 204)" stroke-width="1px"></line></g><g transform="translate(0, 8)"><text x="0" y="0" dx="0em" dy="0.95em" style="text-anchor: middle; visibility: hidden; font-family: &quot;Helvetica Neue&quot;, sans-serif; font-size: 12px; font-weight: 200;" fill="rgb(50, 49, 63)" stroke="none" stroke-width="1px">-10</text><text x="22.6171875" y="0" dx="0em" dy="0.95em" style="text-anchor: middle; visibility: inherit; font-family: &quot;Helvetica Neue&quot;, sans-serif; font-size: 12px; font-weight: 200;" fill="rgb(50, 49, 63)" stroke="none" stroke-width="1px">0</text><text x="45.234375" y="0" dx="0em" dy="0.95em" style="text-anchor: middle; visibility: inherit; font-family: &quot;Helvetica Neue&quot;, sans-serif; font-size: 12px; font-weight: 200;" fill="rgb(50, 49, 63)" stroke="none" stroke-width="1px">10</text><text x="67.8515625" y="0" dx="0em" dy="0.95em" style="text-anchor: middle; visibility: inherit; font-family: &quot;Helvetica Neue&quot;, sans-serif; font-size: 12px; font-weight: 200;" fill="rgb(50, 49, 63)" stroke="none" stroke-width="1px">20</text><text x="90.46875" y="0" dx="0em" dy="0.95em" style="text-anchor: middle; visibility: inherit; font-family: &quot;Helvetica Neue&quot;, sans-serif; font-size: 12px; font-weight: 200;" fill="rgb(50, 49, 63)" stroke="none" stroke-width="1px">30</text><text x="113.0859375" y="0" dx="0em" dy="0.95em" style="text-anchor: middle; visibility: inherit; font-family: &quot;Helvetica Neue&quot;, sans-serif; font-size: 12px; font-weight: 200;" fill="rgb(50, 49, 63)" stroke="none" stroke-width="1px">40</text><text x="135.703125" y="0" dx="0em" dy="0.95em" style="text-anchor: middle; visibility: inherit; font-family: &quot;Helvetica Neue&quot;, sans-serif; font-size: 12px; font-weight: 200;" fill="rgb(50, 49, 63)" stroke="none" stroke-width="1px">50</text><text x="158.3203125" y="0" dx="0em" dy="0.95em" style="text-anchor: middle; visibility: inherit; font-family: &quot;Helvetica Neue&quot;, sans-serif; font-size: 12px; font-weight: 200;" fill="rgb(50, 49, 63)" stroke="none" stroke-width="1px">60</text><text x="180.9375" y="0" dx="0em" dy="0.95em" style="text-anchor: middle; visibility: inherit; font-family: &quot;Helvetica Neue&quot;, sans-serif; font-size: 12px; font-weight: 200;" fill="rgb(50, 49, 63)" stroke="none" stroke-width="1px">70</text><text x="203.5546875" y="0" dx="0em" dy="0.95em" style="text-anchor: middle; visibility: inherit; font-family: &quot;Helvetica Neue&quot;, sans-serif; font-size: 12px; font-weight: 200;" fill="rgb(50, 49, 63)" stroke="none" stroke-width="1px">80</text><text x="226.171875" y="0" dx="0em" dy="0.95em" style="text-anchor: middle; visibility: inherit; font-family: &quot;Helvetica Neue&quot;, sans-serif; font-size: 12px; font-weight: 200;" fill="rgb(50, 49, 63)" stroke="none" stroke-width="1px">90</text><text x="248.7890625" y="0" dx="0em" dy="0.95em" style="text-anchor: middle; visibility: inherit; font-family: &quot;Helvetica Neue&quot;, sans-serif; font-size: 12px; font-weight: 200;" fill="rgb(50, 49, 63)" stroke="none" stroke-width="1px">100</text><text x="271.40625" y="0" dx="0em" dy="0.95em" style="text-anchor: middle; visibility: hidden; font-family: &quot;Helvetica Neue&quot;, sans-serif; font-size: 12px; font-weight: 200;" fill="rgb(50, 49, 63)" stroke="none" stroke-width="1px">110</text></g><line x1="0" y1="0" x2="271.40625" y2="0" fill="rgb(0, 0, 0)" stroke="rgb(204, 204, 204)" stroke-width="1px"></line></g></g></g></g></svg>