<svg viewBox="0 0 330 200" xmlns="http://www.w3.org/2000/svg"><g><g><g><g><g><line x1="39.15625" y1="177.828125" x2="34.15625" y2="177.828125" style="visibility: inherit;" fill="rgb(0, 0, 0)" stroke="rgb(204, 204, 204)" stroke-width="1px"></line><line x1="39.15625" y1="163.00911458333334" x2="34.15625" y2="163.00911458333334" style="visibility: inherit;" fill="rgb(0, 0, 0)" stroke="rgb(204, 204, 204)" stroke-width="1px"></line><line x1="39.15625" y1="148.19010416666666" x2="34.15625" y2="148.19010416666666" style="visibility: inherit;" fill="rgb(0, 0, 0)" stroke="rgb(204, 204, 204)" stroke-width="1px"></line><line x1="39.15625" y1="133.37109375" x2="34.15625" y2="133.37109375" style="visibility: inherit;" fill="rgb(0, 0, 0)" stroke="rgb(204, 204, 204)" stroke-width="1px"></line><line x1="39.15625" y1="118.55208333333334" x2="34.15625" y2="118.55208333333334" style="visibility: inherit;" fill="rgb(0, 0, 0)" stroke="rgb(204, 204, 204)" stroke-width="1px"></line><line x1="39.15625" y1="103.73307291666666" x2="34.15625" y2="103.73307291666666" style="visibility: inherit;" fill="rgb(0, 0, 0)" stroke="rgb(204, 204, 204)" stroke-width="1px"></line><line x1="39.15625" y1="88.9140625" x2="34.15625" y2="88.9140625" style="visibility: inherit;" fill="rgb(0, 0, 0)" stroke="rgb(204, 204, 204)" stroke-width="1px"></line><line x1="39.15625" y1="74.09505208333333" x2="34.15625" y2="74.09505208333333" style="visibility: inherit;" fill="rgb(0, 0, 0)" stroke="rgb(204, 204, 204)" stroke-width="1px"></line><line x1="39.15625" y1="59.27604166666667" x2="34.15625" y2="59.27604166666667" style="visibility: inherit;" fill="rgb(0, 0, 0)" stroke="rgb(204, 204, 204)" stroke-width="1px"></line><line x1="39.15625" y1="44.45703125" x2="34.15625" y2="44.45703125" style="visibility: inherit;" fill="rgb(0, 0, 0)" stroke="rgb(204, 204, 204)" stroke-width="1px"></line><line x1="39.15625" y1="29.638020833333314" x2="34.15625" y2="29.638020833333314" style="visibility: inherit;" fill="rgb(0, 0, 0)" stroke="rgb(204, 204, 204)" stroke-width="1px"></line><line x1="39.15625" y1="14.819010416666686" x2="34.15625" y2="14.819010416666686" style="visibility: inherit;" fill="rgb(0, 0, 0)" stroke="rgb(204, 204, 204)" stroke-width="1px"></line><line x1="39.15625" y1="0" x2="34.15625" y2="0" style="visibility: inherit;" fill="rgb(0, 0, 0)" stroke="rgb(204, 204, 204)" stroke-width="1px"></line></g><g transform="translate(29.15625, 0)"><text x="0" y="177.828125" dx="0em" dy="0.3em" style="text-anchor: end; visibility: hidden; font-family: &quot;Helvetica Neue&quot;, sans-serif; font-size: 12px; font-weight: 200;" fill="rgb(50, 49, 63)" stroke="none" stroke-width="1px">-10</text><text x="0" y="163.00911458333334" dx="0em" dy="0.3em" style="text-anchor: end; visibility: inherit; font-family: &quot;Helvetica Neue&quot;, sans-serif; font-size: 12px; font-weight: 200;" fill="rgb(50, 49, 63)" stroke="none" stroke-width="1px">0</text><text x="0" y="148.19010416666666" dx="0em" dy="0.3em" style="text-anchor: end; visibility: hidden; font-family: &quot;Helvetica Neue&quot;, sans-serif; font-size: 12px; font-weight: 200;" fill="rgb(50, 49, 63)" stroke="none" stroke-width="1px">10</text><text x="0" y="133.37109375" dx="0em" dy="0.3em" style="text-anchor: end; visibility: inherit; font-family: &quot;Helvetica Neue&quot;, sans-serif; font-size: 12px; font-weight: 200;" fill="rgb(50, 49, 63)" stroke="none" stroke-width="1px">20</text><text x="0" y="118.55208333333334" dx="0em" dy="0.3em" style="text-anchor: end; visibility: hidden; font-family: &quot;Helvetica Neue&quot;, sans-serif; font-size: 12px; font-weight: 200;" fill="rgb(50, 49, 63)" stroke="none" stroke-width="1px">30</text><text x="0" y="103.73307291666666" dx="0em" dy="0.3em" style="text-anchor: end; visibility: inherit; font-family: &quot;Helvetica Neue&quot;, sans-serif; font-size: 12px; font-weight: 200;" fill="rgb(50, 49, 63)" stroke="none" stroke-width="1px">40</text><text x="0" y="88.9140625" dx="0em" dy="0.3em" style="text-anchor: end; visibility: hidden; font-family: &quot;Helvetica Neue&quot;, sans-serif; font-size: 12px; font-weight: 200;" fill="rgb(50, 49, 63)" stroke="none" stroke-width="1px">50</text><text x="0" y="74.09505208333333" dx="0em" dy="0.3em" style="text-anchor: end; visibility: inherit; font-family: &quot;Helvetica Neue&quot;, sans-serif; font-size: 12px; font-weight: 200;" fill="rgb(50, 49, 63)" stroke="none" stroke-width="1px">60</text><text x="0" y="59.27604166666667" dx="0em" dy="0.3em" style="text-anchor: end; visibility: hidden; font-family: &quot;Helvetica Neue&quot;, sans-serif; font-size: 12px; font-weight: 200;" fill="rgb(50, 49, 63)" stroke="none" stroke-width="1px">70</text><text x="0" y="44.45703125" dx="0em" dy="0.3em" style="text-anchor: end; visibility: inherit; font-family: &quot;Helvetica Neue&quot;, sans-serif; font-size: 12px; font-weight: 200;" fill="rgb(50, 49, 63)" stroke="none" stroke-width="1px">80</text><text x="0" y="29.638020833333314" dx="0em" dy="0.3em" style="text-anchor: end; visibility: hidden; font-family: &quot;Helvetica Neue&quot;, sans-serif; font-size: 12px; font-weight: 200;" fill="rgb(50, 49, 63)" stroke="none" stroke-width="1px">90</text><text x="0" y="14.819010416666686" dx="0em" dy="0.3em" style="text-anchor: end; visibility: inherit; font-family: &quot;Helvetica Neue&quot;, sans-serif; font-size: 12px; font-weight: 200;" fill="rgb(50, 49, 63)" stroke="none" stroke-width="1px">100</text><text x="0" y="0" dx="0em" dy="0.3em" style="text-anchor: end; visibility: hidden; font-family: &quot;Helvetica Neue&quot;, sans-serif; font-size: 12px; font-weight: 200;" fill="rgb(50, 49, 63)" stroke="none" stroke-width="1px">110</text></g><line x1="39.15625" y1="0" x2="39.15625" y2="177.828125" fill="rgb(0, 0, 0)" stroke="rgb(204, 204, 204)" stroke-width="1px"></line></g></g><g transform="translate(39, 0)" clip-path="url(#clip_0)"><clipPath id="clip_0"><rect width="290" height="177"></rect></clipPath><g><g><g><line x1="0" y1="0" x2="0" y2="177.828125" fill="rgb(0, 0, 0)" stroke="rgb(60, 60, 60)" stroke-width="1px" opacity="0.25"></line><line x1="24.236979166666664" y1="0" x2="24.236979166666664" y2="177.828125" fill="rgb(0, 0, 0)" stroke="rgb(60, 60, 60)" stroke-width="1px" opacity="0.25"></line><line x1="48.47395833333333" y1="0" x2="48.47395833333333" y2="177.828125" fill="rgb(0, 0, 0)" stroke="rgb(60, 60, 60)" stroke-width="1px" opacity="0.25"></line><line x1="72.7109375" y1="0" x2="72.7109375" y2="177.828125" fill="rgb(0, 0, 0)" stroke="rgb(60, 60, 60)" stroke-width="1px" opacity="0.25"></line><line x1="96.94791666666666" y1="0" x2="96.94791666666666" y2="177.828125" fill="rgb(0, 0, 0)" stroke="rgb(60, 60, 60)" stroke-width="1px" opacity="0.25"></line><line x1="121.18489583333334" y1="0" x2="121.18489583333334" y2="177.828125" fill="rgb(0, 0, 0)" stroke="rgb(60, 60, 60)" stroke-width="1px" opacity="0.25"></line><line x1="145.421875" y1="0" x2="145.421875" y2="177.828125" fill="rgb(0, 0, 0)" stroke="rgb(60, 60, 60)" stroke-width="1px" opacity="0.25"></line><line x1="169.65885416666669" y1="0" x2="169.65885416666669" y2="177.828125" fill="rgb(0, 0, 0)" stroke="rgb(60, 60, 60)" stroke-width="1px" opacity="0.25"></line><line x1="193.89583333333331" y1="0" x2="193.89583333333331" y2="177.828125" fill="rgb(0, 0, 0)" stroke="rgb(60, 60, 60)" stroke-width="1px" opacity="0.25"></line><line x1="218.1328125" y1="0" x2="218.1328125" y2="177.828125" fill="rgb(0, 0, 0)" stroke="rgb(60, 60, 60)" stroke-width="1px" opacity="0.25"></line><line x1="242.36979166666669" y1="0" x2="242.36979166666669" y2="177.828125" fill="rgb(0, 0, 0)" stroke="rgb(60, 60, 60)" stroke-width="1px" opacity="0.25"></line><line x1="266.6067708333333" y1="0" x2="266.6067708333333" y2="177.828125" fill="rgb(0, 0, 0)" stroke="rgb(60, 60, 60)" stroke-width="1px" opacity="0.25"></line><line x1="290.84375" y1="0" x2="290.84375" y2="177.828125" fill="rgb(0, 0, 0)" stroke="rgb(60, 60, 60)" stroke-width="1px" opacity="0.25"></line></g><g><line x1="0" y1="177.828125" x2="290.84375" y2="177.828125" fill="rgb(0, 0, 0)" stroke="rgb(60, 60, 60)" stroke-width="1px" opacity="0.25"></line><line x1="0" y1="163.00911458333334" x2="290.84375" y2="163.00911458333334" fill="rgb(0, 0, 0)" stroke="rgb(60, 60, 60)" stroke-width="1px" opacity="0.25"></line><line x1="0" y1="148.19010416666666" x2="290.84375" y2="148.19010416666666" fill="rgb(0, 0, 0)" stroke="rgb(60, 60, 60)" stroke-width="1px" opacity="0.25"></line><line x1="0" y1="133.37109375" x2="290.84375" y2="133.37109375" fill="rgb(0, 0, 0)" stroke="rgb(60, 60, 60)" stroke-width="1px" opacity="0.25"></line><line x1="0" y1="118.55208333333334" x2="290.84375" y2="118.55208333333334" fill="rgb(0, 0, 0)" stroke="rgb(60, 60, 60)" stroke-width="1px" opacity="0.25"></line><line x1="0" y1="103.73307291666666" x2="290.84375" y2="103.73307291666666" fill="rgb(0, 0, 0)" stroke="rgb(60, 60, 60)" stroke-width="1px" opacity="0.25"></line><line x1="0" y1="88.9140625" x2="290.84375" y2="88.9140625" fill="rgb(0, 0, 0)" stroke="rgb(60, 60, 60)" stroke-width="1px" opacity="0.25"></line><line x1="0" y1="74.09505208333333" x2="290.84375" y2="74.09505208333333" fill="rgb(0, 0, 0)" stroke="rgb(60, 60, 60)" stroke-width="1px" opacity="0.25"></line><line x1="0" y1="59.27604166666667" x2="290.84375" y2="59.27604166666667" fill="rgb(0, 0, 0)" stroke="rgb(60, 60, 60)" stroke-width="1px" opacity="0.25"></line><line x1="0" y1="44.45703125" x2="290.84375" y2="44.45703125" fill="rgb(0, 0, 0)" stroke="rgb(60, 60, 60)" stroke-width="1px" opacity="0.25"></line><line x1="0" y1="29.638020833333314" x2="290.84375" y2="29.638020833333314" fill="rgb(0, 0, 0)" stroke="rgb(60, 60, 60)" stroke-width="1px" opacity="0.25"></line><line x1="0" y1="14.819010416666686" x2="290.84375" y2="14.819010416666686" fill="rgb(0, 0, 0)" stroke="rgb(60, 60, 60)" stroke-width="1px" opacity="0.25"></line><line x1="0" y1="0" x2="290.84375" y2="0" fill="rgb(0, 0, 0)" stroke="rgb(60, 60, 60)" stroke-width="1px" opacity="0.25"></line></g></g></g><g><g><line x1="0" y1="163.00911458333334" x2="290.84375" y2="163.00911458333334" fill="rgb(0, 0, 0)" stroke="rgb(153, 153, 153)" stroke-width="1.5px"></line></g></g><g><g><line x1="24.236979166666664" y1="0" x2="24.236979166666664" y2="177.828125" fill="rgb(0, 0, 0)" stroke="rgb(153, 153, 153)" stroke-width="1.5px"></line></g></g><g><g><g><g><g><path stroke="rgb(255, 112, 67)" stroke-width="2px" d="M26.660677083333333,110.40162760416666L29.084375,91.82846863567829L31.508072916666666,74.15856115888981L33.93177083333333,54.20794206387467L36.35546875,47.26308352553076L38.77916666666667,46.81631456097912L41.20286458333333,35.620467238515374L43.6265625,55.23074364205981L46.05026041666667,41.07301722959568L48.47395833333333,36.684947005337676L50.89765625,34.642387617551094L53.321354166666666,42.73777534758045L55.745052083333334,51.378438535995855L58.16875,66.07191947231938L60.59244791666667,58.302134250948086L63.01614583333333,59.53005721625823L65.43984375000001,43.84296882097604L67.86354166666666,43.260859451118534L70.28723958333333,35.93076305779482L72.7109375,34.784954997884796L75.13463541666667,31.025966420451084L77.55833333333334,32.03618232686463L79.98203125,30.985289297787915L82.40572916666666,34.97964584609437L84.82942708333334,43.34899748015741L87.253125,45.68129678043343L89.67682291666667,39.80841640414445L92.10052083333333,36.72378275229619L94.52421875,32.958614368350055L96.94791666666666,53.008167314630555L99.37161458333334,41.61947540761281L101.7953125,41.40816444412539L104.21901041666666,38.931463903673574L106.64270833333333,33.69197969033027L109.06640625,30.034911377093607L111.49010416666667,36.875496053229654L113.91380208333334,32.219426583480185L116.3375,29.743204005665177L118.76119791666666,28.356899220795185L121.18489583333334,31.07212374660162L123.60859375,34.87486933645178L126.03229166666667,33.441964787624784L128.45598958333332,30.94723013261057L130.87968750000002,31.774526524638674L133.30338541666666,32.85503132000346L135.72708333333333,32.9507145357866L138.15078125,34.25816976789332L140.57447916666666,35.801035747745146L142.99817708333333,35.23876119197334L145.421875,33.253435454969264L147.84557291666667,34.78000548790129L150.26927083333334,34.80233998353398L152.69296875,33.4057001111662L155.11666666666667,34.04109337368391L157.54036458333331,34.7292652653594L159.9640625,34.554682454811484L162.38776041666668,33.72644052870419L164.81145833333332,32.86775038375134L167.23515625,35.328113473125654L169.65885416666669,36.336007600361285L172.08255208333333,38.09957394119809L174.50625,38.166312669300595L176.92994791666666,34.79130511511542L179.35364583333333,31.69599987084257L181.77734375,32.889861914587954L184.20104166666667,35.931931916412196L186.62473958333334,40.34266942617123L189.0484375,38.7691916554015L191.47213541666667,43.09501249436741L193.89583333333331,41.84955164861782L196.31953125,36.18835542287479L198.74322916666668,38.32212919138894L201.16692708333332,37.38844627759369L203.590625,37.81074883749838L206.01432291666669,36.243617736849956L208.43802083333333,36.71966581074088L210.86171875,35.40169488453711L213.28541666666666,36.22461046310187L215.70911458333333,38.04387537256838L218.1328125,33.76685418146829L220.55651041666667,34.36985825180005L222.98020833333334,32.596702220434906L225.40390625,39.490104673502316L227.82760416666667,37.82424617568526L230.25130208333331,34.76846536427675L232.675,38.27903510843683L235.09869791666668,37.66328057505174L237.52239583333332,37.3554033083592L239.94609375,37.127370753530386L242.36979166666669,35.30916601699775L244.79348958333333,36.178346029332204L247.2171875,40.09540122221455L249.64088541666666,39.16422630980881L252.06458333333333,39.51368329592182L254.48828125,37.9101294083776L256.91197916666664,41.55405558960547L259.33567708333334,39.44897865860119L261.75937500000003,41.28614835494983L264.1830729166667,37.8331239996067L266.6067708333333,41.29326546776849" style="fill: none;" fill="none"></path></g></g></g></g><g opacity="0.20000000298023224"><g><g><g><path stroke="rgb(255, 112, 67)" stroke-width="2px" d="M26.660677083333333,110.40162760416666L29.084375,82.5418891514341L31.508072916666666,60.906130551298475L33.93177083333333,36.7511503557364L36.35546875,40.752278645833314L38.77916666666667,46.383507126569754L41.20286458333333,24.599555030465126L43.6265625,74.68781476120154L46.05026041666667,26.970594435930252L48.47395833333333,32.30544723073643L50.89765625,32.60182291666666L53.321354166666666,50.82921025156975L55.745052083333334,60.01699218750001L58.16875,80.76360677083335L60.59244791666667,50.5328232596318L63.01614583333333,60.75794270833333L65.43984375000001,28.15611979166667L67.86354166666666,42.678754522403096L70.28723958333333,28.600694626569748L72.7109375,33.63914912343026L75.13463541666667,27.26698142786819L77.55833333333334,33.04639775156974L79.98203125,29.9343965192636L82.40572916666666,38.97400191823641L84.82942708333334,51.718348615368214L87.253125,48.01359601120154L89.67682291666667,33.93553611536822L92.10052083333333,33.63914912343026L94.52421875,29.193445998430235L96.94791666666666,73.0577202235659L99.37161458333334,30.230783511201537L101.7953125,41.19685348073642L104.21901041666666,36.45476336379846L106.64270833333333,28.452495477596926L109.06640625,26.377843064069765L111.49010416666667,43.71608072916666L113.91380208333334,27.563357113798475L116.3375,27.26698142786819L118.76119791666666,26.970594435930252L121.18489583333334,33.78734827240308L123.60859375,38.677614926298475L126.03229166666667,32.00906023879844L128.45598958333332,28.452495477596926L130.87968750000002,32.60182291666666L133.30338541666666,33.93553611536822L135.72708333333333,33.04639775156974L138.15078125,35.56562499999998L140.57447916666666,37.343901727596915L142.99817708333333,34.67648663620156L145.421875,31.26810971796513L147.84557291666667,36.30657552083335L150.26927083333334,34.824674479166674L152.69296875,32.00906023879844L155.11666666666667,34.67648663620156L157.54036458333331,35.41743715703487L159.9640625,34.38009964426357L162.38776041666668,32.89819860259692L164.81145833333332,32.00906023879844L167.23515625,37.788476562499994L169.65885416666669,37.343901727596915L172.08255208333333,39.86314028203489L174.50625,38.233051397403074L176.92994791666666,31.416297560930246L179.35364583333333,28.600694626569748L181.77734375,34.08372395833334L184.20104166666667,38.97400191823641L186.62473958333334,44.75340693593026L189.0484375,37.1957138846318L191.47213541666667,47.42083333333335L193.89583333333331,40.6040908028682L196.31953125,30.527159197131795L198.74322916666668,40.455902959903085L201.16692708333332,36.45476336379846L203.590625,38.233051397403074L206.01432291666669,34.67648663620156L208.43802083333333,37.1957138846318L210.86171875,34.08372395833334L213.28541666666666,37.047526041666686L215.70911458333333,39.86314028203489L218.1328125,29.4898329903682L220.55651041666667,34.97286232213179L222.98020833333334,30.82354618906973L225.40390625,46.383507126569754L227.82760416666667,36.158387677868205L230.25130208333331,31.71268455286821L232.675,41.78960485259694L235.09869791666668,37.047526041666686L237.52239583333332,37.047526041666686L239.94609375,36.89933819870154L242.36979166666669,33.49096128046514L244.79348958333333,37.047526041666686L247.2171875,44.01245641509692L249.64088541666666,38.233051397403074L252.06458333333333,39.86314028203489L254.48828125,36.30657552083335L256.91197916666664,45.19798177083334L259.33567708333334,37.343901727596915L261.75937500000003,43.12331805129844L264.1830729166667,34.38009964426357L266.6067708333333,44.75340693593026" style="fill: none;" fill="none"></path></g></g></g></g></g></g><g transform="translate(39, 177)" clip-path="url(#clip_1)"><clipPath id="clip_1"><rect width="290" height="22"></rect></clipPath><g><g><line x1="0" y1="0" x2="0" y2="5" style="visibility: inherit;" fill="rgb(0, 0, 0)" stroke="rgb(204, 204, 204)" stroke-width="1px"></line><line x1="24.236979166666664" y1="0" x2="24.236979166666664" y2="5" style="visibility: inherit;" fill="rgb(0, 0, 0)" stroke="rgb(204, 204, 204)" stroke-width="1px"></line><line x1="48.47395833333333" y1="0" x2="48.47395833333333" y2="5" style="visibility: inherit;" fill="rgb(0, 0, 0)" stroke="rgb(204, 204, 204)" stroke-width="1px"></line><line x1="72.7109375" y1="0" x2="72.7109375" y2="5" style="visibility: inherit;" fill="rgb(0, 0, 0)" stroke="rgb(204, 204, 204)" stroke-width="1px"></line><line x1="96.94791666666666" y1="0" x2="96.94791666666666" y2="5" style="visibility: inherit;" fill="rgb(0, 0, 0)" stroke="rgb(204, 204, 204)" stroke-width="1px"></line><line x1="121.18489583333334" y1="0" x2="121.18489583333334" y2="5" style="visibility: inherit;" fill="rgb(0, 0, 0)" stroke="rgb(204, 204, 204)" stroke-width="1px"></line><line x1="145.421875" y1="0" x2="145.421875" y2="5" style="visibility: inherit;" fill="rgb(0, 0, 0)" stroke="rgb(204, 204, 204)" stroke-width="1px"></line><line x1="169.65885416666669" y1="0" x2="169.65885416666669" y2="5" style="visibility: inherit;" fill="rgb(0, 0, 0)" stroke="rgb(204, 204, 204)" stroke-width="1px"></line><line x1="193.89583333333331" y1="0" x2="193.89583333333331" y2="5" style="visibility: inherit;" fill="rgb(0, 0, 0)" stroke="rgb(204, 204, 204)" stroke-width="1px"></line><line x1="218.1328125" y1="0" x2="218.1328125" y2="5" style="visibility: inherit;" fill="rgb(0, 0, 0)" stroke="rgb(204, 204, 204)" stroke-width="1px"></line><line x1="242.36979166666669" y1="0" x2="242.36979166666669" y2="5" style="visibility: inherit;" fill="rgb(0, 0, 0)" stroke="rgb(204, 204, 204)" stroke-width="1px"></line><line x1="266.6067708333333" y1="0" x2="266.6067708333333" y2="5" style="visibility: inherit;" fill="rgb(0, 0, 0)" stroke="rgb(204, 204, 204)" stroke-width="1px"></line><line x1="290.84375" y1="0" x2="290.84375" y2="5" style="visibility: inherit;" fill="rgb(0, 0, 0)" stroke="rgb(204, 204, 204)" stroke-width="1px"></line></g><g transform="translate(0, 8)"><text x="0" y="0" dx="0em" dy="0.95em" style="text-anchor: middle; visibility: hidden; font-family: &quot;Helvetica Neue&quot;, sans-serif; font-size: 12px; font-weight: 200;" fill="rgb(50, 49, 63)" stroke="none" stroke-width="1px">-10</text><text x="24.236979166666664" y="0" dx="0em" dy="0.95em" style="text-anchor: middle; visibility: inherit; font-family: &quot;Helvetica Neue&quot;, sans-serif; font-size: 12px; font-weight: 200;" fill="rgb(50, 49, 63)" stroke="none" stroke-width="1px">0</text><text x="48.47395833333333" y="0" dx="0em" dy="0.95em" style="text-anchor: middle; visibility: inherit; font-family: &quot;Helvetica Neue&quot;, sans-serif; font-size: 12px; font-weight: 200;" fill="rgb(50, 49, 63)" stroke="none" stroke-width="1px">10</text><text x="72.7109375" y="0" dx="0em" dy="0.95em" style="text-anchor: middle; visibility: inherit; font-family: &quot;Helvetica Neue&quot;, sans-serif; font-size: 12px; font-weight: 200;" fill="rgb(50, 49, 63)" stroke="none" stroke-width="1px">20</text><text x="96.94791666666666" y="0" dx="0em" dy="0.95em" style="text-anchor: middle; visibility: inherit; font-family: &quot;Helvetica Neue&quot;, sans-serif; font-size: 12px; font-weight: 200;" fill="rgb(50, 49, 63)" stroke="none" stroke-width="1px">30</text><text x="121.18489583333334" y="0" dx="0em" dy="0.95em" style="text-anchor: middle; visibility: inherit; font-family: &quot;Helvetica Neue&quot;, sans-serif; font-size: 12px; font-weight: 200;" fill="rgb(50, 49, 63)" stroke="none" stroke-width="1px">40</text><text x="145.421875" y="0" dx="0em" dy="0.95em" style="text-anchor: middle; visibility: inherit; font-family: &quot;Helvetica Neue&quot;, sans-serif; font-size: 12px; font-weight: 200;" fill="rgb(50, 49, 63)" stroke="none" stroke-width="1px">50</text><text x="169.65885416666669" y="0" dx="0em" dy="0.95em" style="text-anchor: middle; visibility: inherit; font-family: &quot;Helvetica Neue&quot;, sans-serif; font-size: 12px; font-weight: 200;" fill="rgb(50, 49, 63)" stroke="none" stroke-width="1px">60</text><text x="193.89583333333331" y="0" dx="0em" dy="0.95em" style="text-anchor: middle; visibility: inherit; font-family: &quot;Helvetica Neue&quot;, sans-serif; font-size: 12px; font-weight: 200;" fill="rgb(50, 49, 63)" stroke="none" stroke-width="1px">70</text><text x="218.1328125" y="0" dx="0em" dy="0.95em" style="text-anchor: middle; visibility: inherit; font-family: &quot;Helvetica Neue&quot;, sans-serif; font-size: 12px; font-weight: 200;" fill="rgb(50, 49, 63)" stroke="none" stroke-width="1px">80</text><text x="242.36979166666669" y="0" dx="0em" dy="0.95em" style="text-anchor: middle; visibility: inherit; font-family: &quot;Helvetica Neue&quot;, sans-serif; font-size: 12px; font-weight: 200;" fill="rgb(50, 49, 63)" stroke="none" stroke-width="1px">90</text><text x="266.6067708333333" y="0" dx="0em" dy="0.95em" style="text-anchor: middle; visibility: inherit; font-family: &quot;Helvetica Neue&quot;, sans-serif; font-size: 12px; font-weight: 200;" fill="rgb(50, 49, 63)" stroke="none" stroke-width="1px">100</text><text x="290.84375" y="0" dx="0em" dy="0.95em" style="text-anchor: middle; visibility: hidden; font-family: &quot;Helvetica Neue&quot;, sans-serif; font-size: 12px; font-weight: 200;" fill="rgb(50, 49, 63)" stroke="none" stroke-width="1px">110</text></g><line x1="0" y1="0" x2="290.84375" y2="0" fill="rgb(0, 0, 0)" stroke="rgb(204, 204, 204)" stroke-width="1px"></line></g></g></g></g></svg>