<svg viewBox="0 0 330 200" xmlns="http://www.w3.org/2000/svg"><g><g><g><g><g><line x1="39.15625" y1="177.828125" x2="34.15625" y2="177.828125" style="visibility: inherit;" fill="rgb(0, 0, 0)" stroke="rgb(204, 204, 204)" stroke-width="1px"></line><line x1="39.15625" y1="165.12611607142858" x2="34.15625" y2="165.12611607142858" style="visibility: inherit;" fill="rgb(0, 0, 0)" stroke="rgb(204, 204, 204)" stroke-width="1px"></line><line x1="39.15625" y1="152.42410714285714" x2="34.15625" y2="152.42410714285714" style="visibility: inherit;" fill="rgb(0, 0, 0)" stroke="rgb(204, 204, 204)" stroke-width="1px"></line><line x1="39.15625" y1="139.72209821428572" x2="34.15625" y2="139.72209821428572" style="visibility: inherit;" fill="rgb(0, 0, 0)" stroke="rgb(204, 204, 204)" stroke-width="1px"></line><line x1="39.15625" y1="127.02008928571429" x2="34.15625" y2="127.02008928571429" style="visibility: inherit;" fill="rgb(0, 0, 0)" stroke="rgb(204, 204, 204)" stroke-width="1px"></line><line x1="39.15625" y1="114.31808035714286" x2="34.15625" y2="114.31808035714286" style="visibility: inherit;" fill="rgb(0, 0, 0)" stroke="rgb(204, 204, 204)" stroke-width="1px"></line><line x1="39.15625" y1="101.61607142857143" x2="34.15625" y2="101.61607142857143" style="visibility: inherit;" fill="rgb(0, 0, 0)" stroke="rgb(204, 204, 204)" stroke-width="1px"></line><line x1="39.15625" y1="88.9140625" x2="34.15625" y2="88.9140625" style="visibility: inherit;" fill="rgb(0, 0, 0)" stroke="rgb(204, 204, 204)" stroke-width="1px"></line><line x1="39.15625" y1="76.21205357142858" x2="34.15625" y2="76.21205357142858" style="visibility: inherit;" fill="rgb(0, 0, 0)" stroke="rgb(204, 204, 204)" stroke-width="1px"></line><line x1="39.15625" y1="63.51004464285714" x2="34.15625" y2="63.51004464285714" style="visibility: inherit;" fill="rgb(0, 0, 0)" stroke="rgb(204, 204, 204)" stroke-width="1px"></line><line x1="39.15625" y1="50.80803571428571" x2="34.15625" y2="50.80803571428571" style="visibility: inherit;" fill="rgb(0, 0, 0)" stroke="rgb(204, 204, 204)" stroke-width="1px"></line><line x1="39.15625" y1="38.10602678571428" x2="34.15625" y2="38.10602678571428" style="visibility: inherit;" fill="rgb(0, 0, 0)" stroke="rgb(204, 204, 204)" stroke-width="1px"></line><line x1="39.15625" y1="25.40401785714286" x2="34.15625" y2="25.40401785714286" style="visibility: inherit;" fill="rgb(0, 0, 0)" stroke="rgb(204, 204, 204)" stroke-width="1px"></line><line x1="39.15625" y1="12.702008928571416" x2="34.15625" y2="12.702008928571416" style="visibility: inherit;" fill="rgb(0, 0, 0)" stroke="rgb(204, 204, 204)" stroke-width="1px"></line><line x1="39.15625" y1="0" x2="34.15625" y2="0" style="visibility: inherit;" fill="rgb(0, 0, 0)" stroke="rgb(204, 204, 204)" stroke-width="1px"></line></g><g transform="translate(29.15625, 0)"><text x="0" y="177.828125" dx="0em" dy="0.3em" style="text-anchor: end; visibility: hidden; font-family: &quot;Helvetica Neue&quot;, sans-serif; font-size: 12px; font-weight: 200;" fill="rgb(50, 49, 63)" stroke="none" stroke-width="1px">-40</text><text x="0" y="165.12611607142858" dx="0em" dy="0.3em" style="text-anchor: end; visibility: inherit; font-family: &quot;Helvetica Neue&quot;, sans-serif; font-size: 12px; font-weight: 200;" fill="rgb(50, 49, 63)" stroke="none" stroke-width="1px">-20</text><text x="0" y="152.42410714285714" dx="0em" dy="0.3em" style="text-anchor: end; visibility: hidden; font-family: &quot;Helvetica Neue&quot;, sans-serif; font-size: 12px; font-weight: 200;" fill="rgb(50, 49, 63)" stroke="none" stroke-width="1px">0</text><text x="0" y="139.72209821428572" dx="0em" dy="0.3em" style="text-anchor: end; visibility: inherit; font-family: &quot;Helvetica Neue&quot;, sans-serif; font-size: 12px; font-weight: 200;" fill="rgb(50, 49, 63)" stroke="none" stroke-width="1px">20</text><text x="0" y="127.02008928571429" dx="0em" dy="0.3em" style="text-anchor: end; visibility: hidden; font-family: &quot;Helvetica Neue&quot;, sans-serif; font-size: 12px; font-weight: 200;" fill="rgb(50, 49, 63)" stroke="none" stroke-width="1px">40</text><text x="0" y="114.31808035714286" dx="0em" dy="0.3em" style="text-anchor: end; visibility: inherit; font-family: &quot;Helvetica Neue&quot;, sans-serif; font-size: 12px; font-weight: 200;" fill="rgb(50, 49, 63)" stroke="none" stroke-width="1px">60</text><text x="0" y="101.61607142857143" dx="0em" dy="0.3em" style="text-anchor: end; visibility: hidden; font-family: &quot;Helvetica Neue&quot;, sans-serif; font-size: 12px; font-weight: 200;" fill="rgb(50, 49, 63)" stroke="none" stroke-width="1px">80</text><text x="0" y="88.9140625" dx="0em" dy="0.3em" style="text-anchor: end; visibility: inherit; font-family: &quot;Helvetica Neue&quot;, sans-serif; font-size: 12px; font-weight: 200;" fill="rgb(50, 49, 63)" stroke="none" stroke-width="1px">100</text><text x="0" y="76.21205357142858" dx="0em" dy="0.3em" style="text-anchor: end; visibility: hidden; font-family: &quot;Helvetica Neue&quot;, sans-serif; font-size: 12px; font-weight: 200;" fill="rgb(50, 49, 63)" stroke="none" stroke-width="1px">120</text><text x="0" y="63.51004464285714" dx="0em" dy="0.3em" style="text-anchor: end; visibility: inherit; font-family: &quot;Helvetica Neue&quot;, sans-serif; font-size: 12px; font-weight: 200;" fill="rgb(50, 49, 63)" stroke="none" stroke-width="1px">140</text><text x="0" y="50.80803571428571" dx="0em" dy="0.3em" style="text-anchor: end; visibility: hidden; font-family: &quot;Helvetica Neue&quot;, sans-serif; font-size: 12px; font-weight: 200;" fill="rgb(50, 49, 63)" stroke="none" stroke-width="1px">160</text><text x="0" y="38.10602678571428" dx="0em" dy="0.3em" style="text-anchor: end; visibility: inherit; font-family: &quot;Helvetica Neue&quot;, sans-serif; font-size: 12px; font-weight: 200;" fill="rgb(50, 49, 63)" stroke="none" stroke-width="1px">180</text><text x="0" y="25.40401785714286" dx="0em" dy="0.3em" style="text-anchor: end; visibility: hidden; font-family: &quot;Helvetica Neue&quot;, sans-serif; font-size: 12px; font-weight: 200;" fill="rgb(50, 49, 63)" stroke="none" stroke-width="1px">200</text><text x="0" y="12.702008928571416" dx="0em" dy="0.3em" style="text-anchor: end; visibility: inherit; font-family: &quot;Helvetica Neue&quot;, sans-serif; font-size: 12px; font-weight: 200;" fill="rgb(50, 49, 63)" stroke="none" stroke-width="1px">220</text><text x="0" y="0" dx="0em" dy="0.3em" style="text-anchor: end; visibility: hidden; font-family: &quot;Helvetica Neue&quot;, sans-serif; font-size: 12px; font-weight: 200;" fill="rgb(50, 49, 63)" stroke="none" stroke-width="1px">240</text></g><line x1="39.15625" y1="0" x2="39.15625" y2="177.828125" fill="rgb(0, 0, 0)" stroke="rgb(204, 204, 204)" stroke-width="1px"></line></g></g><g transform="translate(39, 0)" clip-path="url(#clip_0)"><clipPath id="clip_0"><rect width="290" height="177"></rect></clipPath><g><g><g><line x1="0" y1="0" x2="0" y2="177.828125" fill="rgb(0, 0, 0)" stroke="rgb(60, 60, 60)" stroke-width="1px" opacity="0.25"></line><line x1="24.236979166666664" y1="0" x2="24.236979166666664" y2="177.828125" fill="rgb(0, 0, 0)" stroke="rgb(60, 60, 60)" stroke-width="1px" opacity="0.25"></line><line x1="48.47395833333333" y1="0" x2="48.47395833333333" y2="177.828125" fill="rgb(0, 0, 0)" stroke="rgb(60, 60, 60)" stroke-width="1px" opacity="0.25"></line><line x1="72.7109375" y1="0" x2="72.7109375" y2="177.828125" fill="rgb(0, 0, 0)" stroke="rgb(60, 60, 60)" stroke-width="1px" opacity="0.25"></line><line x1="96.94791666666666" y1="0" x2="96.94791666666666" y2="177.828125" fill="rgb(0, 0, 0)" stroke="rgb(60, 60, 60)" stroke-width="1px" opacity="0.25"></line><line x1="121.18489583333334" y1="0" x2="121.18489583333334" y2="177.828125" fill="rgb(0, 0, 0)" stroke="rgb(60, 60, 60)" stroke-width="1px" opacity="0.25"></line><line x1="145.421875" y1="0" x2="145.421875" y2="177.828125" fill="rgb(0, 0, 0)" stroke="rgb(60, 60, 60)" stroke-width="1px" opacity="0.25"></line><line x1="169.65885416666669" y1="0" x2="169.65885416666669" y2="177.828125" fill="rgb(0, 0, 0)" stroke="rgb(60, 60, 60)" stroke-width="1px" opacity="0.25"></line><line x1="193.89583333333331" y1="0" x2="193.89583333333331" y2="177.828125" fill="rgb(0, 0, 0)" stroke="rgb(60, 60, 60)" stroke-width="1px" opacity="0.25"></line><line x1="218.1328125" y1="0" x2="218.1328125" y2="177.828125" fill="rgb(0, 0, 0)" stroke="rgb(60, 60, 60)" stroke-width="1px" opacity="0.25"></line><line x1="242.36979166666669" y1="0" x2="242.36979166666669" y2="177.828125" fill="rgb(0, 0, 0)" stroke="rgb(60, 60, 60)" stroke-width="1px" opacity="0.25"></line><line x1="266.6067708333333" y1="0" x2="266.6067708333333" y2="177.828125" fill="rgb(0, 0, 0)" stroke="rgb(60, 60, 60)" stroke-width="1px" opacity="0.25"></line><line x1="290.84375" y1="0" x2="290.84375" y2="177.828125" fill="rgb(0, 0, 0)" stroke="rgb(60, 60, 60)" stroke-width="1px" opacity="0.25"></line></g><g><line x1="0" y1="177.828125" x2="290.84375" y2="177.828125" fill="rgb(0, 0, 0)" stroke="rgb(60, 60, 60)" stroke-width="1px" opacity="0.25"></line><line x1="0" y1="165.12611607142858" x2="290.84375" y2="165.12611607142858" fill="rgb(0, 0, 0)" stroke="rgb(60, 60, 60)" stroke-width="1px" opacity="0.25"></line><line x1="0" y1="152.42410714285714" x2="290.84375" y2="152.42410714285714" fill="rgb(0, 0, 0)" stroke="rgb(60, 60, 60)" stroke-width="1px" opacity="0.25"></line><line x1="0" y1="139.72209821428572" x2="290.84375" y2="139.72209821428572" fill="rgb(0, 0, 0)" stroke="rgb(60, 60, 60)" stroke-width="1px" opacity="0.25"></line><line x1="0" y1="127.02008928571429" x2="290.84375" y2="127.02008928571429" fill="rgb(0, 0, 0)" stroke="rgb(60, 60, 60)" stroke-width="1px" opacity="0.25"></line><line x1="0" y1="114.31808035714286" x2="290.84375" y2="114.31808035714286" fill="rgb(0, 0, 0)" stroke="rgb(60, 60, 60)" stroke-width="1px" opacity="0.25"></line><line x1="0" y1="101.61607142857143" x2="290.84375" y2="101.61607142857143" fill="rgb(0, 0, 0)" stroke="rgb(60, 60, 60)" stroke-width="1px" opacity="0.25"></line><line x1="0" y1="88.9140625" x2="290.84375" y2="88.9140625" fill="rgb(0, 0, 0)" stroke="rgb(60, 60, 60)" stroke-width="1px" opacity="0.25"></line><line x1="0" y1="76.21205357142858" x2="290.84375" y2="76.21205357142858" fill="rgb(0, 0, 0)" stroke="rgb(60, 60, 60)" stroke-width="1px" opacity="0.25"></line><line x1="0" y1="63.51004464285714" x2="290.84375" y2="63.51004464285714" fill="rgb(0, 0, 0)" stroke="rgb(60, 60, 60)" stroke-width="1px" opacity="0.25"></line><line x1="0" y1="50.80803571428571" x2="290.84375" y2="50.80803571428571" fill="rgb(0, 0, 0)" stroke="rgb(60, 60, 60)" stroke-width="1px" opacity="0.25"></line><line x1="0" y1="38.10602678571428" x2="290.84375" y2="38.10602678571428" fill="rgb(0, 0, 0)" stroke="rgb(60, 60, 60)" stroke-width="1px" opacity="0.25"></line><line x1="0" y1="25.40401785714286" x2="290.84375" y2="25.40401785714286" fill="rgb(0, 0, 0)" stroke="rgb(60, 60, 60)" stroke-width="1px" opacity="0.25"></line><line x1="0" y1="12.702008928571416" x2="290.84375" y2="12.702008928571416" fill="rgb(0, 0, 0)" stroke="rgb(60, 60, 60)" stroke-width="1px" opacity="0.25"></line><line x1="0" y1="0" x2="290.84375" y2="0" fill="rgb(0, 0, 0)" stroke="rgb(60, 60, 60)" stroke-width="1px" opacity="0.25"></line></g></g></g><g><g><line x1="0" y1="152.42410714285714" x2="290.84375" y2="152.42410714285714" fill="rgb(0, 0, 0)" stroke="rgb(153, 153, 153)" stroke-width="1.5px"></line></g></g><g><g><line x1="24.236979166666664" y1="0" x2="24.236979166666664" y2="177.828125" fill="rgb(0, 0, 0)" stroke="rgb(153, 153, 153)" stroke-width="1.5px"></line></g></g><g><g><g><g><g><path stroke="rgb(255, 112, 67)" stroke-width="2px" d="M24.236979166666664,152.48761718844636L25.448828125,122.4020620056948L26.660677083333333,110.66534847155181L27.872526041666667,101.69406414291156L29.084375,103.77704110537121L30.296223958333336,99.84766256718154L31.508072916666666,97.38456657998186L32.719921875000004,97.319213137716L33.93177083333333,94.4321560771243L35.143619791666666,91.01830480990513L36.35546875,91.23310789272776L37.567317708333334,93.05751543322397L38.77916666666667,94.56951628190343L39.991015625,94.74947141037967L41.20286458333333,92.17155462213562L42.41471354166667,91.81318408762333L43.6265625,89.87935250914154L44.83841145833333,83.60368940832038L46.05026041666667,77.08980909612025L47.262109375,72.87894617959942L48.47395833333333,71.0381026307512L49.68580729166667,68.17450297879704L50.89765625,71.25563853725919L52.10950520833333,73.17950520798571L53.321354166666666,71.69858079336079L54.533203125,70.77659935887877L55.745052083333334,67.05838127958837L56.95690104166667,63.889727795780644L58.16875,61.43361353789008L59.38059895833333,58.13957913791302L60.59244791666667,54.832656000193026L61.804296875,54.15325282235071L63.01614583333333,53.85057883399516L64.22799479166666,57.82584540926665L65.43984375000001,57.329155529054745L66.65169270833333,56.89163312931376L67.86354166666666,60.03324267745883L69.075390625,61.50142356085628L70.28723958333333,66.462270181175L71.49908854166667,66.014980796186L72.7109375,66.04634493343538L73.92278645833333,65.38515448595129L75.13463541666667,61.02690115489925L76.346484375,57.48542471644542L77.55833333333334,52.44558679238902L78.77018229166666,48.83210121590497L79.98203125,46.62704370673282L81.19388020833334,43.36439538269278L82.40572916666666,42.80303975057444L83.617578125,43.99256524507581L84.82942708333334,43.3590077731065L86.04127604166666,41.54842291636544L87.253125,39.891167970065766L88.46497395833333,47.31792148872145L89.67682291666667,49.53596829802683L90.888671875,46.704842215098296L92.10052083333333,48.550908108572116L93.31236979166667,47.56466619462671L94.52421875,48.019034574710844L95.73606770833334,46.36322675072108L96.94791666666666,44.90441668750947L98.159765625,42.66075757677615L99.37161458333334,44.71122440059389L100.58346354166666,44.135094256393074L101.7953125,44.785586099266595L103.00716145833334,45.62922532510885L104.21901041666666,45.599111617255005L105.430859375,39.27448236090737L106.64270833333333,41.365626369815175L107.85455729166667,40.03784962099198L109.06640625,39.223739076538294L110.27825520833333,40.724062306514526L111.49010416666667,40.843911587626735L112.701953125,38.62397263268204L113.91380208333334,34.748717214779816L115.12565104166666,35.94826280001752L116.3375,35.960215401666005L117.54934895833334,37.918795119225535L118.76119791666666,36.373721929605495L119.973046875,37.5047903170001L121.18489583333334,38.037581135525215L122.39674479166666,37.53597908661655L123.60859375,46.05460115494188L124.82044270833333,55.33158692655597L126.03229166666667,54.0663038655792L127.244140625,54.638687476429936L128.45598958333332,54.32838203544509L129.66783854166667,54.13925273889741L130.87968750000002,54.72207171775558L132.09153645833334,49.517212155756084L133.30338541666666,49.19024186056782L134.515234375,48.30124671348719L135.72708333333333,44.298833700283524L136.93893229166667,48.12917180511161L138.15078125,45.88826884777893L139.36263020833334,48.90929023446361L140.57447916666666,50.70986805775013L141.78632812499998,47.407047799902614L142.99817708333333,39.1032500858866L144.21002604166668,37.55020955367871L145.421875,39.532870762566745L146.63372395833332,40.2013122746163L147.84557291666667,40.21367434007311L149.057421875,42.111297196362415L150.26927083333334,37.88168269073779L151.48111979166669,37.36113817652429L152.69296875,36.843000740908565L153.90481770833333,35.713932016524495L155.11666666666667,36.163348120259144L156.328515625,33.75584691077381L157.54036458333331,34.705747826091L158.75221354166666,37.88703476846183L159.9640625,39.30213297876662L161.17591145833333,36.77914383630849L162.38776041666668,34.98824037069224L163.599609375,37.84534110605895L164.81145833333332,44.5391847981609L166.02330729166667,49.42630460984452L167.23515625,43.11073455018641L168.44700520833334,45.66271046040549L169.65885416666669,43.73848746970165L170.870703125,42.07532331679684L172.08255208333333,45.44000552585845L173.29440104166667,43.65682447052342L174.50625,45.26989882614393L175.71809895833331,47.18452176193304L176.92994791666666,44.1085684869152L178.141796875,45.79380332344667L179.35364583333333,40.85346513599475L180.56549479166668,43.056618719843584L181.77734375,45.33711752306624L182.98919270833332,49.06512672634443L184.20104166666667,48.26156599565479L185.412890625,47.821468568394295L186.62473958333334,45.725754035179875L187.83658854166669,45.7750683162912L189.0484375,48.523759623434984L190.26028645833333,47.555019468120804L191.47213541666667,48.45251487911699L192.683984375,48.576179931737954L193.89583333333331,45.68516148467944L195.10768229166666,43.155991702248116L196.31953125,47.893315616581305L197.53138020833333,46.15145776154941L198.74322916666668,46.51085075545507L199.955078125,50.527141492688045L201.16692708333332,50.44652150454493L202.37877604166667,49.18023368600777L203.590625,51.18592638055064L204.80247395833334,50.2549727788365L206.01432291666669,50.986844042932546L207.226171875,51.44263158014657L208.43802083333333,56.345704410624734L209.64986979166667,58.24323412325326L210.86171875,60.60804680130467L212.07356770833331,57.62573337281434L213.28541666666666,52.142388595254005L214.497265625,57.37619136329451L215.70911458333333,52.67645451053579L216.92096354166668,50.69786815960545L218.1328125,54.102184303829134L219.34466145833332,54.60635579140926L220.55651041666667,53.26040808572081L221.768359375,49.66145337093565L222.98020833333334,49.429218908474866L224.19205729166669,48.49410119355406L225.40390625,49.00197774913559L226.61575520833333,47.56096015032847L227.82760416666667,47.69734818952935L229.039453125,48.003533103156286L230.25130208333331,49.28024842406856L231.46315104166666,49.75897295032155L232.675,50.463997795160225L233.88684895833333,51.25358524376496L235.09869791666668,50.701811143097416L236.310546875,48.626289733853866L237.52239583333332,43.73989541325096L238.73424479166667,44.44214555421749L239.94609375,47.39906194811141L241.15794270833334,44.15912803100497L242.36979166666669,49.42603476410139L243.581640625,48.932800127357865L244.79348958333333,46.205846438452284L246.00533854166667,46.836662009615935L247.2171875,48.31406894841669L248.42903645833331,48.84443354055901L249.64088541666666,48.61053682928468L250.852734375,47.06120574876769L252.06458333333333,41.765940823486915L253.27643229166668,45.61934420530804L254.48828125,47.36846617025577L255.70013020833332,50.299929236226774L256.91197916666664,49.74834916577302L258.123828125,48.236827263385976L259.33567708333334,45.85257241963282L260.5475260416667,45.81612355946439L261.75937500000003,45.6641349431477L262.9712239583333,43.55577544804393L264.1830729166667,39.80733746067858L265.39492187499997,40.766015555097994L266.6067708333333,44.125989073420186" style="fill: none;" fill="none"></path></g></g></g></g><g opacity="0.20000000298023224"><g><g><g><path stroke="rgb(255, 112, 67)" stroke-width="2px" d="M24.236979166666664,152.48761718844636L25.448828125,98.12301897321429L26.660677083333333,93.55029769710131L27.872526041666667,83.89676800412792L29.084375,108.79270841138703L30.296223958333336,89.04108065111296L31.508072916666666,89.93022224519935L32.719921875000004,97.10685922801495L33.93177083333333,84.53186845055649L35.143619791666666,78.81596443269935L36.35546875,92.02605565658638L37.567317708333334,99.96481123694352L38.77916666666667,100.40937961127077L39.991015625,95.45559903638704L41.20286458333333,81.92795758928573L42.41471354166667,90.37479546495847L43.6265625,82.05497574039867L44.83841145833333,58.048176927225924L46.05026041666667,50.42697157008308L47.262109375,55.5712890625L48.47395833333333,63.44653072186878L49.68580729166667,56.33340766004153L50.89765625,84.02379100067276L52.10950520833333,81.16583899174417L53.321354166666666,65.54236413325582L54.533203125,66.93958317722594L55.745052083333334,51.57015431182725L56.95690104166667,50.68101756317276L58.16875,51.18909985848836L59.38059895833333,44.393517329011644L60.59244791666667,41.02749271563121L61.804296875,51.316118009601325L63.01614583333333,52.58631890245846L64.22799479166666,74.43377038325583L65.43984375000001,55.25373883928572L66.65169270833333,55.06320676718438L67.86354166666666,73.16356949039869L69.075390625,67.63819754464285L70.28723958333333,87.1992932328156L71.49908854166667,64.14514508928572L72.7109375,66.17746457968438L73.92278645833333,62.620907894202645L75.13463541666667,42.8057662129402L76.346484375,42.678748061827264L77.55833333333334,31.373958177225916L78.77018229166666,33.72383758170264L79.98203125,37.407412418297355L81.19388020833334,29.722702831029892L82.40572916666666,40.45589649932725L83.617578125,48.96624829598835L84.82942708333334,40.70994249241693L86.04127604166666,33.97787388392857L87.253125,32.96170929329736L88.46497395833333,78.37139605837208L89.67682291666667,58.81030521563122L90.888671875,34.86701063258306L92.10052083333333,56.26990342991692L93.31236979166667,43.440866659368794L94.52421875,49.9188989656312L95.73606770833334,39.43974159955977L96.94791666666666,38.8046411531312L98.159765625,33.279259516511644L99.37161458333334,53.28492357901163L100.58346354166666,41.726097392184386L101.7953125,47.5055153310299L103.00716145833334,49.15677067722595L104.21901041666666,45.473195840631206L105.430859375,12.829027079684408L106.64270833333333,50.1094213468688L107.85455729166667,34.48595617924417L109.06640625,35.81966130222594L110.27825520833333,46.997433035714266L111.49010416666667,41.345042938845495L112.701953125,29.341638686827253L113.91380208333334,18.544931097541536L115.12565104166666,40.963978794642856L116.3375,36.01019337432726L117.54934895833334,46.1082962870598L118.76119791666666,29.91323490313121L119.973046875,42.23417968750002L121.18489583333334,40.26536442722593L122.39674479166666,35.43860684888705L123.60859375,81.67391644162791L124.82044270833333,94.12188422254154L126.03229166666667,48.77571622388703L127.244140625,57.03202202745847L128.45598958333332,53.03088727678572L129.66783854166667,53.3484375L130.87968750000002,57.159040178571416L132.09153645833334,27.753887570755808L133.30338541666666,47.82306555424418L134.515234375,44.58404940111296L135.72708333333333,27.563355498654516L136.93893229166667,64.14514508928572L138.15078125,36.51827566964286L139.36263020833334,61.54122938258308L140.57447916666666,58.23870899932726L141.78632812499998,33.59680973972593L142.99817708333333,4.382189204011638L144.21002604166668,31.056407954011632L145.421875,47.82306555424418L146.63372395833332,42.99629828504155L147.84557291666667,40.26536442722593L149.057421875,50.04591711674418L150.26927083333334,20.19619613460131L151.48111979166669,35.18456085579737L152.69296875,34.67648825134552L153.90481770833333,30.992903723887025L155.11666666666667,38.04251286472595L156.328515625,23.689248589958453L157.54036458333331,38.677613311154516L158.75221354166666,51.18909985848836L159.9640625,45.21914984754153L161.17591145833333,26.229650375672747L162.38776041666668,27.49985126852991L163.599609375,49.791871123654516L164.81145833333332,72.5284690439701L166.02330729166667,69.86104910714286L167.23515625,16.703143679244192L168.44700520833334,56.33340766004153L169.65885416666669,35.692643151112975L170.870703125,35.121056625672736L172.08255208333333,59.50890989218439L173.29440104166667,36.20072544642858L174.50625,52.0147226861545L175.71809895833331,55.19022491829736L176.92994791666666,31.246940026112952L178.141796875,52.8403552046844L179.35364583333333,20.19619613460131L180.56549479166668,52.268768679244175L181.77734375,54.87267469508308L182.98919270833332,64.65322738460131L184.20104166666667,44.90159962432725L185.412890625,45.98126844508306L186.62473958333334,36.96284404397011L187.83658854166669,45.98126844508306L189.0484375,60.01699218750001L190.26028645833333,43.50438058035715L191.47213541666667,52.20525475825583L192.683984375,49.093266447101314L193.89583333333331,33.59680973972593L195.10768229166666,32.58065483995847L196.31953125,67.7017114656312L197.53138020833333,38.86814538325581L198.74322916666668,48.0135976263455L199.955078125,67.32064732142857L201.16692708333332,50.1094213468688L202.37877604166667,43.88544472455979L203.590625,59.57242381317275L204.80247395833334,46.3623325892857L206.01432291666669,54.047051867416926L207.226171875,53.3484375L208.43802083333333,76.84715401785715L209.64986979166667,66.17746457968438L210.86171875,70.49614955357143L212.07356770833331,45.15564561741692L213.28541666666666,29.21462053571429L214.497265625,79.26053765245847L215.70911458333333,33.02522321428572L216.92096354166668,42.42471175960131L218.1328125,68.33681191205979L219.34466145833332,56.714471804244184L220.55651041666667,47.63253348214286L221.768359375,34.61297433035713L222.98020833333334,48.45816600067275L224.19205729166669,44.58404940111296L225.40390625,51.12558593749999L226.61575520833333,41.535565320083066L227.82760416666667,48.26763392857143L229.039453125,49.283798519202634L230.25130208333331,54.61863839285715L231.46315104166666,51.76068638392857L232.675,53.41195142098836L233.88684895833333,54.555124471868794L235.09869791666668,48.39465207968439L236.310546875,39.94781420401165L237.52239583333332,23.308184445755842L238.73424479166667,47.378497179916934L239.94609375,59.76295588527407L241.15794270833334,30.611839579684386L242.36979166666669,71.44880022321429L243.581640625,46.87041488460133L244.79348958333333,34.80350640245845L246.00533854166667,49.47432090044023L247.2171875,54.49162024174417L248.42903645833331,51.06207201651165L249.64088541666666,47.63253348214286L250.852734375,40.582914650440216L252.06458333333333,19.62459991829735L253.27643229166668,61.73176145468439L254.48828125,54.68215231384549L255.70013020833332,62.557393973214275L256.91197916666664,47.44200141004154L258.123828125,41.916629464285734L259.33567708333334,35.883175223214266L260.5475260416667,45.66371822186878L261.75937500000003,45.02861777544021L262.9712239583333,34.739992481470125L264.1830729166667,24.1338169642857L265.39492187499997,44.77458147321428L266.6067708333333,58.17520476920265" style="fill: none;" fill="none"></path></g></g></g></g></g></g><g transform="translate(39, 177)" clip-path="url(#clip_1)"><clipPath id="clip_1"><rect width="290" height="22"></rect></clipPath><g><g><line x1="0" y1="0" x2="0" y2="5" style="visibility: inherit;" fill="rgb(0, 0, 0)" stroke="rgb(204, 204, 204)" stroke-width="1px"></line><line x1="24.236979166666664" y1="0" x2="24.236979166666664" y2="5" style="visibility: inherit;" fill="rgb(0, 0, 0)" stroke="rgb(204, 204, 204)" stroke-width="1px"></line><line x1="48.47395833333333" y1="0" x2="48.47395833333333" y2="5" style="visibility: inherit;" fill="rgb(0, 0, 0)" stroke="rgb(204, 204, 204)" stroke-width="1px"></line><line x1="72.7109375" y1="0" x2="72.7109375" y2="5" style="visibility: inherit;" fill="rgb(0, 0, 0)" stroke="rgb(204, 204, 204)" stroke-width="1px"></line><line x1="96.94791666666666" y1="0" x2="96.94791666666666" y2="5" style="visibility: inherit;" fill="rgb(0, 0, 0)" stroke="rgb(204, 204, 204)" stroke-width="1px"></line><line x1="121.18489583333334" y1="0" x2="121.18489583333334" y2="5" style="visibility: inherit;" fill="rgb(0, 0, 0)" stroke="rgb(204, 204, 204)" stroke-width="1px"></line><line x1="145.421875" y1="0" x2="145.421875" y2="5" style="visibility: inherit;" fill="rgb(0, 0, 0)" stroke="rgb(204, 204, 204)" stroke-width="1px"></line><line x1="169.65885416666669" y1="0" x2="169.65885416666669" y2="5" style="visibility: inherit;" fill="rgb(0, 0, 0)" stroke="rgb(204, 204, 204)" stroke-width="1px"></line><line x1="193.89583333333331" y1="0" x2="193.89583333333331" y2="5" style="visibility: inherit;" fill="rgb(0, 0, 0)" stroke="rgb(204, 204, 204)" stroke-width="1px"></line><line x1="218.1328125" y1="0" x2="218.1328125" y2="5" style="visibility: inherit;" fill="rgb(0, 0, 0)" stroke="rgb(204, 204, 204)" stroke-width="1px"></line><line x1="242.36979166666669" y1="0" x2="242.36979166666669" y2="5" style="visibility: inherit;" fill="rgb(0, 0, 0)" stroke="rgb(204, 204, 204)" stroke-width="1px"></line><line x1="266.6067708333333" y1="0" x2="266.6067708333333" y2="5" style="visibility: inherit;" fill="rgb(0, 0, 0)" stroke="rgb(204, 204, 204)" stroke-width="1px"></line><line x1="290.84375" y1="0" x2="290.84375" y2="5" style="visibility: inherit;" fill="rgb(0, 0, 0)" stroke="rgb(204, 204, 204)" stroke-width="1px"></line></g><g transform="translate(0, 8)"><text x="0" y="0" dx="0em" dy="0.95em" style="text-anchor: middle; visibility: hidden; font-family: &quot;Helvetica Neue&quot;, sans-serif; font-size: 12px; font-weight: 200;" fill="rgb(50, 49, 63)" stroke="none" stroke-width="1px">-20</text><text x="24.236979166666664" y="0" dx="0em" dy="0.95em" style="text-anchor: middle; visibility: inherit; font-family: &quot;Helvetica Neue&quot;, sans-serif; font-size: 12px; font-weight: 200;" fill="rgb(50, 49, 63)" stroke="none" stroke-width="1px">0</text><text x="48.47395833333333" y="0" dx="0em" dy="0.95em" style="text-anchor: middle; visibility: hidden; font-family: &quot;Helvetica Neue&quot;, sans-serif; font-size: 12px; font-weight: 200;" fill="rgb(50, 49, 63)" stroke="none" stroke-width="1px">20</text><text x="72.7109375" y="0" dx="0em" dy="0.95em" style="text-anchor: middle; visibility: inherit; font-family: &quot;Helvetica Neue&quot;, sans-serif; font-size: 12px; font-weight: 200;" fill="rgb(50, 49, 63)" stroke="none" stroke-width="1px">40</text><text x="96.94791666666666" y="0" dx="0em" dy="0.95em" style="text-anchor: middle; visibility: hidden; font-family: &quot;Helvetica Neue&quot;, sans-serif; font-size: 12px; font-weight: 200;" fill="rgb(50, 49, 63)" stroke="none" stroke-width="1px">60</text><text x="121.18489583333334" y="0" dx="0em" dy="0.95em" style="text-anchor: middle; visibility: inherit; font-family: &quot;Helvetica Neue&quot;, sans-serif; font-size: 12px; font-weight: 200;" fill="rgb(50, 49, 63)" stroke="none" stroke-width="1px">80</text><text x="145.421875" y="0" dx="0em" dy="0.95em" style="text-anchor: middle; visibility: hidden; font-family: &quot;Helvetica Neue&quot;, sans-serif; font-size: 12px; font-weight: 200;" fill="rgb(50, 49, 63)" stroke="none" stroke-width="1px">100</text><text x="169.65885416666669" y="0" dx="0em" dy="0.95em" style="text-anchor: middle; visibility: inherit; font-family: &quot;Helvetica Neue&quot;, sans-serif; font-size: 12px; font-weight: 200;" fill="rgb(50, 49, 63)" stroke="none" stroke-width="1px">120</text><text x="193.89583333333331" y="0" dx="0em" dy="0.95em" style="text-anchor: middle; visibility: hidden; font-family: &quot;Helvetica Neue&quot;, sans-serif; font-size: 12px; font-weight: 200;" fill="rgb(50, 49, 63)" stroke="none" stroke-width="1px">140</text><text x="218.1328125" y="0" dx="0em" dy="0.95em" style="text-anchor: middle; visibility: inherit; font-family: &quot;Helvetica Neue&quot;, sans-serif; font-size: 12px; font-weight: 200;" fill="rgb(50, 49, 63)" stroke="none" stroke-width="1px">160</text><text x="242.36979166666669" y="0" dx="0em" dy="0.95em" style="text-anchor: middle; visibility: hidden; font-family: &quot;Helvetica Neue&quot;, sans-serif; font-size: 12px; font-weight: 200;" fill="rgb(50, 49, 63)" stroke="none" stroke-width="1px">180</text><text x="266.6067708333333" y="0" dx="0em" dy="0.95em" style="text-anchor: middle; visibility: inherit; font-family: &quot;Helvetica Neue&quot;, sans-serif; font-size: 12px; font-weight: 200;" fill="rgb(50, 49, 63)" stroke="none" stroke-width="1px">200</text><text x="290.84375" y="0" dx="0em" dy="0.95em" style="text-anchor: middle; visibility: hidden; font-family: &quot;Helvetica Neue&quot;, sans-serif; font-size: 12px; font-weight: 200;" fill="rgb(50, 49, 63)" stroke="none" stroke-width="1px">220</text></g><line x1="0" y1="0" x2="290.84375" y2="0" fill="rgb(0, 0, 0)" stroke="rgb(204, 204, 204)" stroke-width="1px"></line></g></g></g></g></svg>