<svg viewBox="0 0 330 200" xmlns="http://www.w3.org/2000/svg"><g><g><g><g><g><line x1="39.15625" y1="177.828125" x2="34.15625" y2="177.828125" style="visibility: inherit;" fill="rgb(0, 0, 0)" stroke="rgb(204, 204, 204)" stroke-width="1px"></line><line x1="39.15625" y1="165.12611607142858" x2="34.15625" y2="165.12611607142858" style="visibility: inherit;" fill="rgb(0, 0, 0)" stroke="rgb(204, 204, 204)" stroke-width="1px"></line><line x1="39.15625" y1="152.42410714285714" x2="34.15625" y2="152.42410714285714" style="visibility: inherit;" fill="rgb(0, 0, 0)" stroke="rgb(204, 204, 204)" stroke-width="1px"></line><line x1="39.15625" y1="139.72209821428572" x2="34.15625" y2="139.72209821428572" style="visibility: inherit;" fill="rgb(0, 0, 0)" stroke="rgb(204, 204, 204)" stroke-width="1px"></line><line x1="39.15625" y1="127.02008928571429" x2="34.15625" y2="127.02008928571429" style="visibility: inherit;" fill="rgb(0, 0, 0)" stroke="rgb(204, 204, 204)" stroke-width="1px"></line><line x1="39.15625" y1="114.31808035714286" x2="34.15625" y2="114.31808035714286" style="visibility: inherit;" fill="rgb(0, 0, 0)" stroke="rgb(204, 204, 204)" stroke-width="1px"></line><line x1="39.15625" y1="101.61607142857143" x2="34.15625" y2="101.61607142857143" style="visibility: inherit;" fill="rgb(0, 0, 0)" stroke="rgb(204, 204, 204)" stroke-width="1px"></line><line x1="39.15625" y1="88.9140625" x2="34.15625" y2="88.9140625" style="visibility: inherit;" fill="rgb(0, 0, 0)" stroke="rgb(204, 204, 204)" stroke-width="1px"></line><line x1="39.15625" y1="76.21205357142858" x2="34.15625" y2="76.21205357142858" style="visibility: inherit;" fill="rgb(0, 0, 0)" stroke="rgb(204, 204, 204)" stroke-width="1px"></line><line x1="39.15625" y1="63.51004464285714" x2="34.15625" y2="63.51004464285714" style="visibility: inherit;" fill="rgb(0, 0, 0)" stroke="rgb(204, 204, 204)" stroke-width="1px"></line><line x1="39.15625" y1="50.80803571428571" x2="34.15625" y2="50.80803571428571" style="visibility: inherit;" fill="rgb(0, 0, 0)" stroke="rgb(204, 204, 204)" stroke-width="1px"></line><line x1="39.15625" y1="38.10602678571428" x2="34.15625" y2="38.10602678571428" style="visibility: inherit;" fill="rgb(0, 0, 0)" stroke="rgb(204, 204, 204)" stroke-width="1px"></line><line x1="39.15625" y1="25.40401785714286" x2="34.15625" y2="25.40401785714286" style="visibility: inherit;" fill="rgb(0, 0, 0)" stroke="rgb(204, 204, 204)" stroke-width="1px"></line><line x1="39.15625" y1="12.702008928571416" x2="34.15625" y2="12.702008928571416" style="visibility: inherit;" fill="rgb(0, 0, 0)" stroke="rgb(204, 204, 204)" stroke-width="1px"></line><line x1="39.15625" y1="0" x2="34.15625" y2="0" style="visibility: inherit;" fill="rgb(0, 0, 0)" stroke="rgb(204, 204, 204)" stroke-width="1px"></line></g><g transform="translate(29.15625, 0)"><text x="0" y="177.828125" dx="0em" dy="0.3em" style="text-anchor: end; visibility: hidden; font-family: &quot;Helvetica Neue&quot;, sans-serif; font-size: 12px; font-weight: 200;" fill="rgb(50, 49, 63)" stroke="none" stroke-width="1px">-20</text><text x="0" y="165.12611607142858" dx="0em" dy="0.3em" style="text-anchor: end; visibility: inherit; font-family: &quot;Helvetica Neue&quot;, sans-serif; font-size: 12px; font-weight: 200;" fill="rgb(50, 49, 63)" stroke="none" stroke-width="1px">-10</text><text x="0" y="152.42410714285714" dx="0em" dy="0.3em" style="text-anchor: end; visibility: hidden; font-family: &quot;Helvetica Neue&quot;, sans-serif; font-size: 12px; font-weight: 200;" fill="rgb(50, 49, 63)" stroke="none" stroke-width="1px">0</text><text x="0" y="139.72209821428572" dx="0em" dy="0.3em" style="text-anchor: end; visibility: inherit; font-family: &quot;Helvetica Neue&quot;, sans-serif; font-size: 12px; font-weight: 200;" fill="rgb(50, 49, 63)" stroke="none" stroke-width="1px">10</text><text x="0" y="127.02008928571429" dx="0em" dy="0.3em" style="text-anchor: end; visibility: hidden; font-family: &quot;Helvetica Neue&quot;, sans-serif; font-size: 12px; font-weight: 200;" fill="rgb(50, 49, 63)" stroke="none" stroke-width="1px">20</text><text x="0" y="114.31808035714286" dx="0em" dy="0.3em" style="text-anchor: end; visibility: inherit; font-family: &quot;Helvetica Neue&quot;, sans-serif; font-size: 12px; font-weight: 200;" fill="rgb(50, 49, 63)" stroke="none" stroke-width="1px">30</text><text x="0" y="101.61607142857143" dx="0em" dy="0.3em" style="text-anchor: end; visibility: hidden; font-family: &quot;Helvetica Neue&quot;, sans-serif; font-size: 12px; font-weight: 200;" fill="rgb(50, 49, 63)" stroke="none" stroke-width="1px">40</text><text x="0" y="88.9140625" dx="0em" dy="0.3em" style="text-anchor: end; visibility: inherit; font-family: &quot;Helvetica Neue&quot;, sans-serif; font-size: 12px; font-weight: 200;" fill="rgb(50, 49, 63)" stroke="none" stroke-width="1px">50</text><text x="0" y="76.21205357142858" dx="0em" dy="0.3em" style="text-anchor: end; visibility: hidden; font-family: &quot;Helvetica Neue&quot;, sans-serif; font-size: 12px; font-weight: 200;" fill="rgb(50, 49, 63)" stroke="none" stroke-width="1px">60</text><text x="0" y="63.51004464285714" dx="0em" dy="0.3em" style="text-anchor: end; visibility: inherit; font-family: &quot;Helvetica Neue&quot;, sans-serif; font-size: 12px; font-weight: 200;" fill="rgb(50, 49, 63)" stroke="none" stroke-width="1px">70</text><text x="0" y="50.80803571428571" dx="0em" dy="0.3em" style="text-anchor: end; visibility: hidden; font-family: &quot;Helvetica Neue&quot;, sans-serif; font-size: 12px; font-weight: 200;" fill="rgb(50, 49, 63)" stroke="none" stroke-width="1px">80</text><text x="0" y="38.10602678571428" dx="0em" dy="0.3em" style="text-anchor: end; visibility: inherit; font-family: &quot;Helvetica Neue&quot;, sans-serif; font-size: 12px; font-weight: 200;" fill="rgb(50, 49, 63)" stroke="none" stroke-width="1px">90</text><text x="0" y="25.40401785714286" dx="0em" dy="0.3em" style="text-anchor: end; visibility: hidden; font-family: &quot;Helvetica Neue&quot;, sans-serif; font-size: 12px; font-weight: 200;" fill="rgb(50, 49, 63)" stroke="none" stroke-width="1px">100</text><text x="0" y="12.702008928571416" dx="0em" dy="0.3em" style="text-anchor: end; visibility: inherit; font-family: &quot;Helvetica Neue&quot;, sans-serif; font-size: 12px; font-weight: 200;" fill="rgb(50, 49, 63)" stroke="none" stroke-width="1px">110</text><text x="0" y="0" dx="0em" dy="0.3em" style="text-anchor: end; visibility: hidden; font-family: &quot;Helvetica Neue&quot;, sans-serif; font-size: 12px; font-weight: 200;" fill="rgb(50, 49, 63)" stroke="none" stroke-width="1px">120</text></g><line x1="39.15625" y1="0" x2="39.15625" y2="177.828125" fill="rgb(0, 0, 0)" stroke="rgb(204, 204, 204)" stroke-width="1px"></line></g></g><g transform="translate(39, 0)" clip-path="url(#clip_0)"><clipPath id="clip_0"><rect width="290" height="177"></rect></clipPath><g><g><g><line x1="0" y1="0" x2="0" y2="177.828125" fill="rgb(0, 0, 0)" stroke="rgb(60, 60, 60)" stroke-width="1px" opacity="0.25"></line><line x1="24.236979166666664" y1="0" x2="24.236979166666664" y2="177.828125" fill="rgb(0, 0, 0)" stroke="rgb(60, 60, 60)" stroke-width="1px" opacity="0.25"></line><line x1="48.47395833333333" y1="0" x2="48.47395833333333" y2="177.828125" fill="rgb(0, 0, 0)" stroke="rgb(60, 60, 60)" stroke-width="1px" opacity="0.25"></line><line x1="72.7109375" y1="0" x2="72.7109375" y2="177.828125" fill="rgb(0, 0, 0)" stroke="rgb(60, 60, 60)" stroke-width="1px" opacity="0.25"></line><line x1="96.94791666666666" y1="0" x2="96.94791666666666" y2="177.828125" fill="rgb(0, 0, 0)" stroke="rgb(60, 60, 60)" stroke-width="1px" opacity="0.25"></line><line x1="121.18489583333334" y1="0" x2="121.18489583333334" y2="177.828125" fill="rgb(0, 0, 0)" stroke="rgb(60, 60, 60)" stroke-width="1px" opacity="0.25"></line><line x1="145.421875" y1="0" x2="145.421875" y2="177.828125" fill="rgb(0, 0, 0)" stroke="rgb(60, 60, 60)" stroke-width="1px" opacity="0.25"></line><line x1="169.65885416666669" y1="0" x2="169.65885416666669" y2="177.828125" fill="rgb(0, 0, 0)" stroke="rgb(60, 60, 60)" stroke-width="1px" opacity="0.25"></line><line x1="193.89583333333331" y1="0" x2="193.89583333333331" y2="177.828125" fill="rgb(0, 0, 0)" stroke="rgb(60, 60, 60)" stroke-width="1px" opacity="0.25"></line><line x1="218.1328125" y1="0" x2="218.1328125" y2="177.828125" fill="rgb(0, 0, 0)" stroke="rgb(60, 60, 60)" stroke-width="1px" opacity="0.25"></line><line x1="242.36979166666669" y1="0" x2="242.36979166666669" y2="177.828125" fill="rgb(0, 0, 0)" stroke="rgb(60, 60, 60)" stroke-width="1px" opacity="0.25"></line><line x1="266.6067708333333" y1="0" x2="266.6067708333333" y2="177.828125" fill="rgb(0, 0, 0)" stroke="rgb(60, 60, 60)" stroke-width="1px" opacity="0.25"></line><line x1="290.84375" y1="0" x2="290.84375" y2="177.828125" fill="rgb(0, 0, 0)" stroke="rgb(60, 60, 60)" stroke-width="1px" opacity="0.25"></line></g><g><line x1="0" y1="177.828125" x2="290.84375" y2="177.828125" fill="rgb(0, 0, 0)" stroke="rgb(60, 60, 60)" stroke-width="1px" opacity="0.25"></line><line x1="0" y1="165.12611607142858" x2="290.84375" y2="165.12611607142858" fill="rgb(0, 0, 0)" stroke="rgb(60, 60, 60)" stroke-width="1px" opacity="0.25"></line><line x1="0" y1="152.42410714285714" x2="290.84375" y2="152.42410714285714" fill="rgb(0, 0, 0)" stroke="rgb(60, 60, 60)" stroke-width="1px" opacity="0.25"></line><line x1="0" y1="139.72209821428572" x2="290.84375" y2="139.72209821428572" fill="rgb(0, 0, 0)" stroke="rgb(60, 60, 60)" stroke-width="1px" opacity="0.25"></line><line x1="0" y1="127.02008928571429" x2="290.84375" y2="127.02008928571429" fill="rgb(0, 0, 0)" stroke="rgb(60, 60, 60)" stroke-width="1px" opacity="0.25"></line><line x1="0" y1="114.31808035714286" x2="290.84375" y2="114.31808035714286" fill="rgb(0, 0, 0)" stroke="rgb(60, 60, 60)" stroke-width="1px" opacity="0.25"></line><line x1="0" y1="101.61607142857143" x2="290.84375" y2="101.61607142857143" fill="rgb(0, 0, 0)" stroke="rgb(60, 60, 60)" stroke-width="1px" opacity="0.25"></line><line x1="0" y1="88.9140625" x2="290.84375" y2="88.9140625" fill="rgb(0, 0, 0)" stroke="rgb(60, 60, 60)" stroke-width="1px" opacity="0.25"></line><line x1="0" y1="76.21205357142858" x2="290.84375" y2="76.21205357142858" fill="rgb(0, 0, 0)" stroke="rgb(60, 60, 60)" stroke-width="1px" opacity="0.25"></line><line x1="0" y1="63.51004464285714" x2="290.84375" y2="63.51004464285714" fill="rgb(0, 0, 0)" stroke="rgb(60, 60, 60)" stroke-width="1px" opacity="0.25"></line><line x1="0" y1="50.80803571428571" x2="290.84375" y2="50.80803571428571" fill="rgb(0, 0, 0)" stroke="rgb(60, 60, 60)" stroke-width="1px" opacity="0.25"></line><line x1="0" y1="38.10602678571428" x2="290.84375" y2="38.10602678571428" fill="rgb(0, 0, 0)" stroke="rgb(60, 60, 60)" stroke-width="1px" opacity="0.25"></line><line x1="0" y1="25.40401785714286" x2="290.84375" y2="25.40401785714286" fill="rgb(0, 0, 0)" stroke="rgb(60, 60, 60)" stroke-width="1px" opacity="0.25"></line><line x1="0" y1="12.702008928571416" x2="290.84375" y2="12.702008928571416" fill="rgb(0, 0, 0)" stroke="rgb(60, 60, 60)" stroke-width="1px" opacity="0.25"></line><line x1="0" y1="0" x2="290.84375" y2="0" fill="rgb(0, 0, 0)" stroke="rgb(60, 60, 60)" stroke-width="1px" opacity="0.25"></line></g></g></g><g><g><line x1="0" y1="152.42410714285714" x2="290.84375" y2="152.42410714285714" fill="rgb(0, 0, 0)" stroke="rgb(153, 153, 153)" stroke-width="1.5px"></line></g></g><g><g><line x1="24.236979166666664" y1="0" x2="24.236979166666664" y2="177.828125" fill="rgb(0, 0, 0)" stroke="rgb(153, 153, 153)" stroke-width="1.5px"></line></g></g><g><g><g><g><g><path stroke="rgb(255, 112, 67)" stroke-width="2px" d="M24.236979166666664,25.149981554916934L25.448828125,57.549561082709886L26.660677083333333,64.10790494807327L27.872526041666667,58.799153174306326L29.084375,59.43603808895753L30.296223958333336,65.941600235472L31.508072916666666,68.80782567773717L32.719921875000004,69.91536349724672L33.93177083333333,71.01521840158532L35.143619791666666,70.17033114927037L36.35546875,67.66770006976652L37.567317708333334,65.16627108811275L38.77916666666667,67.66836741824392L39.991015625,71.44039742759229L41.20286458333333,71.34554058634666L42.41471354166667,69.4933917837903L43.6265625,73.5691212593655L44.83841145833333,80.10039544040885L46.05026041666667,87.56681002590554L47.262109375,91.04331894336325L48.47395833333333,93.10669809560189L49.68580729166667,95.48757729907506L50.89765625,87.04870466905956L52.10950520833333,81.49280412656098L53.321354166666666,83.42446576685217L54.533203125,90.13457985153305L55.745052083333334,93.94454972917548L56.95690104166667,97.13287041581701L58.16875,103.61444189661653L59.38059895833333,106.00384815905002L60.59244791666667,109.36391925032295L61.804296875,112.52970909283728L63.01614583333333,111.87703291063798L64.22799479166666,109.87567724159362L65.43984375000001,107.22624053996165L66.65169270833333,107.84359820958184L67.86354166666666,103.18144522114899L69.075390625,100.64821989408243L70.28723958333333,91.7246697086158L71.49908854166667,93.36875564331184L72.7109375,94.20407270504424L73.92278645833333,95.61513609091699L75.13463541666667,101.81310019815982L76.346484375,103.78481581853063L77.55833333333334,107.29844983433028L78.77018229166666,107.15510352632012L79.98203125,110.43202921472222L81.19388020833334,112.68802960752822L82.40572916666666,111.77686530493735L83.617578125,113.7654973068525L84.82942708333334,112.64638672364873L86.04127604166666,115.15217504799566L87.253125,114.97648674551982L88.46497395833333,106.26911831869509L89.67682291666667,108.81933550279672L90.888671875,110.54919399817037L92.10052083333333,107.79288917255155L93.31236979166667,110.41420138475554L94.52421875,111.53537958139519L95.73606770833334,114.08064943666984L96.94791666666666,115.08575596547026L98.159765625,112.48610808489549L99.37161458333334,110.09978278418568L100.58346354166666,112.82063148265239L101.7953125,112.0590048538443L103.00716145833334,111.81404097194907L104.21901041666666,113.37434364058176L105.430859375,116.31856811046742L106.64270833333333,115.6873085994536L107.85455729166667,114.8658955050492L109.06640625,112.30868444443216L110.27825520833333,111.96103557220468L111.49010416666667,111.12569330827496L112.701953125,111.95500088434635L113.91380208333334,114.37224835106943L115.12565104166666,115.30235079751773L116.3375,118.08806770288274L117.54934895833334,116.62499785063923L118.76119791666666,116.4132415715504L119.973046875,116.00887824833133L121.18489583333334,115.91603305913793L122.39674479166666,115.31922038394332L123.60859375,112.65490584623073L124.82044270833333,110.07132356881505L126.03229166666667,108.41985314604129L127.244140625,110.2586390186758L128.45598958333332,112.96665963063664L129.66783854166667,112.03798428311654L130.87968750000002,113.45862062139005L132.09153645833334,116.07598548723348L133.30338541666666,117.45592516938835L134.515234375,119.62696641792817L135.72708333333333,117.48804313784485L136.93893229166667,117.36654067110312L138.15078125,115.55242900362785L139.36263020833334,116.09422129949823L140.57447916666666,117.12511452855276L141.78632812499998,119.29289688354001L142.99817708333333,120.1603432437582L144.21002604166668,122.70266392878472L145.421875,117.40719462019916L146.63372395833332,116.42783184398594L147.84557291666667,118.60833217641272L149.057421875,117.23554153872729L150.26927083333334,111.03403947940348L151.48111979166669,114.33252105609795L152.69296875,116.31427346338498L153.90481770833333,118.70025662896083L155.11666666666667,116.62873778405282L156.328515625,115.66668206114508L157.54036458333331,117.04072879562072L158.75221354166666,118.71128309378545L159.9640625,120.30507838387894L161.17591145833333,120.48589611293767L162.38776041666668,121.74699633047652L163.599609375,121.03424390651776L164.81145833333332,116.39996896599398L166.02330729166667,115.99816773757081L167.23515625,117.98119376624928L168.44700520833334,117.5484940150945L169.65885416666669,118.95016818332334L170.870703125,117.81103020121752L172.08255208333333,119.03122447168943L173.29440104166667,118.76110954848008L174.50625,120.60385536818607L175.71809895833331,120.23573107060913L176.92994791666666,119.09362775599766L178.141796875,118.83957174304658L179.35364583333333,120.78613572243383L180.56549479166668,120.9234273584974L181.77734375,120.61642496094007L182.98919270833332,118.66367087949682L184.20104166666667,118.53273350177054L185.412890625,119.15610230827663L186.62473958333334,119.98171686498691L187.83658854166669,119.31498388140713L189.0484375,117.86799254930199L190.26028645833333,117.05383712427124L191.47213541666667,115.22445111450142L192.683984375,112.72061383228751L193.89583333333331,112.9063542260973L195.10768229166666,114.81314470025822L196.31953125,114.47958431182121L197.53138020833333,114.72080427496735L198.74322916666668,112.60546455223886L199.955078125,111.3581375367766L201.16692708333332,110.97893411958998L202.37877604166667,111.60868428869539L203.590625,110.52746417959985L204.80247395833334,111.47828929433688L206.01432291666669,110.73007039640811L207.226171875,112.10967594089654L208.43802083333333,112.37669867375534L209.64986979166667,112.090261526416L210.86171875,110.45853409877157L212.07356770833331,112.18402395384382L213.28541666666666,113.74474367808497L214.497265625,109.79487516629305L215.70911458333333,113.24191681267044L216.92096354166668,114.73535128810602L218.1328125,115.0673109389852L219.34466145833332,114.90800344677898L220.55651041666667,115.16729355506303L221.768359375,116.83098088956984L222.98020833333334,117.00121024607353L224.19205729166669,116.61315351716533L225.40390625,116.56489640826629L226.61575520833333,117.75414785924107L227.82760416666667,117.31022302380734L229.039453125,119.44735459623334L230.25130208333331,120.54817551411006L231.46315104166666,121.3602530393199L232.675,118.39698016135384L233.88684895833333,117.59504650923046L235.09869791666668,118.72194483515642L236.310546875,119.56608544976291L237.52239583333332,121.11129634087845L238.73424479166667,120.76805533584132L239.94609375,118.8620863527194L241.15794270833334,118.10685305009974L242.36979166666669,115.06834263828455L243.581640625,115.94310557251464L244.79348958333333,117.03689004734866L246.00533854166667,117.04331810014571L247.2171875,117.50752778063418L248.42903645833331,117.54718358716246L249.64088541666666,117.59159129879687L250.852734375,118.06163867726656L252.06458333333333,116.89094547528963L253.27643229166668,118.47814894255615L254.48828125,117.44178438045445L255.70013020833332,115.95724213389565L256.91197916666664,116.34864550407045L258.123828125,117.78433238000301L259.33567708333334,117.61777428808881L260.5475260416667,116.59776963628337L261.75937500000003,118.74396588560889L262.9712239583333,119.15665844218064L264.1830729166667,119.43630088454563L265.39492187499997,121.34569853181577L266.6067708333333,120.6344987871906" style="fill: none;" fill="none"></path></g></g></g></g><g opacity="0.20000000298023224"><g><g><g><path stroke="rgb(255, 112, 67)" stroke-width="2px" d="M24.236979166666664,25.149981554916934L25.448828125,83.69602176163878L26.660677083333333,73.67160333139556L27.872526041666667,48.26761454684393L29.084375,60.96961378455161L30.296223958333336,83.83320562882082L31.508072916666666,77.48220600996699L32.719921875000004,73.51410256837094L33.93177083333333,74.78683762209755L35.143619791666666,67.1503982271467L36.35546875,58.429211998837346L37.567317708333334,55.695739134720384L38.77916666666667,77.33231742041451L39.991015625,86.24150155995572L41.20286458333333,70.96861792462212L42.41471354166667,62.05943863051277L43.6265625,90.05972125743116L44.83841145833333,106.69679747309003L46.05026041666667,118.12859339522464L47.262109375,105.33260489276478L48.47395833333333,101.61599874709334L49.68580729166667,105.33260489276478L50.89765625,52.07821722541537L52.10950520833333,58.429211998837346L53.321354166666666,91.45440129509994L54.533203125,118.06010563841888L55.745052083333334,109.8149685553142L56.95690104166667,110.42356448939869L58.16875,130.64923780879803L59.38059895833333,115.97488130011729L60.59244791666667,123.39095529892614L61.804296875,125.74980117508343L63.01614583333333,109.1508245902402L64.22799479166666,101.51438519528934L65.43984375000001,96.15557981559209L66.65169270833333,110.42356448939869L67.86354166666666,83.69602176163878L69.075390625,90.05972125743116L70.28723958333333,54.42299923556192L71.49908854166667,100.24164529613086L72.7109375,97.69616549781391L73.92278645833333,101.51438519528934L75.13463541666667,127.7257610246539L76.346484375,112.02842724812882L77.55833333333334,121.9889998453004L78.77018229166666,106.55576148756913L79.98203125,124.1332803072674L81.19388020833334,122.12075440606901L82.40572916666666,107.96710012001651L83.617578125,122.08043072202376L84.82942708333334,107.96710012001651L86.04127604166666,125.62955936044455L87.253125,114.24188351822751L88.46497395833333,69.86101034368788L89.67682291666667,119.48257907330989L90.888671875,117.78227826569761L92.10052083333333,96.26789208097117L93.31236979166667,121.374763828516L94.52421875,116.22339623272418L95.73606770833334,124.72327220567635L96.94791666666666,119.28844442261118L98.159765625,101.61610050116266L99.37161458333334,100.121745084439L100.58346354166666,124.19742897983107L101.7953125,108.87438301103455L103.00716145833334,110.78976284861564L104.21901041666666,119.89850609983716L105.430859375,128.629385614608L106.64270833333333,113.04779466922794L107.85455729166667,111.43128349227564L109.06640625,101.61610050116266L110.27825520833333,110.50739530622958L111.49010416666667,107.63283800227302L112.701953125,115.42262320241758L113.91380208333334,124.47959785951036L115.12565104166666,119.19143160837038L116.3375,129.7361161723733L117.54934895833334,110.50739530622958L118.76119791666666,115.52781510565963L119.973046875,114.31809489343848L121.18489583333334,115.52781510565963L122.39674479166666,112.82373947671482L123.60859375,101.5144821039268L124.82044270833333,99.26846937707492L126.03229166666667,101.5144821039268L127.244140625,117.9472409938063L128.45598958333332,124.28983378836087L129.66783854166667,108.15487029595035L130.87968750000002,119.39879428808179L132.09153645833334,127.02009655386209L133.30338541666666,123.22593200291905L134.515234375,128.70484352516277L135.72708333333333,108.54446240024907L136.93893229166667,116.85849667915276L138.15078125,107.96699836594718L139.36263020833334,118.35964296864611L140.57447916666666,121.4356369891337L141.78632812499998,128.357147447552L142.99817708333333,123.78743760734795L144.21002604166668,133.3329892737525L145.421875,95.2649991282395L146.63372395833332,112.33277609220573L147.84557291666667,127.7257610246539L149.057421875,111.49542731940745L150.26927083333334,85.10340652167797L151.48111979166669,128.1246175946934L152.69296875,124.60066824299949L153.90481770833333,128.67688053782496L155.11666666666667,107.96699836594718L156.328515625,111.64399310605867L157.54036458333331,122.78609519281558L158.75221354166666,125.69645054744822L159.9640625,126.9692897779601L161.17591145833333,121.24195780903102L162.38776041666668,127.02009413114615L163.599609375,118.05397858981576L164.81145833333332,97.02245665022305L166.02330729166667,114.31809731615442L167.23515625,126.2729140000684L168.44700520833334,115.73922614370073L169.65885416666669,124.81105447219952L170.870703125,113.04789884601321L172.08255208333333,124.1332803072674L173.29440104166667,117.63166528408017L174.50625,128.30901535004378L175.71809895833331,118.69647558799812L176.92994791666666,114.31809731615442L178.141796875,117.77727535728897L179.35364583333333,128.92539547043188L180.56549479166668,121.49749134970563L181.77734375,119.33274136079208L182.98919270833332,110.49852816590241L184.20104166666667,117.9852388705526L185.412890625,121.76262369092021L186.62473958333334,123.43389793889864L187.83658854166669,116.52714182053293L189.0484375,111.81761946635586L190.26028645833333,113.64957065795149L191.47213541666667,107.5751531358276L192.683984375,102.25120094759123L193.89583333333331,113.68299929244178L195.10768229166666,122.7860976155315L196.31953125,113.08485253219094L197.53138020833333,115.72942868045398L198.74322916666668,103.76049483077867L199.955078125,106.14263027523245L201.16692708333332,109.3933529917683L202.37877604166667,114.24188836365937L203.590625,106.00650755763054L204.80247395833334,115.45401917823723L206.01432291666669,107.60150743978363L207.226171875,117.87828565282481L208.43802083333333,113.49321341684886L209.64986979166667,110.89256837666035L210.86171875,103.63571526919092L212.07356770833331,119.39889604215111L213.28541666666666,120.27065464939389L214.497265625,93.27910372061389L215.70911458333333,127.65519457757472L216.92096354166668,120.97991927606719L218.1328125,116.45534947918995L219.34466145833332,114.24188351822751L220.55651041666667,116.25147551042693L221.768359375,123.78743518463203L222.98020833333334,117.71299828078065L224.19205729166669,114.99055361960616L225.40390625,116.36311668349164L226.61575520833333,122.72682102471589L227.82760416666667,115.45401917823723L229.039453125,128.38344360632556L230.25130208333331,125.15108992201942L231.46315104166666,124.75583108514547L232.675,106.00650755763054L233.88684895833333,114.24188351822751L235.09869791666668,123.43389793889864L236.310546875,123.09573040306569L237.52239583333332,127.57235949699368L238.73424479166667,119.33284553757736L239.94609375,110.89256837666035L241.15794270833334,114.94896043241025L242.36979166666669,102.36327578680856L243.581640625,119.60079307471003L244.79348958333333,121.6103826441935L246.00533854166667,117.07019602039031L247.2171875,119.44854960526739L248.42903645833331,117.71299828078065L249.64088541666666,117.77727535728897L250.852734375,120.02706994371755L252.06458333333333,111.99587079137564L253.27643229166668,125.11479763729233L254.48828125,113.10838437208108L255.70013020833332,109.74985564180783L256.91197916666664,117.9852388705526L258.123828125,123.78743760734795L259.33567708333334,116.9213370851108L260.5475260416667,112.33277609220573L261.75937500000003,127.7179574566228L262.9712239583333,120.88226928753512L264.1830729166667,120.6055830140199L265.39492187499997,129.32955294294015L266.6067708333333,117.66072576173714" style="fill: none;" fill="none"></path></g></g></g></g></g></g><g transform="translate(39, 177)" clip-path="url(#clip_1)"><clipPath id="clip_1"><rect width="290" height="22"></rect></clipPath><g><g><line x1="0" y1="0" x2="0" y2="5" style="visibility: inherit;" fill="rgb(0, 0, 0)" stroke="rgb(204, 204, 204)" stroke-width="1px"></line><line x1="24.236979166666664" y1="0" x2="24.236979166666664" y2="5" style="visibility: inherit;" fill="rgb(0, 0, 0)" stroke="rgb(204, 204, 204)" stroke-width="1px"></line><line x1="48.47395833333333" y1="0" x2="48.47395833333333" y2="5" style="visibility: inherit;" fill="rgb(0, 0, 0)" stroke="rgb(204, 204, 204)" stroke-width="1px"></line><line x1="72.7109375" y1="0" x2="72.7109375" y2="5" style="visibility: inherit;" fill="rgb(0, 0, 0)" stroke="rgb(204, 204, 204)" stroke-width="1px"></line><line x1="96.94791666666666" y1="0" x2="96.94791666666666" y2="5" style="visibility: inherit;" fill="rgb(0, 0, 0)" stroke="rgb(204, 204, 204)" stroke-width="1px"></line><line x1="121.18489583333334" y1="0" x2="121.18489583333334" y2="5" style="visibility: inherit;" fill="rgb(0, 0, 0)" stroke="rgb(204, 204, 204)" stroke-width="1px"></line><line x1="145.421875" y1="0" x2="145.421875" y2="5" style="visibility: inherit;" fill="rgb(0, 0, 0)" stroke="rgb(204, 204, 204)" stroke-width="1px"></line><line x1="169.65885416666669" y1="0" x2="169.65885416666669" y2="5" style="visibility: inherit;" fill="rgb(0, 0, 0)" stroke="rgb(204, 204, 204)" stroke-width="1px"></line><line x1="193.89583333333331" y1="0" x2="193.89583333333331" y2="5" style="visibility: inherit;" fill="rgb(0, 0, 0)" stroke="rgb(204, 204, 204)" stroke-width="1px"></line><line x1="218.1328125" y1="0" x2="218.1328125" y2="5" style="visibility: inherit;" fill="rgb(0, 0, 0)" stroke="rgb(204, 204, 204)" stroke-width="1px"></line><line x1="242.36979166666669" y1="0" x2="242.36979166666669" y2="5" style="visibility: inherit;" fill="rgb(0, 0, 0)" stroke="rgb(204, 204, 204)" stroke-width="1px"></line><line x1="266.6067708333333" y1="0" x2="266.6067708333333" y2="5" style="visibility: inherit;" fill="rgb(0, 0, 0)" stroke="rgb(204, 204, 204)" stroke-width="1px"></line><line x1="290.84375" y1="0" x2="290.84375" y2="5" style="visibility: inherit;" fill="rgb(0, 0, 0)" stroke="rgb(204, 204, 204)" stroke-width="1px"></line></g><g transform="translate(0, 8)"><text x="0" y="0" dx="0em" dy="0.95em" style="text-anchor: middle; visibility: hidden; font-family: &quot;Helvetica Neue&quot;, sans-serif; font-size: 12px; font-weight: 200;" fill="rgb(50, 49, 63)" stroke="none" stroke-width="1px">-20</text><text x="24.236979166666664" y="0" dx="0em" dy="0.95em" style="text-anchor: middle; visibility: inherit; font-family: &quot;Helvetica Neue&quot;, sans-serif; font-size: 12px; font-weight: 200;" fill="rgb(50, 49, 63)" stroke="none" stroke-width="1px">0</text><text x="48.47395833333333" y="0" dx="0em" dy="0.95em" style="text-anchor: middle; visibility: hidden; font-family: &quot;Helvetica Neue&quot;, sans-serif; font-size: 12px; font-weight: 200;" fill="rgb(50, 49, 63)" stroke="none" stroke-width="1px">20</text><text x="72.7109375" y="0" dx="0em" dy="0.95em" style="text-anchor: middle; visibility: inherit; font-family: &quot;Helvetica Neue&quot;, sans-serif; font-size: 12px; font-weight: 200;" fill="rgb(50, 49, 63)" stroke="none" stroke-width="1px">40</text><text x="96.94791666666666" y="0" dx="0em" dy="0.95em" style="text-anchor: middle; visibility: hidden; font-family: &quot;Helvetica Neue&quot;, sans-serif; font-size: 12px; font-weight: 200;" fill="rgb(50, 49, 63)" stroke="none" stroke-width="1px">60</text><text x="121.18489583333334" y="0" dx="0em" dy="0.95em" style="text-anchor: middle; visibility: inherit; font-family: &quot;Helvetica Neue&quot;, sans-serif; font-size: 12px; font-weight: 200;" fill="rgb(50, 49, 63)" stroke="none" stroke-width="1px">80</text><text x="145.421875" y="0" dx="0em" dy="0.95em" style="text-anchor: middle; visibility: hidden; font-family: &quot;Helvetica Neue&quot;, sans-serif; font-size: 12px; font-weight: 200;" fill="rgb(50, 49, 63)" stroke="none" stroke-width="1px">100</text><text x="169.65885416666669" y="0" dx="0em" dy="0.95em" style="text-anchor: middle; visibility: inherit; font-family: &quot;Helvetica Neue&quot;, sans-serif; font-size: 12px; font-weight: 200;" fill="rgb(50, 49, 63)" stroke="none" stroke-width="1px">120</text><text x="193.89583333333331" y="0" dx="0em" dy="0.95em" style="text-anchor: middle; visibility: hidden; font-family: &quot;Helvetica Neue&quot;, sans-serif; font-size: 12px; font-weight: 200;" fill="rgb(50, 49, 63)" stroke="none" stroke-width="1px">140</text><text x="218.1328125" y="0" dx="0em" dy="0.95em" style="text-anchor: middle; visibility: inherit; font-family: &quot;Helvetica Neue&quot;, sans-serif; font-size: 12px; font-weight: 200;" fill="rgb(50, 49, 63)" stroke="none" stroke-width="1px">160</text><text x="242.36979166666669" y="0" dx="0em" dy="0.95em" style="text-anchor: middle; visibility: hidden; font-family: &quot;Helvetica Neue&quot;, sans-serif; font-size: 12px; font-weight: 200;" fill="rgb(50, 49, 63)" stroke="none" stroke-width="1px">180</text><text x="266.6067708333333" y="0" dx="0em" dy="0.95em" style="text-anchor: middle; visibility: inherit; font-family: &quot;Helvetica Neue&quot;, sans-serif; font-size: 12px; font-weight: 200;" fill="rgb(50, 49, 63)" stroke="none" stroke-width="1px">200</text><text x="290.84375" y="0" dx="0em" dy="0.95em" style="text-anchor: middle; visibility: hidden; font-family: &quot;Helvetica Neue&quot;, sans-serif; font-size: 12px; font-weight: 200;" fill="rgb(50, 49, 63)" stroke="none" stroke-width="1px">220</text></g><line x1="0" y1="0" x2="290.84375" y2="0" fill="rgb(0, 0, 0)" stroke="rgb(204, 204, 204)" stroke-width="1px"></line></g></g></g></g></svg>