<svg viewBox="0 0 330 200" xmlns="http://www.w3.org/2000/svg"><g><g><g><g><g><line x1="68.3125" y1="177.828125" x2="63.3125" y2="177.828125" style="visibility: inherit;" fill="rgb(0, 0, 0)" stroke="rgb(204, 204, 204)" stroke-width="1px"></line><line x1="68.3125" y1="164.14903846153845" x2="63.3125" y2="164.14903846153845" style="visibility: inherit;" fill="rgb(0, 0, 0)" stroke="rgb(204, 204, 204)" stroke-width="1px"></line><line x1="68.3125" y1="150.4699519230769" x2="63.3125" y2="150.4699519230769" style="visibility: inherit;" fill="rgb(0, 0, 0)" stroke="rgb(204, 204, 204)" stroke-width="1px"></line><line x1="68.3125" y1="136.7908653846154" x2="63.3125" y2="136.7908653846154" style="visibility: inherit;" fill="rgb(0, 0, 0)" stroke="rgb(204, 204, 204)" stroke-width="1px"></line><line x1="68.3125" y1="123.11177884615384" x2="63.3125" y2="123.11177884615384" style="visibility: inherit;" fill="rgb(0, 0, 0)" stroke="rgb(204, 204, 204)" stroke-width="1px"></line><line x1="68.3125" y1="109.4326923076923" x2="63.3125" y2="109.4326923076923" style="visibility: inherit;" fill="rgb(0, 0, 0)" stroke="rgb(204, 204, 204)" stroke-width="1px"></line><line x1="68.3125" y1="95.75360576923076" x2="63.3125" y2="95.75360576923076" style="visibility: inherit;" fill="rgb(0, 0, 0)" stroke="rgb(204, 204, 204)" stroke-width="1px"></line><line x1="68.3125" y1="82.07451923076924" x2="63.3125" y2="82.07451923076924" style="visibility: inherit;" fill="rgb(0, 0, 0)" stroke="rgb(204, 204, 204)" stroke-width="1px"></line><line x1="68.3125" y1="68.39543269230768" x2="63.3125" y2="68.39543269230768" style="visibility: inherit;" fill="rgb(0, 0, 0)" stroke="rgb(204, 204, 204)" stroke-width="1px"></line><line x1="68.3125" y1="54.71634615384616" x2="63.3125" y2="54.71634615384616" style="visibility: inherit;" fill="rgb(0, 0, 0)" stroke="rgb(204, 204, 204)" stroke-width="1px"></line><line x1="68.3125" y1="41.03725961538461" x2="63.3125" y2="41.03725961538461" style="visibility: inherit;" fill="rgb(0, 0, 0)" stroke="rgb(204, 204, 204)" stroke-width="1px"></line><line x1="68.3125" y1="27.358173076923066" x2="63.3125" y2="27.358173076923066" style="visibility: inherit;" fill="rgb(0, 0, 0)" stroke="rgb(204, 204, 204)" stroke-width="1px"></line><line x1="68.3125" y1="13.679086538461519" x2="63.3125" y2="13.679086538461519" style="visibility: inherit;" fill="rgb(0, 0, 0)" stroke="rgb(204, 204, 204)" stroke-width="1px"></line><line x1="68.3125" y1="0" x2="63.3125" y2="0" style="visibility: inherit;" fill="rgb(0, 0, 0)" stroke="rgb(204, 204, 204)" stroke-width="1px"></line></g><g transform="translate(58.3125, 0)"><text x="0" y="177.828125" dx="0em" dy="0.3em" style="text-anchor: end; visibility: hidden; font-family: &quot;Helvetica Neue&quot;, sans-serif; font-size: 12px; font-weight: 200;" fill="rgb(50, 49, 63)" stroke="none" stroke-width="1px">-5e+3</text><text x="0" y="164.14903846153845" dx="0em" dy="0.3em" style="text-anchor: end; visibility: inherit; font-family: &quot;Helvetica Neue&quot;, sans-serif; font-size: 12px; font-weight: 200;" fill="rgb(50, 49, 63)" stroke="none" stroke-width="1px">0</text><text x="0" y="150.4699519230769" dx="0em" dy="0.3em" style="text-anchor: end; visibility: hidden; font-family: &quot;Helvetica Neue&quot;, sans-serif; font-size: 12px; font-weight: 200;" fill="rgb(50, 49, 63)" stroke="none" stroke-width="1px">5e+3</text><text x="0" y="136.7908653846154" dx="0em" dy="0.3em" style="text-anchor: end; visibility: inherit; font-family: &quot;Helvetica Neue&quot;, sans-serif; font-size: 12px; font-weight: 200;" fill="rgb(50, 49, 63)" stroke="none" stroke-width="1px">1e+4</text><text x="0" y="123.11177884615384" dx="0em" dy="0.3em" style="text-anchor: end; visibility: hidden; font-family: &quot;Helvetica Neue&quot;, sans-serif; font-size: 12px; font-weight: 200;" fill="rgb(50, 49, 63)" stroke="none" stroke-width="1px">1.5e+4</text><text x="0" y="109.4326923076923" dx="0em" dy="0.3em" style="text-anchor: end; visibility: inherit; font-family: &quot;Helvetica Neue&quot;, sans-serif; font-size: 12px; font-weight: 200;" fill="rgb(50, 49, 63)" stroke="none" stroke-width="1px">2e+4</text><text x="0" y="95.75360576923076" dx="0em" dy="0.3em" style="text-anchor: end; visibility: hidden; font-family: &quot;Helvetica Neue&quot;, sans-serif; font-size: 12px; font-weight: 200;" fill="rgb(50, 49, 63)" stroke="none" stroke-width="1px">2.5e+4</text><text x="0" y="82.07451923076924" dx="0em" dy="0.3em" style="text-anchor: end; visibility: inherit; font-family: &quot;Helvetica Neue&quot;, sans-serif; font-size: 12px; font-weight: 200;" fill="rgb(50, 49, 63)" stroke="none" stroke-width="1px">3e+4</text><text x="0" y="68.39543269230768" dx="0em" dy="0.3em" style="text-anchor: end; visibility: hidden; font-family: &quot;Helvetica Neue&quot;, sans-serif; font-size: 12px; font-weight: 200;" fill="rgb(50, 49, 63)" stroke="none" stroke-width="1px">3.5e+4</text><text x="0" y="54.71634615384616" dx="0em" dy="0.3em" style="text-anchor: end; visibility: inherit; font-family: &quot;Helvetica Neue&quot;, sans-serif; font-size: 12px; font-weight: 200;" fill="rgb(50, 49, 63)" stroke="none" stroke-width="1px">4e+4</text><text x="0" y="41.03725961538461" dx="0em" dy="0.3em" style="text-anchor: end; visibility: hidden; font-family: &quot;Helvetica Neue&quot;, sans-serif; font-size: 12px; font-weight: 200;" fill="rgb(50, 49, 63)" stroke="none" stroke-width="1px">4.5e+4</text><text x="0" y="27.358173076923066" dx="0em" dy="0.3em" style="text-anchor: end; visibility: inherit; font-family: &quot;Helvetica Neue&quot;, sans-serif; font-size: 12px; font-weight: 200;" fill="rgb(50, 49, 63)" stroke="none" stroke-width="1px">5e+4</text><text x="0" y="13.679086538461519" dx="0em" dy="0.3em" style="text-anchor: end; visibility: hidden; font-family: &quot;Helvetica Neue&quot;, sans-serif; font-size: 12px; font-weight: 200;" fill="rgb(50, 49, 63)" stroke="none" stroke-width="1px">5.5e+4</text><text x="0" y="0" dx="0em" dy="0.3em" style="text-anchor: end; visibility: hidden; font-family: &quot;Helvetica Neue&quot;, sans-serif; font-size: 12px; font-weight: 200;" fill="rgb(50, 49, 63)" stroke="none" stroke-width="1px">6e+4</text></g><line x1="68.3125" y1="0" x2="68.3125" y2="177.828125" fill="rgb(0, 0, 0)" stroke="rgb(204, 204, 204)" stroke-width="1px"></line></g></g><g transform="translate(68, 0)" clip-path="url(#clip_0)"><clipPath id="clip_0"><rect width="261" height="177"></rect></clipPath><g><g><g><line x1="0" y1="0" x2="0" y2="177.828125" fill="rgb(0, 0, 0)" stroke="rgb(60, 60, 60)" stroke-width="1px" opacity="0.25"></line><line x1="21.807291666666664" y1="0" x2="21.807291666666664" y2="177.828125" fill="rgb(0, 0, 0)" stroke="rgb(60, 60, 60)" stroke-width="1px" opacity="0.25"></line><line x1="43.61458333333333" y1="0" x2="43.61458333333333" y2="177.828125" fill="rgb(0, 0, 0)" stroke="rgb(60, 60, 60)" stroke-width="1px" opacity="0.25"></line><line x1="65.421875" y1="0" x2="65.421875" y2="177.828125" fill="rgb(0, 0, 0)" stroke="rgb(60, 60, 60)" stroke-width="1px" opacity="0.25"></line><line x1="87.22916666666666" y1="0" x2="87.22916666666666" y2="177.828125" fill="rgb(0, 0, 0)" stroke="rgb(60, 60, 60)" stroke-width="1px" opacity="0.25"></line><line x1="109.03645833333334" y1="0" x2="109.03645833333334" y2="177.828125" fill="rgb(0, 0, 0)" stroke="rgb(60, 60, 60)" stroke-width="1px" opacity="0.25"></line><line x1="130.84375" y1="0" x2="130.84375" y2="177.828125" fill="rgb(0, 0, 0)" stroke="rgb(60, 60, 60)" stroke-width="1px" opacity="0.25"></line><line x1="152.65104166666669" y1="0" x2="152.65104166666669" y2="177.828125" fill="rgb(0, 0, 0)" stroke="rgb(60, 60, 60)" stroke-width="1px" opacity="0.25"></line><line x1="174.45833333333331" y1="0" x2="174.45833333333331" y2="177.828125" fill="rgb(0, 0, 0)" stroke="rgb(60, 60, 60)" stroke-width="1px" opacity="0.25"></line><line x1="196.265625" y1="0" x2="196.265625" y2="177.828125" fill="rgb(0, 0, 0)" stroke="rgb(60, 60, 60)" stroke-width="1px" opacity="0.25"></line><line x1="218.07291666666669" y1="0" x2="218.07291666666669" y2="177.828125" fill="rgb(0, 0, 0)" stroke="rgb(60, 60, 60)" stroke-width="1px" opacity="0.25"></line><line x1="239.88020833333331" y1="0" x2="239.88020833333331" y2="177.828125" fill="rgb(0, 0, 0)" stroke="rgb(60, 60, 60)" stroke-width="1px" opacity="0.25"></line><line x1="261.6875" y1="0" x2="261.6875" y2="177.828125" fill="rgb(0, 0, 0)" stroke="rgb(60, 60, 60)" stroke-width="1px" opacity="0.25"></line></g><g><line x1="0" y1="177.828125" x2="261.6875" y2="177.828125" fill="rgb(0, 0, 0)" stroke="rgb(60, 60, 60)" stroke-width="1px" opacity="0.25"></line><line x1="0" y1="164.14903846153845" x2="261.6875" y2="164.14903846153845" fill="rgb(0, 0, 0)" stroke="rgb(60, 60, 60)" stroke-width="1px" opacity="0.25"></line><line x1="0" y1="150.4699519230769" x2="261.6875" y2="150.4699519230769" fill="rgb(0, 0, 0)" stroke="rgb(60, 60, 60)" stroke-width="1px" opacity="0.25"></line><line x1="0" y1="136.7908653846154" x2="261.6875" y2="136.7908653846154" fill="rgb(0, 0, 0)" stroke="rgb(60, 60, 60)" stroke-width="1px" opacity="0.25"></line><line x1="0" y1="123.11177884615384" x2="261.6875" y2="123.11177884615384" fill="rgb(0, 0, 0)" stroke="rgb(60, 60, 60)" stroke-width="1px" opacity="0.25"></line><line x1="0" y1="109.4326923076923" x2="261.6875" y2="109.4326923076923" fill="rgb(0, 0, 0)" stroke="rgb(60, 60, 60)" stroke-width="1px" opacity="0.25"></line><line x1="0" y1="95.75360576923076" x2="261.6875" y2="95.75360576923076" fill="rgb(0, 0, 0)" stroke="rgb(60, 60, 60)" stroke-width="1px" opacity="0.25"></line><line x1="0" y1="82.07451923076924" x2="261.6875" y2="82.07451923076924" fill="rgb(0, 0, 0)" stroke="rgb(60, 60, 60)" stroke-width="1px" opacity="0.25"></line><line x1="0" y1="68.39543269230768" x2="261.6875" y2="68.39543269230768" fill="rgb(0, 0, 0)" stroke="rgb(60, 60, 60)" stroke-width="1px" opacity="0.25"></line><line x1="0" y1="54.71634615384616" x2="261.6875" y2="54.71634615384616" fill="rgb(0, 0, 0)" stroke="rgb(60, 60, 60)" stroke-width="1px" opacity="0.25"></line><line x1="0" y1="41.03725961538461" x2="261.6875" y2="41.03725961538461" fill="rgb(0, 0, 0)" stroke="rgb(60, 60, 60)" stroke-width="1px" opacity="0.25"></line><line x1="0" y1="27.358173076923066" x2="261.6875" y2="27.358173076923066" fill="rgb(0, 0, 0)" stroke="rgb(60, 60, 60)" stroke-width="1px" opacity="0.25"></line><line x1="0" y1="13.679086538461519" x2="261.6875" y2="13.679086538461519" fill="rgb(0, 0, 0)" stroke="rgb(60, 60, 60)" stroke-width="1px" opacity="0.25"></line><line x1="0" y1="0" x2="261.6875" y2="0" fill="rgb(0, 0, 0)" stroke="rgb(60, 60, 60)" stroke-width="1px" opacity="0.25"></line></g></g></g><g><g><line x1="0" y1="164.14903846153845" x2="261.6875" y2="164.14903846153845" fill="rgb(0, 0, 0)" stroke="rgb(153, 153, 153)" stroke-width="1.5px"></line></g></g><g><g><line x1="21.807291666666664" y1="0" x2="21.807291666666664" y2="177.828125" fill="rgb(0, 0, 0)" stroke="rgb(153, 153, 153)" stroke-width="1.5px"></line></g></g><g><g><g><g><g><path stroke="rgb(255, 112, 67)" stroke-width="2px" d="M21.807291666666664,31.240297836538446L22.897656249999997,65.0539759098897L23.98802083333333,73.82568591840057L25.07838541666667,73.30460046466995L26.168750000000003,73.24708882807774L27.259114583333336,79.11246762932134L28.34947916666667,82.13761065620156L29.43984375,82.96844186540393L30.530208333333334,84.65691042092566L31.620572916666667,85.21048984441167L32.7109375,83.4235652121277L33.80130208333334,80.97072271931701L34.891666666666666,82.24434263286604L35.982031250000006,84.93985199048586L37.07239583333333,85.61736710419027L38.16276041666667,84.43681013697396L39.253125,87.95751561906833L40.34348958333334,94.53850714239478L41.43385416666666,101.86054755627046L42.52421875,105.79714804107576L43.61458333333333,107.84801215601293L44.70494791666667,110.59421266743875L45.795312499999994,103.78968987508776L46.885677083333334,99.39334006994879L47.97604166666666,101.40884281405661L49.06640625,107.94928497861943L50.15677083333334,111.98769115534742L51.247135416666666,114.71545892086712L52.337500000000006,120.9925696043774L53.42786458333333,123.38747780334862L54.51822916666667,126.31010632854078L55.60859375,128.54334233057614L56.69895833333334,127.93034269175024L57.78932291666666,125.11316531237247L58.8796875,124.18043580067095L59.97005208333333,124.54034458232255L61.06041666666667,120.34786190783194L62.150781249999994,118.0674772671378L63.241145833333334,110.28042958550844L64.33151041666666,111.57072169167046L65.421875,112.2043448178037L66.51223958333333,113.39363576322653L67.60260416666668,119.36154707287955L68.69296875,122.13285832522524L69.78333333333333,125.88312807030431L70.87369791666666,126.4606110038532L71.96406250000001,129.18296521532318L73.05442708333334,131.46903483015424L74.14479166666666,131.27725898921295L75.23515624999999,132.39474927893255L76.32552083333334,132.04762725271428L77.41588541666667,134.26863754085898L78.50625,134.543846616275L79.59661458333332,126.09810873796152L80.68697916666667,127.78295527440065L81.77734375,129.7462705641639L82.86770833333333,127.13393611606418L83.95807291666668,129.54666158258289L85.0484375,130.11833363386248L86.13880208333333,132.32708087960305L87.22916666666666,133.58658712875393L88.31953125000001,132.18823539379446L89.40989583333334,130.96953329916101L90.50026041666666,133.2322256638236L91.59062499999999,132.5831450563086L92.68098958333334,132.0086298997153L93.77135416666667,132.78545158190894L94.86171875,134.92342042869075L95.95208333333332,133.38143672998305L97.04244791666667,133.42852562410008L98.1328125,132.20649170799882L99.22317708333333,130.88921854391316L100.31354166666668,130.82085016222152L101.40390625,131.87486266290244L102.49427083333333,133.13392686779704L103.58463541666666,133.831131727723L104.67500000000001,136.20899552148393L105.76536458333334,134.11365594480742L106.85572916666666,134.5515963448951L107.94609374999999,134.35451350102966L109.03645833333334,133.838356224653L110.12682291666667,133.94075277861737L111.2171875,132.2444855438132L112.30755208333332,130.05782887090717L113.39791666666667,129.17078661767766L114.48828125,129.99193603037685L115.57864583333333,132.07179135692925L116.66901041666668,130.88261285751872L117.759375,131.53109576299047L118.84973958333333,133.9839001714488L119.94010416666666,135.31200548297193L121.03046875000001,136.6509547275262L122.12083333333334,135.7105045918085L123.21119791666666,135.56771610749445L124.30156249999999,132.72381237875376L125.39192708333334,133.78038058604216L126.48229166666667,134.88325554178112L127.57265625,136.90642500448973L128.66302083333332,137.40646272668064L129.75338541666667,139.19220290311642L130.84375,134.1890881917561L131.93411458333333,134.02827303720338L133.02447916666665,135.97610339318715L134.11484374999998,135.56845101447894L135.20520833333336,129.13863174326627L136.29557291666669,132.3250554062276L137.3859375,134.08862975428173L138.47630208333334,136.10286252965375L139.56666666666666,133.56868772959587L140.65703125,133.62557736877073L141.74739583333331,135.10510686811165L142.83776041666664,135.92034734795362L143.92812500000002,137.67579411661455L145.01848958333335,138.07298215420803L146.10885416666667,139.26174709231262L147.19921875,138.73804394918037L148.28958333333333,135.89752451526226L149.37994791666665,135.62886458225677L150.47031249999998,137.0340791852759L151.56067708333336,136.14829838453946L152.65104166666669,137.54469612616558L153.74140625,136.75219318129413L154.83177083333334,137.8220598011881L155.92213541666666,137.27569197579282L157.0125,138.33091142061227L158.10286458333331,137.9358078459272L159.19322916666664,137.4123538086198L160.28359375000002,137.3926928688391L161.37395833333335,138.95234483414086L162.46432291666667,139.01269463481853L163.5546875,138.03736365263342L164.64505208333333,136.67549668130505L165.73541666666665,136.98352808000467L166.82578124999998,137.4562276233637L167.91614583333336,138.41520880055663L169.00651041666669,138.2670512138996L170.096875,137.4017437818282L171.18723958333334,137.0365197834903L172.27760416666666,135.86836792660722L173.36796875,133.92004591035519L174.45833333333331,134.22176058924194L175.54869791666664,135.63463064489883L176.63906250000002,135.45992480287197L177.72942708333335,135.54907288191032L178.81979166666667,134.19665924787392L179.91015625,133.3735331683173L181.00052083333333,133.08660977691153L182.09088541666665,133.35890431971075L183.18124999999998,132.698471465576L184.27161458333336,133.27470893189152L185.36197916666669,132.634678731562L186.45234375,133.71708665869554L187.54270833333334,133.36640159878453L188.63307291666666,133.041530542076L189.7234375,132.05050555971613L190.81380208333331,132.74398750734474L191.90416666666664,134.00727041723607L192.99453125000002,131.07267919325238L194.08489583333335,133.61400233429765L195.17526041666667,134.8432803323932L196.265625,135.1026961872219L197.35598958333333,134.81124480767411L198.44635416666665,134.41289534216185L199.53671874999998,135.73348764778376L200.62708333333336,136.13743551436298L201.71744791666669,136.20703464697726L202.8078125,136.2355057443615L203.89817708333334,137.12603418118687L204.98854166666666,137.05864827271574L206.07890625,138.4188717274634L207.16927083333331,139.2595157045115L208.25963541666664,140.00459195594868L209.35000000000002,137.39946497532188L210.44036458333335,136.69385732855798L211.53072916666667,137.18301345318767L212.62109375,138.00775921175244L213.71145833333333,138.8894625977366L214.80182291666665,138.78837324747533L215.89218749999998,137.21833292995697L216.98255208333336,137.12689827502717L218.07291666666669,135.09059388943967L219.16328125,136.02009504791317L220.25364583333334,137.00718635721958L221.34401041666666,136.64292994026965L222.434375,137.0716424333606L223.52473958333331,136.21408778174435L224.61510416666664,136.3088951482126L225.70546875000002,136.79763826470918L226.79583333333335,136.06990210214366L227.88619791666667,136.97746175979032L228.9765625,136.4322953584301L230.06692708333333,135.52581639379355L231.15729166666665,135.841204614692L232.24765624999998,137.01665524726025L233.33802083333336,136.36073101286942L234.42838541666669,135.98480951357033L235.51875,137.77236203408506L236.60911458333334,138.02035357897537L237.69947916666666,138.4443818143975L238.78984375,139.80374737810132L239.88020833333331,139.56268292987315" style="fill: none;" fill="none"></path></g></g></g></g><g opacity="0.20000000298023224"><g><g><g><path stroke="rgb(255, 112, 67)" stroke-width="2px" d="M21.807291666666664,31.240297836538446L22.897656249999997,92.34161411508413L23.98802083333333,86.61702326660155L25.07838541666667,72.27086752366286L26.168750000000003,73.10860470628005L27.259114583333336,95.2434399620643L28.34947916666667,91.29294114332933L29.43984375,85.66807404174804L30.530208333333334,90.44700185218224L31.620572916666667,87.1891831214318L32.7109375,76.8271147667518L33.80130208333334,71.68414157902644L34.891666666666666,87.16349743041991L35.982031250000006,95.51678658353364L37.07239583333333,88.30953771268405L38.16276041666667,79.69841915189303L39.253125,102.20246150277944L40.34348958333334,121.33736621281551L41.43385416666666,131.8313736318735L42.52421875,121.9775207458496L43.61458333333333,116.3057012484037L44.70494791666667,121.94985799936148L45.795312499999994,75.59190928250827L46.885677083333334,81.14326198073167L47.97604166666666,109.78730659602239L49.06640625,135.1686860229492L50.15677083333334,128.80966074383076L51.247135416666666,126.08631224412184L52.337500000000006,147.17455444394625L53.42786458333333,133.3814706195538L54.51822916666667,138.51098379986104L55.60859375,137.86916212815504L56.69895833333334,125.36986207158014L57.78932291666666,113.34352177546575L58.8796875,120.28302924429087L59.97005208333333,126.0444200415978L61.06041666666667,102.82542099656325L62.150781249999994,108.535814449369L63.241145833333334,77.72949632004958L64.33151041666666,116.96462177828275L65.421875,114.85324408428485L66.51223958333333,118.36571824716421L67.60260416666668,144.31239527623103L68.69296875,133.71952573242189L69.78333333333333,141.56305517625074L70.87369791666666,128.87511196688138L71.96406250000001,140.56548107346754L73.05442708333334,141.02748420621433L74.14479166666666,130.47540479008603L75.23515624999999,137.06723636662412L76.32552083333334,130.59622158156174L77.41588541666667,143.55528722498968L78.50625,135.69457476454514L79.59661458333332,90.78395622605544L80.68697916666667,134.82781761357234L81.77734375,137.9555113619291L82.86770833333333,116.21092548358624L83.95807291666668,139.63505472106934L85.0484375,132.5086834493784L86.13880208333333,141.56259030104417L87.22916666666666,138.85300638216458L88.31953125000001,126.34125354778583L89.40989583333334,125.87372534649188L90.50026041666666,142.69331508260873L91.59062499999999,129.86911668302096L92.68098958333334,129.60638471210186L93.77135416666667,136.0336103900616L94.86171875,143.8630052230835L95.95208333333332,126.93387058340218L97.04244791666667,133.6254205634484L98.1328125,127.09674522259053L99.22317708333333,125.3812434990516L100.31354166666668,130.53497828063965L101.40390625,136.2820541276198L102.49427083333333,138.39851071683444L103.58463541666666,136.74638697979267L104.67500000000001,146.15166868767372L105.76536458333334,125.35231436838004L106.85572916666666,136.3827770890456L107.94609374999999,133.5304417496901L109.03645833333334,131.68012354454626L110.12682291666667,134.36890830547625L111.2171875,125.15180353933481L112.30755208333332,120.91465839350774L113.39791666666667,125.46175507577749L114.48828125,133.42544674541767L115.57864583333333,140.76838841435358L116.66901041666668,125.91024476717435L117.759375,134.2426278944749L118.84973958333333,144.23992684208798L119.94010416666666,140.86527481947678L121.03046875000001,142.24956631681002L122.12083333333334,131.7781561075064L123.21119791666666,134.97066788682204L124.30156249999999,120.83246364793044L125.39192708333334,138.19825904235842L126.48229166666667,139.49475858975924L127.57265625,145.36599886404184L128.66302083333332,139.4972940298227L129.75338541666667,146.65900249645526L130.84375,113.26932876117412L131.93411458333333,133.35584904926006L133.02447916666665,144.12065829878588L134.11484374999998,133.86391490290714L135.20520833333336,102.25332526245117L136.29557291666669,145.64859890664908L137.3859375,141.46274632779637L138.47630208333334,144.52506900400016L139.56666666666666,122.97242315204326L140.65703125,133.86345269939716L141.74739583333331,141.29153332355207L142.83776041666664,139.3291508049598L143.92812500000002,145.015926459914L145.01848958333335,139.7337632232666L146.10885416666667,144.23238597846398L147.19921875,136.54825930410533L148.28958333333333,124.02032667518029L149.37994791666665,134.50550413700984L150.47031249999998,142.90976926105205L151.56067708333336,132.44454135765662L152.65104166666669,143.38351984370306L153.74140625,133.43846325120194L154.83177083333334,142.29554354341946L155.92213541666666,134.9911384260911L157.0125,142.7431502390935L158.10286458333331,136.2837426398644L159.19322916666664,135.22361076143704L160.28359375000002,137.31048365431565L161.37395833333335,145.47379113464356L162.46432291666667,139.26503810190053L163.5546875,133.95916622971754L164.64505208333333,130.98105810171273L165.73541666666665,138.27151429114707L166.82578124999998,139.43274851191595L167.91614583333336,142.42504201296293L169.00651041666669,137.6475529111422L170.096875,133.78359301663912L171.18723958333334,135.50939145883413L172.27760416666666,130.98391948876014L173.36796875,125.7734351999136L174.45833333333331,135.48333440199633L175.54869791666664,141.54233082580566L176.63906250000002,134.72941902817945L177.72942708333335,135.92183194814828L178.81979166666667,128.54174835322453L179.91015625,129.9317572812594L181.00052083333333,131.88688347191444L182.09088541666665,134.4974623302753L183.18124999999998,129.93697243300218L184.27161458333336,135.68415781954252L185.36197916666669,129.95849027733436L186.45234375,138.24300996023325L187.54270833333334,131.90006562288724L188.63307291666666,131.6831318749061L189.7234375,127.9066860738901L190.81380208333331,135.64367627281774L191.90416666666664,139.28949481248122L192.99453125000002,118.80213454167293L194.08489583333335,144.24015660799466L195.17526041666667,139.98331838660607L196.265625,136.18740393254205L197.35598958333333,133.5925854123629L198.44635416666665,132.74725793973482L199.53671874999998,141.25534252155012L200.62708333333336,137.8264817751371L201.71744791666669,136.49805278179463L202.8078125,136.35455328627367L203.89817708333334,140.84964272273137L204.98854166666666,136.7768843963623L206.07890625,144.10643819368804L207.16927083333331,142.77454000232404L208.25963541666664,143.12001441662127L209.35000000000002,126.50652469881499L210.44036458333335,133.7434668055608L211.53072916666667,139.22834502093974L212.62109375,141.45630753901554L213.71145833333333,142.5761705380953L214.80182291666665,138.36568358083872L215.89218749999998,130.65344932250977L216.98255208333336,136.74457824120154L218.07291666666669,126.57609834970327L219.16328125,139.9066620680589L220.25364583333334,141.13455779043346L221.34401041666666,135.11984740929236L222.434375,138.86423819462703L223.52473958333331,132.6283540830172L224.61510416666664,136.7053176598182L225.70546875000002,138.84124290208084L226.79583333333335,133.02698457266L227.88619791666667,140.77228374798113L228.9765625,134.1527653796856L230.06692708333333,131.73551315824068L231.15729166666665,137.15995225337102L232.24765624999998,141.9316224000197L233.33802083333336,133.6180840846135L234.42838541666669,134.41295122375487L235.51875,145.2467396716778L236.60911458333334,139.05729231849085L237.69947916666666,140.21739106820914L238.78984375,145.4877267040546L239.88020833333331,138.5547087862455" style="fill: none;" fill="none"></path></g></g></g></g></g></g><g transform="translate(68, 177)" clip-path="url(#clip_1)"><clipPath id="clip_1"><rect width="261" height="22"></rect></clipPath><g><g><line x1="0" y1="0" x2="0" y2="5" style="visibility: inherit;" fill="rgb(0, 0, 0)" stroke="rgb(204, 204, 204)" stroke-width="1px"></line><line x1="21.807291666666664" y1="0" x2="21.807291666666664" y2="5" style="visibility: inherit;" fill="rgb(0, 0, 0)" stroke="rgb(204, 204, 204)" stroke-width="1px"></line><line x1="43.61458333333333" y1="0" x2="43.61458333333333" y2="5" style="visibility: inherit;" fill="rgb(0, 0, 0)" stroke="rgb(204, 204, 204)" stroke-width="1px"></line><line x1="65.421875" y1="0" x2="65.421875" y2="5" style="visibility: inherit;" fill="rgb(0, 0, 0)" stroke="rgb(204, 204, 204)" stroke-width="1px"></line><line x1="87.22916666666666" y1="0" x2="87.22916666666666" y2="5" style="visibility: inherit;" fill="rgb(0, 0, 0)" stroke="rgb(204, 204, 204)" stroke-width="1px"></line><line x1="109.03645833333334" y1="0" x2="109.03645833333334" y2="5" style="visibility: inherit;" fill="rgb(0, 0, 0)" stroke="rgb(204, 204, 204)" stroke-width="1px"></line><line x1="130.84375" y1="0" x2="130.84375" y2="5" style="visibility: inherit;" fill="rgb(0, 0, 0)" stroke="rgb(204, 204, 204)" stroke-width="1px"></line><line x1="152.65104166666669" y1="0" x2="152.65104166666669" y2="5" style="visibility: inherit;" fill="rgb(0, 0, 0)" stroke="rgb(204, 204, 204)" stroke-width="1px"></line><line x1="174.45833333333331" y1="0" x2="174.45833333333331" y2="5" style="visibility: inherit;" fill="rgb(0, 0, 0)" stroke="rgb(204, 204, 204)" stroke-width="1px"></line><line x1="196.265625" y1="0" x2="196.265625" y2="5" style="visibility: inherit;" fill="rgb(0, 0, 0)" stroke="rgb(204, 204, 204)" stroke-width="1px"></line><line x1="218.07291666666669" y1="0" x2="218.07291666666669" y2="5" style="visibility: inherit;" fill="rgb(0, 0, 0)" stroke="rgb(204, 204, 204)" stroke-width="1px"></line><line x1="239.88020833333331" y1="0" x2="239.88020833333331" y2="5" style="visibility: inherit;" fill="rgb(0, 0, 0)" stroke="rgb(204, 204, 204)" stroke-width="1px"></line><line x1="261.6875" y1="0" x2="261.6875" y2="5" style="visibility: inherit;" fill="rgb(0, 0, 0)" stroke="rgb(204, 204, 204)" stroke-width="1px"></line></g><g transform="translate(0, 8)"><text x="0" y="0" dx="0em" dy="0.95em" style="text-anchor: middle; visibility: hidden; font-family: &quot;Helvetica Neue&quot;, sans-serif; font-size: 12px; font-weight: 200;" fill="rgb(50, 49, 63)" stroke="none" stroke-width="1px">-20</text><text x="21.807291666666664" y="0" dx="0em" dy="0.95em" style="text-anchor: middle; visibility: inherit; font-family: &quot;Helvetica Neue&quot;, sans-serif; font-size: 12px; font-weight: 200;" fill="rgb(50, 49, 63)" stroke="none" stroke-width="1px">0</text><text x="43.61458333333333" y="0" dx="0em" dy="0.95em" style="text-anchor: middle; visibility: hidden; font-family: &quot;Helvetica Neue&quot;, sans-serif; font-size: 12px; font-weight: 200;" fill="rgb(50, 49, 63)" stroke="none" stroke-width="1px">20</text><text x="65.421875" y="0" dx="0em" dy="0.95em" style="text-anchor: middle; visibility: inherit; font-family: &quot;Helvetica Neue&quot;, sans-serif; font-size: 12px; font-weight: 200;" fill="rgb(50, 49, 63)" stroke="none" stroke-width="1px">40</text><text x="87.22916666666666" y="0" dx="0em" dy="0.95em" style="text-anchor: middle; visibility: hidden; font-family: &quot;Helvetica Neue&quot;, sans-serif; font-size: 12px; font-weight: 200;" fill="rgb(50, 49, 63)" stroke="none" stroke-width="1px">60</text><text x="109.03645833333334" y="0" dx="0em" dy="0.95em" style="text-anchor: middle; visibility: inherit; font-family: &quot;Helvetica Neue&quot;, sans-serif; font-size: 12px; font-weight: 200;" fill="rgb(50, 49, 63)" stroke="none" stroke-width="1px">80</text><text x="130.84375" y="0" dx="0em" dy="0.95em" style="text-anchor: middle; visibility: hidden; font-family: &quot;Helvetica Neue&quot;, sans-serif; font-size: 12px; font-weight: 200;" fill="rgb(50, 49, 63)" stroke="none" stroke-width="1px">100</text><text x="152.65104166666669" y="0" dx="0em" dy="0.95em" style="text-anchor: middle; visibility: inherit; font-family: &quot;Helvetica Neue&quot;, sans-serif; font-size: 12px; font-weight: 200;" fill="rgb(50, 49, 63)" stroke="none" stroke-width="1px">120</text><text x="174.45833333333331" y="0" dx="0em" dy="0.95em" style="text-anchor: middle; visibility: hidden; font-family: &quot;Helvetica Neue&quot;, sans-serif; font-size: 12px; font-weight: 200;" fill="rgb(50, 49, 63)" stroke="none" stroke-width="1px">140</text><text x="196.265625" y="0" dx="0em" dy="0.95em" style="text-anchor: middle; visibility: inherit; font-family: &quot;Helvetica Neue&quot;, sans-serif; font-size: 12px; font-weight: 200;" fill="rgb(50, 49, 63)" stroke="none" stroke-width="1px">160</text><text x="218.07291666666669" y="0" dx="0em" dy="0.95em" style="text-anchor: middle; visibility: hidden; font-family: &quot;Helvetica Neue&quot;, sans-serif; font-size: 12px; font-weight: 200;" fill="rgb(50, 49, 63)" stroke="none" stroke-width="1px">180</text><text x="239.88020833333331" y="0" dx="0em" dy="0.95em" style="text-anchor: middle; visibility: inherit; font-family: &quot;Helvetica Neue&quot;, sans-serif; font-size: 12px; font-weight: 200;" fill="rgb(50, 49, 63)" stroke="none" stroke-width="1px">200</text><text x="261.6875" y="0" dx="0em" dy="0.95em" style="text-anchor: middle; visibility: hidden; font-family: &quot;Helvetica Neue&quot;, sans-serif; font-size: 12px; font-weight: 200;" fill="rgb(50, 49, 63)" stroke="none" stroke-width="1px">220</text></g><line x1="0" y1="0" x2="261.6875" y2="0" fill="rgb(0, 0, 0)" stroke="rgb(204, 204, 204)" stroke-width="1px"></line></g></g></g></g></svg>