<svg viewBox="0 0 330 200" xmlns="http://www.w3.org/2000/svg"><g><g><g><g><g><line x1="68.3125" y1="177.828125" x2="63.3125" y2="177.828125" style="visibility: inherit;" fill="rgb(0, 0, 0)" stroke="rgb(204, 204, 204)" stroke-width="1px"></line><line x1="68.3125" y1="164.14903846153845" x2="63.3125" y2="164.14903846153845" style="visibility: inherit;" fill="rgb(0, 0, 0)" stroke="rgb(204, 204, 204)" stroke-width="1px"></line><line x1="68.3125" y1="150.4699519230769" x2="63.3125" y2="150.4699519230769" style="visibility: inherit;" fill="rgb(0, 0, 0)" stroke="rgb(204, 204, 204)" stroke-width="1px"></line><line x1="68.3125" y1="136.7908653846154" x2="63.3125" y2="136.7908653846154" style="visibility: inherit;" fill="rgb(0, 0, 0)" stroke="rgb(204, 204, 204)" stroke-width="1px"></line><line x1="68.3125" y1="123.11177884615384" x2="63.3125" y2="123.11177884615384" style="visibility: inherit;" fill="rgb(0, 0, 0)" stroke="rgb(204, 204, 204)" stroke-width="1px"></line><line x1="68.3125" y1="109.4326923076923" x2="63.3125" y2="109.4326923076923" style="visibility: inherit;" fill="rgb(0, 0, 0)" stroke="rgb(204, 204, 204)" stroke-width="1px"></line><line x1="68.3125" y1="95.75360576923076" x2="63.3125" y2="95.75360576923076" style="visibility: inherit;" fill="rgb(0, 0, 0)" stroke="rgb(204, 204, 204)" stroke-width="1px"></line><line x1="68.3125" y1="82.07451923076924" x2="63.3125" y2="82.07451923076924" style="visibility: inherit;" fill="rgb(0, 0, 0)" stroke="rgb(204, 204, 204)" stroke-width="1px"></line><line x1="68.3125" y1="68.39543269230768" x2="63.3125" y2="68.39543269230768" style="visibility: inherit;" fill="rgb(0, 0, 0)" stroke="rgb(204, 204, 204)" stroke-width="1px"></line><line x1="68.3125" y1="54.71634615384616" x2="63.3125" y2="54.71634615384616" style="visibility: inherit;" fill="rgb(0, 0, 0)" stroke="rgb(204, 204, 204)" stroke-width="1px"></line><line x1="68.3125" y1="41.03725961538461" x2="63.3125" y2="41.03725961538461" style="visibility: inherit;" fill="rgb(0, 0, 0)" stroke="rgb(204, 204, 204)" stroke-width="1px"></line><line x1="68.3125" y1="27.358173076923066" x2="63.3125" y2="27.358173076923066" style="visibility: inherit;" fill="rgb(0, 0, 0)" stroke="rgb(204, 204, 204)" stroke-width="1px"></line><line x1="68.3125" y1="13.679086538461519" x2="63.3125" y2="13.679086538461519" style="visibility: inherit;" fill="rgb(0, 0, 0)" stroke="rgb(204, 204, 204)" stroke-width="1px"></line><line x1="68.3125" y1="0" x2="63.3125" y2="0" style="visibility: inherit;" fill="rgb(0, 0, 0)" stroke="rgb(204, 204, 204)" stroke-width="1px"></line></g><g transform="translate(58.3125, 0)"><text x="0" y="177.828125" dx="0em" dy="0.3em" style="text-anchor: end; visibility: hidden; font-family: &quot;Helvetica Neue&quot;, sans-serif; font-size: 12px; font-weight: 200;" fill="rgb(50, 49, 63)" stroke="none" stroke-width="1px">-1e+3</text><text x="0" y="164.14903846153845" dx="0em" dy="0.3em" style="text-anchor: end; visibility: inherit; font-family: &quot;Helvetica Neue&quot;, sans-serif; font-size: 12px; font-weight: 200;" fill="rgb(50, 49, 63)" stroke="none" stroke-width="1px">0</text><text x="0" y="150.4699519230769" dx="0em" dy="0.3em" style="text-anchor: end; visibility: hidden; font-family: &quot;Helvetica Neue&quot;, sans-serif; font-size: 12px; font-weight: 200;" fill="rgb(50, 49, 63)" stroke="none" stroke-width="1px">1e+3</text><text x="0" y="136.7908653846154" dx="0em" dy="0.3em" style="text-anchor: end; visibility: inherit; font-family: &quot;Helvetica Neue&quot;, sans-serif; font-size: 12px; font-weight: 200;" fill="rgb(50, 49, 63)" stroke="none" stroke-width="1px">2e+3</text><text x="0" y="123.11177884615384" dx="0em" dy="0.3em" style="text-anchor: end; visibility: hidden; font-family: &quot;Helvetica Neue&quot;, sans-serif; font-size: 12px; font-weight: 200;" fill="rgb(50, 49, 63)" stroke="none" stroke-width="1px">3e+3</text><text x="0" y="109.4326923076923" dx="0em" dy="0.3em" style="text-anchor: end; visibility: inherit; font-family: &quot;Helvetica Neue&quot;, sans-serif; font-size: 12px; font-weight: 200;" fill="rgb(50, 49, 63)" stroke="none" stroke-width="1px">4e+3</text><text x="0" y="95.75360576923076" dx="0em" dy="0.3em" style="text-anchor: end; visibility: hidden; font-family: &quot;Helvetica Neue&quot;, sans-serif; font-size: 12px; font-weight: 200;" fill="rgb(50, 49, 63)" stroke="none" stroke-width="1px">5e+3</text><text x="0" y="82.07451923076924" dx="0em" dy="0.3em" style="text-anchor: end; visibility: inherit; font-family: &quot;Helvetica Neue&quot;, sans-serif; font-size: 12px; font-weight: 200;" fill="rgb(50, 49, 63)" stroke="none" stroke-width="1px">6e+3</text><text x="0" y="68.39543269230768" dx="0em" dy="0.3em" style="text-anchor: end; visibility: hidden; font-family: &quot;Helvetica Neue&quot;, sans-serif; font-size: 12px; font-weight: 200;" fill="rgb(50, 49, 63)" stroke="none" stroke-width="1px">7e+3</text><text x="0" y="54.71634615384616" dx="0em" dy="0.3em" style="text-anchor: end; visibility: inherit; font-family: &quot;Helvetica Neue&quot;, sans-serif; font-size: 12px; font-weight: 200;" fill="rgb(50, 49, 63)" stroke="none" stroke-width="1px">8e+3</text><text x="0" y="41.03725961538461" dx="0em" dy="0.3em" style="text-anchor: end; visibility: hidden; font-family: &quot;Helvetica Neue&quot;, sans-serif; font-size: 12px; font-weight: 200;" fill="rgb(50, 49, 63)" stroke="none" stroke-width="1px">9e+3</text><text x="0" y="27.358173076923066" dx="0em" dy="0.3em" style="text-anchor: end; visibility: inherit; font-family: &quot;Helvetica Neue&quot;, sans-serif; font-size: 12px; font-weight: 200;" fill="rgb(50, 49, 63)" stroke="none" stroke-width="1px">1e+4</text><text x="0" y="13.679086538461519" dx="0em" dy="0.3em" style="text-anchor: end; visibility: hidden; font-family: &quot;Helvetica Neue&quot;, sans-serif; font-size: 12px; font-weight: 200;" fill="rgb(50, 49, 63)" stroke="none" stroke-width="1px">1.1e+4</text><text x="0" y="0" dx="0em" dy="0.3em" style="text-anchor: end; visibility: hidden; font-family: &quot;Helvetica Neue&quot;, sans-serif; font-size: 12px; font-weight: 200;" fill="rgb(50, 49, 63)" stroke="none" stroke-width="1px">1.2e+4</text></g><line x1="68.3125" y1="0" x2="68.3125" y2="177.828125" fill="rgb(0, 0, 0)" stroke="rgb(204, 204, 204)" stroke-width="1px"></line></g></g><g transform="translate(68, 0)" clip-path="url(#clip_0)"><clipPath id="clip_0"><rect width="261" height="177"></rect></clipPath><g><g><g><line x1="0" y1="0" x2="0" y2="177.828125" fill="rgb(0, 0, 0)" stroke="rgb(60, 60, 60)" stroke-width="1px" opacity="0.25"></line><line x1="21.807291666666664" y1="0" x2="21.807291666666664" y2="177.828125" fill="rgb(0, 0, 0)" stroke="rgb(60, 60, 60)" stroke-width="1px" opacity="0.25"></line><line x1="43.61458333333333" y1="0" x2="43.61458333333333" y2="177.828125" fill="rgb(0, 0, 0)" stroke="rgb(60, 60, 60)" stroke-width="1px" opacity="0.25"></line><line x1="65.421875" y1="0" x2="65.421875" y2="177.828125" fill="rgb(0, 0, 0)" stroke="rgb(60, 60, 60)" stroke-width="1px" opacity="0.25"></line><line x1="87.22916666666666" y1="0" x2="87.22916666666666" y2="177.828125" fill="rgb(0, 0, 0)" stroke="rgb(60, 60, 60)" stroke-width="1px" opacity="0.25"></line><line x1="109.03645833333334" y1="0" x2="109.03645833333334" y2="177.828125" fill="rgb(0, 0, 0)" stroke="rgb(60, 60, 60)" stroke-width="1px" opacity="0.25"></line><line x1="130.84375" y1="0" x2="130.84375" y2="177.828125" fill="rgb(0, 0, 0)" stroke="rgb(60, 60, 60)" stroke-width="1px" opacity="0.25"></line><line x1="152.65104166666669" y1="0" x2="152.65104166666669" y2="177.828125" fill="rgb(0, 0, 0)" stroke="rgb(60, 60, 60)" stroke-width="1px" opacity="0.25"></line><line x1="174.45833333333331" y1="0" x2="174.45833333333331" y2="177.828125" fill="rgb(0, 0, 0)" stroke="rgb(60, 60, 60)" stroke-width="1px" opacity="0.25"></line><line x1="196.265625" y1="0" x2="196.265625" y2="177.828125" fill="rgb(0, 0, 0)" stroke="rgb(60, 60, 60)" stroke-width="1px" opacity="0.25"></line><line x1="218.07291666666669" y1="0" x2="218.07291666666669" y2="177.828125" fill="rgb(0, 0, 0)" stroke="rgb(60, 60, 60)" stroke-width="1px" opacity="0.25"></line><line x1="239.88020833333331" y1="0" x2="239.88020833333331" y2="177.828125" fill="rgb(0, 0, 0)" stroke="rgb(60, 60, 60)" stroke-width="1px" opacity="0.25"></line><line x1="261.6875" y1="0" x2="261.6875" y2="177.828125" fill="rgb(0, 0, 0)" stroke="rgb(60, 60, 60)" stroke-width="1px" opacity="0.25"></line></g><g><line x1="0" y1="177.828125" x2="261.6875" y2="177.828125" fill="rgb(0, 0, 0)" stroke="rgb(60, 60, 60)" stroke-width="1px" opacity="0.25"></line><line x1="0" y1="164.14903846153845" x2="261.6875" y2="164.14903846153845" fill="rgb(0, 0, 0)" stroke="rgb(60, 60, 60)" stroke-width="1px" opacity="0.25"></line><line x1="0" y1="150.4699519230769" x2="261.6875" y2="150.4699519230769" fill="rgb(0, 0, 0)" stroke="rgb(60, 60, 60)" stroke-width="1px" opacity="0.25"></line><line x1="0" y1="136.7908653846154" x2="261.6875" y2="136.7908653846154" fill="rgb(0, 0, 0)" stroke="rgb(60, 60, 60)" stroke-width="1px" opacity="0.25"></line><line x1="0" y1="123.11177884615384" x2="261.6875" y2="123.11177884615384" fill="rgb(0, 0, 0)" stroke="rgb(60, 60, 60)" stroke-width="1px" opacity="0.25"></line><line x1="0" y1="109.4326923076923" x2="261.6875" y2="109.4326923076923" fill="rgb(0, 0, 0)" stroke="rgb(60, 60, 60)" stroke-width="1px" opacity="0.25"></line><line x1="0" y1="95.75360576923076" x2="261.6875" y2="95.75360576923076" fill="rgb(0, 0, 0)" stroke="rgb(60, 60, 60)" stroke-width="1px" opacity="0.25"></line><line x1="0" y1="82.07451923076924" x2="261.6875" y2="82.07451923076924" fill="rgb(0, 0, 0)" stroke="rgb(60, 60, 60)" stroke-width="1px" opacity="0.25"></line><line x1="0" y1="68.39543269230768" x2="261.6875" y2="68.39543269230768" fill="rgb(0, 0, 0)" stroke="rgb(60, 60, 60)" stroke-width="1px" opacity="0.25"></line><line x1="0" y1="54.71634615384616" x2="261.6875" y2="54.71634615384616" fill="rgb(0, 0, 0)" stroke="rgb(60, 60, 60)" stroke-width="1px" opacity="0.25"></line><line x1="0" y1="41.03725961538461" x2="261.6875" y2="41.03725961538461" fill="rgb(0, 0, 0)" stroke="rgb(60, 60, 60)" stroke-width="1px" opacity="0.25"></line><line x1="0" y1="27.358173076923066" x2="261.6875" y2="27.358173076923066" fill="rgb(0, 0, 0)" stroke="rgb(60, 60, 60)" stroke-width="1px" opacity="0.25"></line><line x1="0" y1="13.679086538461519" x2="261.6875" y2="13.679086538461519" fill="rgb(0, 0, 0)" stroke="rgb(60, 60, 60)" stroke-width="1px" opacity="0.25"></line><line x1="0" y1="0" x2="261.6875" y2="0" fill="rgb(0, 0, 0)" stroke="rgb(60, 60, 60)" stroke-width="1px" opacity="0.25"></line></g></g></g><g><g><line x1="0" y1="164.14903846153845" x2="261.6875" y2="164.14903846153845" fill="rgb(0, 0, 0)" stroke="rgb(153, 153, 153)" stroke-width="1.5px"></line></g></g><g><g><line x1="21.807291666666664" y1="0" x2="21.807291666666664" y2="177.828125" fill="rgb(0, 0, 0)" stroke="rgb(153, 153, 153)" stroke-width="1.5px"></line></g></g><g><g><g><g><g><path stroke="rgb(255, 112, 67)" stroke-width="2px" d="M21.807291666666664,30.35389302884616L23.98802083333333,55.222512431218064L26.168750000000003,67.56981615198875L28.34947916666667,64.89000479522117L30.530208333333334,75.65056597694718L32.7109375,82.27643444566412L34.891666666666666,84.76238155983064L37.07239583333333,89.56955717641722L39.253125,89.12386947255365L41.43385416666666,87.1950081440763L43.61458333333333,83.91898202892439L45.795312499999994,103.68609388738874L47.97604166666666,108.41756012128502L50.15677083333334,106.0421290641819L52.337500000000006,119.56571877726876L54.51822916666667,122.44947755493754L56.69895833333334,116.73801357196771L58.8796875,112.22760564589937L61.06041666666667,96.68378913310215L63.241145833333334,90.30960718663746L65.421875,93.09269549290882L67.60260416666668,107.1244025035537L69.78333333333333,103.52451835652565L71.96406250000001,102.2434915377845L74.14479166666666,105.51647846398835L76.32552083333334,108.59155875646019L78.50625,100.29820996883849L80.68697916666667,109.88730299300353L82.86770833333333,117.8931243351144L85.0484375,108.02373181814791L87.22916666666666,118.70472249853472L89.40989583333334,109.42264907321133L91.59062499999999,101.79899628508258L93.77135416666667,110.0026536825983L95.95208333333332,118.7360953569887L98.1328125,122.12187056428701L100.31354166666668,121.73526321905315L102.49427083333333,123.24779513069868L104.67500000000001,123.26147947619233L106.85572916666666,132.9052146087723L109.03645833333334,130.16564171284824L111.2171875,135.48143382235787L113.39791666666667,141.0059852648444L115.57864583333333,135.37036290006148L117.759375,133.19987317628306L119.94010416666666,130.71676158531656L122.12083333333334,138.1249928132014L124.30156249999999,133.88306838668285L126.48229166666667,138.3369245582702L128.66302083333332,133.22194736257816L130.84375,133.74401114063292L133.02447916666665,138.92767280724217L135.20520833333336,140.54843035096002L137.3859375,143.9724296602115L139.56666666666666,130.4713727887003L141.74739583333331,136.3143258383272L143.92812500000002,128.5683917528537L146.10885416666667,129.05365070640823L148.28958333333333,136.14441683469664L150.47031249999998,140.29071755071067L152.65104166666669,142.19779871526438L154.83177083333334,144.13553195015288L157.0125,142.25459918154755L159.19322916666664,140.50980468691642L161.37395833333335,141.33376148546859L163.5546875,144.1436509157633L165.73541666666665,145.13149563621005L167.91614583333336,145.67166021542403L170.096875,146.03560464588884L172.27760416666666,147.18719893044008L174.45833333333331,144.6033167272967L176.63906250000002,144.82204796255598L178.81979166666667,144.96648154524317L181.00052083333333,141.18117338982526L183.18124999999998,139.8196337249751L185.36197916666669,140.21280480198757L187.54270833333334,140.2675730986655L189.7234375,139.50287186359617L191.90416666666664,138.7897216374096L194.08489583333335,142.6349917854759L196.265625,141.6119007735537L198.44635416666665,142.85445383599597L200.62708333333336,144.38753036017488L202.8078125,147.01142410097972L204.98854166666666,147.46241579176458L207.16927083333331,145.67709753343652L209.35000000000002,144.85595466979993L211.53072916666667,144.544070006998L213.71145833333333,142.72829500982812L215.89218749999998,142.44775962566663L218.07291666666669,143.24120040894255L220.25364583333334,143.80749942744748L222.434375,142.65868764598218L224.61510416666664,126.30240279121199L226.79583333333335,134.65766416941008L228.9765625,139.0119498928368L231.15729166666665,138.5109722082053L233.33802083333336,137.47317767823222L235.51875,139.44092320368944L237.69947916666666,139.15296294896115L239.88020833333331,134.72920626950815" style="fill: none;" fill="none"></path></g></g></g></g><g opacity="0.20000000298023224"><g><g><g><path stroke="rgb(255, 112, 67)" stroke-width="2px" d="M21.807291666666664,30.35389302884616L23.98802083333333,70.14368407264122L26.168750000000003,79.4232277239286L28.34947916666667,61.738546639662516L30.530208333333334,89.69955465580867L32.7109375,91.44239585054838L34.891666666666666,88.31732570824256L37.07239583333333,96.57846537428637L39.253125,88.46656667973444L41.43385416666666,84.3308738685021L43.61458333333333,79.03465617194541L45.795312499999994,133.22918992526715L47.97604166666666,115.49931041394747L50.15677083333334,102.48363619525615L52.337500000000006,139.83520687484742L54.51822916666667,126.77308187132616L56.69895833333334,108.17323449765719L58.8796875,105.46313894888071L61.06041666666667,73.37043230790358L63.241145833333334,80.74891689241849L65.421875,97.26717532113882L67.60260416666668,128.1715013002249L69.78333333333333,98.12476320941632L71.96406250000001,100.3219664846567L74.14479166666666,110.42593559030387L76.32552083333334,113.20416608135517L78.50625,87.8582080078125L80.68697916666667,124.27092780773455L82.86770833333333,129.90184897378776L85.0484375,93.2196484973614L87.22916666666666,134.72620497718225L89.40989583333334,95.49954078204816L91.59062499999999,90.36351801300049L93.77135416666667,122.30813919126071L95.95208333333332,131.8362574932392L98.1328125,127.20053328792866L100.31354166666668,121.15535220718382L102.49427083333333,125.51659298412616L104.67500000000001,123.2820059943566L106.85572916666666,147.3708172754141L109.03645833333334,126.05628237445538L111.2171875,143.45512198022695L113.39791666666667,149.29281242458637L115.57864583333333,126.9169293553279L117.759375,129.94413859117947L119.94010416666666,126.99209419925396L122.12083333333334,149.2373396543356L124.30156249999999,127.52018174714308L126.48229166666667,145.0177088155013L128.66302083333332,125.54948156914344L130.84375,134.52710680770875L133.02447916666665,146.70316530711835L135.20520833333336,142.97956666652973L137.3859375,149.10842862407978L139.56666666666666,110.2197874814547L141.74739583333331,145.07875541276198L143.92812500000002,116.94949062464788L146.10885416666667,129.78153913673987L148.28958333333333,146.78056602712778L150.47031249999998,146.51016862473122L152.65104166666669,145.05842046209483L154.83177083333334,147.04213180248553L157.0125,139.4332000286396L159.19322916666664,137.89261294496976L161.37395833333335,142.5696966832968L163.5546875,148.35848506120536L165.73541666666665,146.6132627168802L167.91614583333336,146.48190708424494L170.096875,146.58152129158606L172.27760416666666,148.91459035726695L174.45833333333331,140.7274934225816L176.63906250000002,145.15014481544495L178.81979166666667,145.18313191927396L181.00052083333333,135.50321115669837L183.18124999999998,137.77732422769986L185.36197916666669,140.8025614175063L187.54270833333334,140.34972554368238L189.7234375,138.3558200109922L191.90416666666664,137.71999629812973L194.08489583333335,148.4028970075754L196.265625,140.0772642556704L198.44635416666665,144.71828342965932L200.62708333333336,146.6871451464433L202.8078125,150.94726471218695L204.98854166666666,148.1389033279419L207.16927083333331,142.99912014594446L209.35000000000002,143.62424037434505L211.53072916666667,144.0762430127951L213.71145833333333,140.0046325140733L215.89218749999998,142.0269565494244L218.07291666666669,144.43136158385644L220.25364583333334,144.65694795520488L222.434375,140.93546997378422L224.61510416666664,101.76797550905668L226.79583333333335,147.19055623670724L228.9765625,145.5433784779769L231.15729166666665,137.75950568125796L233.33802083333336,135.9164858832726L235.51875,142.39254149187528L237.69947916666666,138.7210225668687L239.88020833333331,128.09357125032864" style="fill: none;" fill="none"></path></g></g></g></g></g></g><g transform="translate(68, 177)" clip-path="url(#clip_1)"><clipPath id="clip_1"><rect width="261" height="22"></rect></clipPath><g><g><line x1="0" y1="0" x2="0" y2="5" style="visibility: inherit;" fill="rgb(0, 0, 0)" stroke="rgb(204, 204, 204)" stroke-width="1px"></line><line x1="21.807291666666664" y1="0" x2="21.807291666666664" y2="5" style="visibility: inherit;" fill="rgb(0, 0, 0)" stroke="rgb(204, 204, 204)" stroke-width="1px"></line><line x1="43.61458333333333" y1="0" x2="43.61458333333333" y2="5" style="visibility: inherit;" fill="rgb(0, 0, 0)" stroke="rgb(204, 204, 204)" stroke-width="1px"></line><line x1="65.421875" y1="0" x2="65.421875" y2="5" style="visibility: inherit;" fill="rgb(0, 0, 0)" stroke="rgb(204, 204, 204)" stroke-width="1px"></line><line x1="87.22916666666666" y1="0" x2="87.22916666666666" y2="5" style="visibility: inherit;" fill="rgb(0, 0, 0)" stroke="rgb(204, 204, 204)" stroke-width="1px"></line><line x1="109.03645833333334" y1="0" x2="109.03645833333334" y2="5" style="visibility: inherit;" fill="rgb(0, 0, 0)" stroke="rgb(204, 204, 204)" stroke-width="1px"></line><line x1="130.84375" y1="0" x2="130.84375" y2="5" style="visibility: inherit;" fill="rgb(0, 0, 0)" stroke="rgb(204, 204, 204)" stroke-width="1px"></line><line x1="152.65104166666669" y1="0" x2="152.65104166666669" y2="5" style="visibility: inherit;" fill="rgb(0, 0, 0)" stroke="rgb(204, 204, 204)" stroke-width="1px"></line><line x1="174.45833333333331" y1="0" x2="174.45833333333331" y2="5" style="visibility: inherit;" fill="rgb(0, 0, 0)" stroke="rgb(204, 204, 204)" stroke-width="1px"></line><line x1="196.265625" y1="0" x2="196.265625" y2="5" style="visibility: inherit;" fill="rgb(0, 0, 0)" stroke="rgb(204, 204, 204)" stroke-width="1px"></line><line x1="218.07291666666669" y1="0" x2="218.07291666666669" y2="5" style="visibility: inherit;" fill="rgb(0, 0, 0)" stroke="rgb(204, 204, 204)" stroke-width="1px"></line><line x1="239.88020833333331" y1="0" x2="239.88020833333331" y2="5" style="visibility: inherit;" fill="rgb(0, 0, 0)" stroke="rgb(204, 204, 204)" stroke-width="1px"></line><line x1="261.6875" y1="0" x2="261.6875" y2="5" style="visibility: inherit;" fill="rgb(0, 0, 0)" stroke="rgb(204, 204, 204)" stroke-width="1px"></line></g><g transform="translate(0, 8)"><text x="0" y="0" dx="0em" dy="0.95em" style="text-anchor: middle; visibility: hidden; font-family: &quot;Helvetica Neue&quot;, sans-serif; font-size: 12px; font-weight: 200;" fill="rgb(50, 49, 63)" stroke="none" stroke-width="1px">-10</text><text x="21.807291666666664" y="0" dx="0em" dy="0.95em" style="text-anchor: middle; visibility: inherit; font-family: &quot;Helvetica Neue&quot;, sans-serif; font-size: 12px; font-weight: 200;" fill="rgb(50, 49, 63)" stroke="none" stroke-width="1px">0</text><text x="43.61458333333333" y="0" dx="0em" dy="0.95em" style="text-anchor: middle; visibility: inherit; font-family: &quot;Helvetica Neue&quot;, sans-serif; font-size: 12px; font-weight: 200;" fill="rgb(50, 49, 63)" stroke="none" stroke-width="1px">10</text><text x="65.421875" y="0" dx="0em" dy="0.95em" style="text-anchor: middle; visibility: inherit; font-family: &quot;Helvetica Neue&quot;, sans-serif; font-size: 12px; font-weight: 200;" fill="rgb(50, 49, 63)" stroke="none" stroke-width="1px">20</text><text x="87.22916666666666" y="0" dx="0em" dy="0.95em" style="text-anchor: middle; visibility: inherit; font-family: &quot;Helvetica Neue&quot;, sans-serif; font-size: 12px; font-weight: 200;" fill="rgb(50, 49, 63)" stroke="none" stroke-width="1px">30</text><text x="109.03645833333334" y="0" dx="0em" dy="0.95em" style="text-anchor: middle; visibility: inherit; font-family: &quot;Helvetica Neue&quot;, sans-serif; font-size: 12px; font-weight: 200;" fill="rgb(50, 49, 63)" stroke="none" stroke-width="1px">40</text><text x="130.84375" y="0" dx="0em" dy="0.95em" style="text-anchor: middle; visibility: inherit; font-family: &quot;Helvetica Neue&quot;, sans-serif; font-size: 12px; font-weight: 200;" fill="rgb(50, 49, 63)" stroke="none" stroke-width="1px">50</text><text x="152.65104166666669" y="0" dx="0em" dy="0.95em" style="text-anchor: middle; visibility: inherit; font-family: &quot;Helvetica Neue&quot;, sans-serif; font-size: 12px; font-weight: 200;" fill="rgb(50, 49, 63)" stroke="none" stroke-width="1px">60</text><text x="174.45833333333331" y="0" dx="0em" dy="0.95em" style="text-anchor: middle; visibility: inherit; font-family: &quot;Helvetica Neue&quot;, sans-serif; font-size: 12px; font-weight: 200;" fill="rgb(50, 49, 63)" stroke="none" stroke-width="1px">70</text><text x="196.265625" y="0" dx="0em" dy="0.95em" style="text-anchor: middle; visibility: inherit; font-family: &quot;Helvetica Neue&quot;, sans-serif; font-size: 12px; font-weight: 200;" fill="rgb(50, 49, 63)" stroke="none" stroke-width="1px">80</text><text x="218.07291666666669" y="0" dx="0em" dy="0.95em" style="text-anchor: middle; visibility: inherit; font-family: &quot;Helvetica Neue&quot;, sans-serif; font-size: 12px; font-weight: 200;" fill="rgb(50, 49, 63)" stroke="none" stroke-width="1px">90</text><text x="239.88020833333331" y="0" dx="0em" dy="0.95em" style="text-anchor: middle; visibility: inherit; font-family: &quot;Helvetica Neue&quot;, sans-serif; font-size: 12px; font-weight: 200;" fill="rgb(50, 49, 63)" stroke="none" stroke-width="1px">100</text><text x="261.6875" y="0" dx="0em" dy="0.95em" style="text-anchor: middle; visibility: hidden; font-family: &quot;Helvetica Neue&quot;, sans-serif; font-size: 12px; font-weight: 200;" fill="rgb(50, 49, 63)" stroke="none" stroke-width="1px">110</text></g><line x1="0" y1="0" x2="261.6875" y2="0" fill="rgb(0, 0, 0)" stroke="rgb(204, 204, 204)" stroke-width="1px"></line></g></g></g></g></svg>