<svg viewBox="0 0 330 200" xmlns="http://www.w3.org/2000/svg"><g><g><g><g><g><line x1="68.3125" y1="177.828125" x2="63.3125" y2="177.828125" style="visibility: inherit;" fill="rgb(0, 0, 0)" stroke="rgb(204, 204, 204)" stroke-width="1px"></line><line x1="68.3125" y1="155.599609375" x2="63.3125" y2="155.599609375" style="visibility: inherit;" fill="rgb(0, 0, 0)" stroke="rgb(204, 204, 204)" stroke-width="1px"></line><line x1="68.3125" y1="133.37109375" x2="63.3125" y2="133.37109375" style="visibility: inherit;" fill="rgb(0, 0, 0)" stroke="rgb(204, 204, 204)" stroke-width="1px"></line><line x1="68.3125" y1="111.142578125" x2="63.3125" y2="111.142578125" style="visibility: inherit;" fill="rgb(0, 0, 0)" stroke="rgb(204, 204, 204)" stroke-width="1px"></line><line x1="68.3125" y1="88.9140625" x2="63.3125" y2="88.9140625" style="visibility: inherit;" fill="rgb(0, 0, 0)" stroke="rgb(204, 204, 204)" stroke-width="1px"></line><line x1="68.3125" y1="66.685546875" x2="63.3125" y2="66.685546875" style="visibility: inherit;" fill="rgb(0, 0, 0)" stroke="rgb(204, 204, 204)" stroke-width="1px"></line><line x1="68.3125" y1="44.45703125" x2="63.3125" y2="44.45703125" style="visibility: inherit;" fill="rgb(0, 0, 0)" stroke="rgb(204, 204, 204)" stroke-width="1px"></line><line x1="68.3125" y1="22.228515625" x2="63.3125" y2="22.228515625" style="visibility: inherit;" fill="rgb(0, 0, 0)" stroke="rgb(204, 204, 204)" stroke-width="1px"></line><line x1="68.3125" y1="0" x2="63.3125" y2="0" style="visibility: inherit;" fill="rgb(0, 0, 0)" stroke="rgb(204, 204, 204)" stroke-width="1px"></line></g><g transform="translate(58.3125, 0)"><text x="0" y="177.828125" dx="0em" dy="0.3em" style="text-anchor: end; visibility: hidden; font-family: &quot;Helvetica Neue&quot;, sans-serif; font-size: 12px; font-weight: 200;" fill="rgb(50, 49, 63)" stroke="none" stroke-width="1px">-2e+3</text><text x="0" y="155.599609375" dx="0em" dy="0.3em" style="text-anchor: end; visibility: inherit; font-family: &quot;Helvetica Neue&quot;, sans-serif; font-size: 12px; font-weight: 200;" fill="rgb(50, 49, 63)" stroke="none" stroke-width="1px">0</text><text x="0" y="133.37109375" dx="0em" dy="0.3em" style="text-anchor: end; visibility: hidden; font-family: &quot;Helvetica Neue&quot;, sans-serif; font-size: 12px; font-weight: 200;" fill="rgb(50, 49, 63)" stroke="none" stroke-width="1px">2e+3</text><text x="0" y="111.142578125" dx="0em" dy="0.3em" style="text-anchor: end; visibility: inherit; font-family: &quot;Helvetica Neue&quot;, sans-serif; font-size: 12px; font-weight: 200;" fill="rgb(50, 49, 63)" stroke="none" stroke-width="1px">4e+3</text><text x="0" y="88.9140625" dx="0em" dy="0.3em" style="text-anchor: end; visibility: hidden; font-family: &quot;Helvetica Neue&quot;, sans-serif; font-size: 12px; font-weight: 200;" fill="rgb(50, 49, 63)" stroke="none" stroke-width="1px">6e+3</text><text x="0" y="66.685546875" dx="0em" dy="0.3em" style="text-anchor: end; visibility: inherit; font-family: &quot;Helvetica Neue&quot;, sans-serif; font-size: 12px; font-weight: 200;" fill="rgb(50, 49, 63)" stroke="none" stroke-width="1px">8e+3</text><text x="0" y="44.45703125" dx="0em" dy="0.3em" style="text-anchor: end; visibility: hidden; font-family: &quot;Helvetica Neue&quot;, sans-serif; font-size: 12px; font-weight: 200;" fill="rgb(50, 49, 63)" stroke="none" stroke-width="1px">1e+4</text><text x="0" y="22.228515625" dx="0em" dy="0.3em" style="text-anchor: end; visibility: inherit; font-family: &quot;Helvetica Neue&quot;, sans-serif; font-size: 12px; font-weight: 200;" fill="rgb(50, 49, 63)" stroke="none" stroke-width="1px">1.2e+4</text><text x="0" y="0" dx="0em" dy="0.3em" style="text-anchor: end; visibility: hidden; font-family: &quot;Helvetica Neue&quot;, sans-serif; font-size: 12px; font-weight: 200;" fill="rgb(50, 49, 63)" stroke="none" stroke-width="1px">1.4e+4</text></g><line x1="68.3125" y1="0" x2="68.3125" y2="177.828125" fill="rgb(0, 0, 0)" stroke="rgb(204, 204, 204)" stroke-width="1px"></line></g></g><g transform="translate(68, 0)" clip-path="url(#clip_0)"><clipPath id="clip_0"><rect width="261" height="177"></rect></clipPath><g><g><g><line x1="0" y1="0" x2="0" y2="177.828125" fill="rgb(0, 0, 0)" stroke="rgb(60, 60, 60)" stroke-width="1px" opacity="0.25"></line><line x1="21.807291666666664" y1="0" x2="21.807291666666664" y2="177.828125" fill="rgb(0, 0, 0)" stroke="rgb(60, 60, 60)" stroke-width="1px" opacity="0.25"></line><line x1="43.61458333333333" y1="0" x2="43.61458333333333" y2="177.828125" fill="rgb(0, 0, 0)" stroke="rgb(60, 60, 60)" stroke-width="1px" opacity="0.25"></line><line x1="65.421875" y1="0" x2="65.421875" y2="177.828125" fill="rgb(0, 0, 0)" stroke="rgb(60, 60, 60)" stroke-width="1px" opacity="0.25"></line><line x1="87.22916666666666" y1="0" x2="87.22916666666666" y2="177.828125" fill="rgb(0, 0, 0)" stroke="rgb(60, 60, 60)" stroke-width="1px" opacity="0.25"></line><line x1="109.03645833333334" y1="0" x2="109.03645833333334" y2="177.828125" fill="rgb(0, 0, 0)" stroke="rgb(60, 60, 60)" stroke-width="1px" opacity="0.25"></line><line x1="130.84375" y1="0" x2="130.84375" y2="177.828125" fill="rgb(0, 0, 0)" stroke="rgb(60, 60, 60)" stroke-width="1px" opacity="0.25"></line><line x1="152.65104166666669" y1="0" x2="152.65104166666669" y2="177.828125" fill="rgb(0, 0, 0)" stroke="rgb(60, 60, 60)" stroke-width="1px" opacity="0.25"></line><line x1="174.45833333333331" y1="0" x2="174.45833333333331" y2="177.828125" fill="rgb(0, 0, 0)" stroke="rgb(60, 60, 60)" stroke-width="1px" opacity="0.25"></line><line x1="196.265625" y1="0" x2="196.265625" y2="177.828125" fill="rgb(0, 0, 0)" stroke="rgb(60, 60, 60)" stroke-width="1px" opacity="0.25"></line><line x1="218.07291666666669" y1="0" x2="218.07291666666669" y2="177.828125" fill="rgb(0, 0, 0)" stroke="rgb(60, 60, 60)" stroke-width="1px" opacity="0.25"></line><line x1="239.88020833333331" y1="0" x2="239.88020833333331" y2="177.828125" fill="rgb(0, 0, 0)" stroke="rgb(60, 60, 60)" stroke-width="1px" opacity="0.25"></line><line x1="261.6875" y1="0" x2="261.6875" y2="177.828125" fill="rgb(0, 0, 0)" stroke="rgb(60, 60, 60)" stroke-width="1px" opacity="0.25"></line></g><g><line x1="0" y1="177.828125" x2="261.6875" y2="177.828125" fill="rgb(0, 0, 0)" stroke="rgb(60, 60, 60)" stroke-width="1px" opacity="0.25"></line><line x1="0" y1="155.599609375" x2="261.6875" y2="155.599609375" fill="rgb(0, 0, 0)" stroke="rgb(60, 60, 60)" stroke-width="1px" opacity="0.25"></line><line x1="0" y1="133.37109375" x2="261.6875" y2="133.37109375" fill="rgb(0, 0, 0)" stroke="rgb(60, 60, 60)" stroke-width="1px" opacity="0.25"></line><line x1="0" y1="111.142578125" x2="261.6875" y2="111.142578125" fill="rgb(0, 0, 0)" stroke="rgb(60, 60, 60)" stroke-width="1px" opacity="0.25"></line><line x1="0" y1="88.9140625" x2="261.6875" y2="88.9140625" fill="rgb(0, 0, 0)" stroke="rgb(60, 60, 60)" stroke-width="1px" opacity="0.25"></line><line x1="0" y1="66.685546875" x2="261.6875" y2="66.685546875" fill="rgb(0, 0, 0)" stroke="rgb(60, 60, 60)" stroke-width="1px" opacity="0.25"></line><line x1="0" y1="44.45703125" x2="261.6875" y2="44.45703125" fill="rgb(0, 0, 0)" stroke="rgb(60, 60, 60)" stroke-width="1px" opacity="0.25"></line><line x1="0" y1="22.228515625" x2="261.6875" y2="22.228515625" fill="rgb(0, 0, 0)" stroke="rgb(60, 60, 60)" stroke-width="1px" opacity="0.25"></line><line x1="0" y1="0" x2="261.6875" y2="0" fill="rgb(0, 0, 0)" stroke="rgb(60, 60, 60)" stroke-width="1px" opacity="0.25"></line></g></g></g><g><g><line x1="0" y1="155.599609375" x2="261.6875" y2="155.599609375" fill="rgb(0, 0, 0)" stroke="rgb(153, 153, 153)" stroke-width="1.5px"></line></g></g><g><g><line x1="21.807291666666664" y1="0" x2="21.807291666666664" y2="177.828125" fill="rgb(0, 0, 0)" stroke="rgb(153, 153, 153)" stroke-width="1.5px"></line></g></g><g><g><g><g><g><path stroke="rgb(255, 112, 67)" stroke-width="2px" d="M21.807291666666664,28.030158203125012L23.98802083333333,68.6156388683388L26.168750000000003,84.4412531332317L28.34947916666667,84.65034028649477L30.530208333333334,95.00913059329275L32.7109375,96.51282744485651L34.891666666666666,89.91492959913722L37.07239583333333,108.85513415573922L39.253125,92.71767160409904L41.43385416666666,101.43178151247794L43.61458333333333,92.89850556094974L45.795312499999994,102.82608542220697L47.97604166666666,91.09471728915484L50.15677083333334,93.67386877908505L52.337500000000006,108.2319062293024L54.51822916666667,103.94440342837224L56.69895833333334,107.09920029140739L58.8796875,107.12257770407706L61.06041666666667,115.5929029955828L63.241145833333334,117.76029344335976L65.421875,113.34823791965479L67.60260416666668,121.57176817915955L69.78333333333333,125.58935226441685L71.96406250000001,117.15441892934825L74.14479166666666,115.4181546902312L76.32552083333334,119.60643495676689L78.50625,119.95914248053164L80.68697916666667,119.30126107323377L82.86770833333333,123.17402752012403L85.0484375,116.87156818710693L87.22916666666666,114.98525941749077L89.40989583333334,107.82059471655577L91.59062499999999,111.10943899531159L93.77135416666667,117.90070709404466L95.95208333333332,113.87895036448269L98.1328125,109.31302990898304L100.31354166666668,122.51555755480919L102.49427083333333,122.43752246084716L104.67500000000001,124.90248547347167L106.85572916666666,117.66388414649361L109.03645833333334,125.78849591655549L111.2171875,121.62586153272153L113.39791666666667,119.01342814816091L115.57864583333333,124.52963727655873L117.759375,120.21622191044652L119.94010416666666,125.95743193198949L122.12083333333334,124.05570623534379L124.30156249999999,123.005316369226L126.48229166666667,122.2382765711566L128.66302083333332,126.70896571849363L130.84375,124.8661542008727L133.02447916666665,126.65345052066321L135.20520833333336,127.48835600733486L137.3859375,128.4302871492161L139.56666666666666,129.52927062400119L141.74739583333331,129.84691153524932L143.92812500000002,122.37533006042668L146.10885416666667,122.44363050324216L148.28958333333333,123.75360996725064L150.47031249999998,122.3655188493849L152.65104166666669,125.78614268002855L154.83177083333334,128.79891365075102L157.0125,125.43525775506731L159.19322916666664,125.96284889632875L161.37395833333335,126.07743339771699L163.5546875,122.5271400241922L165.73541666666665,128.3950667433408L167.91614583333336,128.0497692775015L170.096875,125.3158632166219L172.27760416666666,125.85020809281781L174.45833333333331,127.14802188583784L176.63906250000002,130.52296194644094L178.81979166666667,119.73854697499392L181.00052083333333,123.91080793085001L183.18124999999998,128.53517648102746L185.36197916666669,120.04092486036552L187.54270833333334,124.21636644498807L189.7234375,123.96033122044122L191.90416666666664,125.20988254883058L194.08489583333335,126.20149229317302L196.265625,123.32083141777431L198.44635416666665,122.60282743405705L200.62708333333336,127.87969782246122L202.8078125,113.67020755617216L204.98854166666666,114.53040089921666L207.16927083333331,111.46706682838617L209.35000000000002,113.6338241839143L211.53072916666667,123.04617432578732L213.71145833333333,125.7339378928348L215.89218749999998,114.04257155350027L218.07291666666669,112.4392389894309L220.25364583333334,115.03512458515894L222.434375,123.27506742751163L224.61510416666664,123.60181265014302L226.79583333333335,121.18317249754L228.9765625,112.97261191731977L231.15729166666665,118.3985975244715L233.33802083333336,121.18491785824136L235.51875,119.2716717949545L237.69947916666666,123.75278499191688L239.88020833333331,119.420495449799" style="fill: none;" fill="none"></path></g></g></g></g><g opacity="0.20000000298023224"><g><g><g><path stroke="rgb(255, 112, 67)" stroke-width="2px" d="M21.807291666666664,28.030158203125012L23.98802083333333,84.2410489244461L26.168750000000003,92.87986629962921L28.34947916666667,84.77376268196106L30.530208333333334,101.35142711925506L32.7109375,97.44620362234116L34.891666666666666,85.79798929595948L37.07239583333333,120.69714413595199L39.253125,82.62023413181305L41.43385416666666,106.88594220113754L43.61458333333333,87.55691827869414L45.795312499999994,109.04074064207077L47.97604166666666,83.75076797056198L50.15677083333334,95.28845295667648L52.337500000000006,117.34546006274223L54.51822916666667,101.26035858392716L56.69895833333334,109.07415396499634L58.8796875,107.13721234321595L61.06041666666667,120.89546417379378L63.241145833333334,119.11711508774758L65.421875,110.586219435215L67.60260416666668,126.71983182740212L69.78333333333333,128.10442522644996L71.96406250000001,111.87401350975037L74.14479166666666,114.33122504472732L76.32552083333334,122.22836650562286L78.50625,120.17994312548637L80.68697916666667,118.88941661500931L82.86770833333333,125.5984422876835L85.0484375,112.92612616562843L87.22916666666666,113.80439945602417L89.40989583333334,103.33539811515809L91.59062499999999,113.16830899095535L93.77135416666667,122.15215135097503L95.95208333333332,111.36126525735855L98.1328125,106.45468946123124L100.31354166666668,130.78055453634263L102.49427083333333,122.38867122316361L104.67500000000001,126.44559240007399L106.85572916666666,113.13240201497078L109.03645833333334,130.87463499212265L111.2171875,119.01998472332954L113.39791666666667,117.37800237083434L115.57864583333333,127.98287388539313L117.759375,117.51595375442506L119.94010416666666,129.55152275848388L122.12083333333334,122.86519502687455L124.30156249999999,122.34775523352624L126.48229166666667,121.75809718537332L128.66302083333332,129.5076898188591L130.84375,123.71252422642709L133.02447916666665,127.77232707858084L135.20520833333336,128.01102041769028L137.3859375,129.01995135998726L139.56666666666666,130.21725214886666L141.74739583333331,130.04575991058348L143.92812500000002,117.69799856805801L146.10885416666667,122.48638769102098L148.28958333333333,124.57367841219903L150.47031249999998,121.49655123901368L152.65104166666669,127.92750881791116L154.83177083333334,130.68495726656914L157.0125,123.32955447077751L159.19322916666664,126.29312952947618L161.37395833333335,126.14916515874862L163.5546875,120.30459864401817L165.73541666666665,132.06848428297042L167.91614583333336,127.83360744929314L170.096875,123.6043935687542L172.27760416666666,126.184716673851L174.45833333333331,127.96047442293167L176.63906250000002,132.63572930145264L178.81979166666667,112.9873278465271L181.00052083333333,126.52271113085746L183.18124999999998,131.43010638642312L185.36197916666669,114.72338522791861L187.54270833333334,126.8302607703209L189.7234375,123.8000490067005L191.90416666666664,125.9921219983101L194.08489583333335,126.82225611686707L196.265625,121.51749086976051L198.44635416666665,122.15334526538848L200.62708333333336,131.1831044883728L202.8078125,104.77483560085297L204.98854166666666,115.06889591884612L207.16927083333331,109.54936988973618L209.35000000000002,114.99024952030183L211.53072916666667,128.93845856094362L213.71145833333333,127.41652158927917L215.89218749999998,106.72358612155914L218.07291666666669,111.43552673387528L220.25364583333334,116.66019117760658L222.434375,128.43340562963485L224.61510416666664,123.80636047244073L226.79583333333335,119.66906443452834L228.9765625,107.83266748905181L231.15729166666665,121.79535274195672L233.33802083333336,122.92919969320297L235.51875,118.07394864964485L237.69947916666666,126.55803471684456L239.88020833333331,116.70841175270081" style="fill: none;" fill="none"></path></g></g></g></g></g><g><g opacity="0.7455065846443176"><span fill="rgb(0, 0, 0)" stroke="none" stroke-width="1px">Alt + Scroll to Zoom</span></g></g></g><g transform="translate(68, 177)" clip-path="url(#clip_1)"><clipPath id="clip_1"><rect width="261" height="22"></rect></clipPath><g><g><line x1="0" y1="0" x2="0" y2="5" style="visibility: inherit;" fill="rgb(0, 0, 0)" stroke="rgb(204, 204, 204)" stroke-width="1px"></line><line x1="21.807291666666664" y1="0" x2="21.807291666666664" y2="5" style="visibility: inherit;" fill="rgb(0, 0, 0)" stroke="rgb(204, 204, 204)" stroke-width="1px"></line><line x1="43.61458333333333" y1="0" x2="43.61458333333333" y2="5" style="visibility: inherit;" fill="rgb(0, 0, 0)" stroke="rgb(204, 204, 204)" stroke-width="1px"></line><line x1="65.421875" y1="0" x2="65.421875" y2="5" style="visibility: inherit;" fill="rgb(0, 0, 0)" stroke="rgb(204, 204, 204)" stroke-width="1px"></line><line x1="87.22916666666666" y1="0" x2="87.22916666666666" y2="5" style="visibility: inherit;" fill="rgb(0, 0, 0)" stroke="rgb(204, 204, 204)" stroke-width="1px"></line><line x1="109.03645833333334" y1="0" x2="109.03645833333334" y2="5" style="visibility: inherit;" fill="rgb(0, 0, 0)" stroke="rgb(204, 204, 204)" stroke-width="1px"></line><line x1="130.84375" y1="0" x2="130.84375" y2="5" style="visibility: inherit;" fill="rgb(0, 0, 0)" stroke="rgb(204, 204, 204)" stroke-width="1px"></line><line x1="152.65104166666669" y1="0" x2="152.65104166666669" y2="5" style="visibility: inherit;" fill="rgb(0, 0, 0)" stroke="rgb(204, 204, 204)" stroke-width="1px"></line><line x1="174.45833333333331" y1="0" x2="174.45833333333331" y2="5" style="visibility: inherit;" fill="rgb(0, 0, 0)" stroke="rgb(204, 204, 204)" stroke-width="1px"></line><line x1="196.265625" y1="0" x2="196.265625" y2="5" style="visibility: inherit;" fill="rgb(0, 0, 0)" stroke="rgb(204, 204, 204)" stroke-width="1px"></line><line x1="218.07291666666669" y1="0" x2="218.07291666666669" y2="5" style="visibility: inherit;" fill="rgb(0, 0, 0)" stroke="rgb(204, 204, 204)" stroke-width="1px"></line><line x1="239.88020833333331" y1="0" x2="239.88020833333331" y2="5" style="visibility: inherit;" fill="rgb(0, 0, 0)" stroke="rgb(204, 204, 204)" stroke-width="1px"></line><line x1="261.6875" y1="0" x2="261.6875" y2="5" style="visibility: inherit;" fill="rgb(0, 0, 0)" stroke="rgb(204, 204, 204)" stroke-width="1px"></line></g><g transform="translate(0, 8)"><text x="0" y="0" dx="0em" dy="0.95em" style="text-anchor: middle; visibility: hidden; font-family: &quot;Helvetica Neue&quot;, sans-serif; font-size: 12px; font-weight: 200;" fill="rgb(50, 49, 63)" stroke="none" stroke-width="1px">-10</text><text x="21.807291666666664" y="0" dx="0em" dy="0.95em" style="text-anchor: middle; visibility: inherit; font-family: &quot;Helvetica Neue&quot;, sans-serif; font-size: 12px; font-weight: 200;" fill="rgb(50, 49, 63)" stroke="none" stroke-width="1px">0</text><text x="43.61458333333333" y="0" dx="0em" dy="0.95em" style="text-anchor: middle; visibility: inherit; font-family: &quot;Helvetica Neue&quot;, sans-serif; font-size: 12px; font-weight: 200;" fill="rgb(50, 49, 63)" stroke="none" stroke-width="1px">10</text><text x="65.421875" y="0" dx="0em" dy="0.95em" style="text-anchor: middle; visibility: inherit; font-family: &quot;Helvetica Neue&quot;, sans-serif; font-size: 12px; font-weight: 200;" fill="rgb(50, 49, 63)" stroke="none" stroke-width="1px">20</text><text x="87.22916666666666" y="0" dx="0em" dy="0.95em" style="text-anchor: middle; visibility: inherit; font-family: &quot;Helvetica Neue&quot;, sans-serif; font-size: 12px; font-weight: 200;" fill="rgb(50, 49, 63)" stroke="none" stroke-width="1px">30</text><text x="109.03645833333334" y="0" dx="0em" dy="0.95em" style="text-anchor: middle; visibility: inherit; font-family: &quot;Helvetica Neue&quot;, sans-serif; font-size: 12px; font-weight: 200;" fill="rgb(50, 49, 63)" stroke="none" stroke-width="1px">40</text><text x="130.84375" y="0" dx="0em" dy="0.95em" style="text-anchor: middle; visibility: inherit; font-family: &quot;Helvetica Neue&quot;, sans-serif; font-size: 12px; font-weight: 200;" fill="rgb(50, 49, 63)" stroke="none" stroke-width="1px">50</text><text x="152.65104166666669" y="0" dx="0em" dy="0.95em" style="text-anchor: middle; visibility: inherit; font-family: &quot;Helvetica Neue&quot;, sans-serif; font-size: 12px; font-weight: 200;" fill="rgb(50, 49, 63)" stroke="none" stroke-width="1px">60</text><text x="174.45833333333331" y="0" dx="0em" dy="0.95em" style="text-anchor: middle; visibility: inherit; font-family: &quot;Helvetica Neue&quot;, sans-serif; font-size: 12px; font-weight: 200;" fill="rgb(50, 49, 63)" stroke="none" stroke-width="1px">70</text><text x="196.265625" y="0" dx="0em" dy="0.95em" style="text-anchor: middle; visibility: inherit; font-family: &quot;Helvetica Neue&quot;, sans-serif; font-size: 12px; font-weight: 200;" fill="rgb(50, 49, 63)" stroke="none" stroke-width="1px">80</text><text x="218.07291666666669" y="0" dx="0em" dy="0.95em" style="text-anchor: middle; visibility: inherit; font-family: &quot;Helvetica Neue&quot;, sans-serif; font-size: 12px; font-weight: 200;" fill="rgb(50, 49, 63)" stroke="none" stroke-width="1px">90</text><text x="239.88020833333331" y="0" dx="0em" dy="0.95em" style="text-anchor: middle; visibility: inherit; font-family: &quot;Helvetica Neue&quot;, sans-serif; font-size: 12px; font-weight: 200;" fill="rgb(50, 49, 63)" stroke="none" stroke-width="1px">100</text><text x="261.6875" y="0" dx="0em" dy="0.95em" style="text-anchor: middle; visibility: hidden; font-family: &quot;Helvetica Neue&quot;, sans-serif; font-size: 12px; font-weight: 200;" fill="rgb(50, 49, 63)" stroke="none" stroke-width="1px">110</text></g><line x1="0" y1="0" x2="261.6875" y2="0" fill="rgb(0, 0, 0)" stroke="rgb(204, 204, 204)" stroke-width="1px"></line></g></g></g></g></svg>