<svg viewBox="0 0 330 200" xmlns="http://www.w3.org/2000/svg"><g><g><g><g><g><line x1="39.15625" y1="177.828125" x2="34.15625" y2="177.828125" style="visibility: inherit;" fill="rgb(0, 0, 0)" stroke="rgb(204, 204, 204)" stroke-width="1px"></line><line x1="39.15625" y1="152.42410714285714" x2="34.15625" y2="152.42410714285714" style="visibility: inherit;" fill="rgb(0, 0, 0)" stroke="rgb(204, 204, 204)" stroke-width="1px"></line><line x1="39.15625" y1="127.02008928571429" x2="34.15625" y2="127.02008928571429" style="visibility: inherit;" fill="rgb(0, 0, 0)" stroke="rgb(204, 204, 204)" stroke-width="1px"></line><line x1="39.15625" y1="101.61607142857143" x2="34.15625" y2="101.61607142857143" style="visibility: inherit;" fill="rgb(0, 0, 0)" stroke="rgb(204, 204, 204)" stroke-width="1px"></line><line x1="39.15625" y1="76.21205357142858" x2="34.15625" y2="76.21205357142858" style="visibility: inherit;" fill="rgb(0, 0, 0)" stroke="rgb(204, 204, 204)" stroke-width="1px"></line><line x1="39.15625" y1="50.80803571428571" x2="34.15625" y2="50.80803571428571" style="visibility: inherit;" fill="rgb(0, 0, 0)" stroke="rgb(204, 204, 204)" stroke-width="1px"></line><line x1="39.15625" y1="25.40401785714286" x2="34.15625" y2="25.40401785714286" style="visibility: inherit;" fill="rgb(0, 0, 0)" stroke="rgb(204, 204, 204)" stroke-width="1px"></line><line x1="39.15625" y1="0" x2="34.15625" y2="0" style="visibility: inherit;" fill="rgb(0, 0, 0)" stroke="rgb(204, 204, 204)" stroke-width="1px"></line></g><g transform="translate(29.15625, 0)"><text x="0" y="177.828125" dx="0em" dy="0.3em" style="text-anchor: end; visibility: hidden; font-family: &quot;Helvetica Neue&quot;, sans-serif; font-size: 12px; font-weight: 200;" fill="rgb(50, 49, 63)" stroke="none" stroke-width="1px">-50</text><text x="0" y="152.42410714285714" dx="0em" dy="0.3em" style="text-anchor: end; visibility: inherit; font-family: &quot;Helvetica Neue&quot;, sans-serif; font-size: 12px; font-weight: 200;" fill="rgb(50, 49, 63)" stroke="none" stroke-width="1px">0</text><text x="0" y="127.02008928571429" dx="0em" dy="0.3em" style="text-anchor: end; visibility: inherit; font-family: &quot;Helvetica Neue&quot;, sans-serif; font-size: 12px; font-weight: 200;" fill="rgb(50, 49, 63)" stroke="none" stroke-width="1px">50</text><text x="0" y="101.61607142857143" dx="0em" dy="0.3em" style="text-anchor: end; visibility: inherit; font-family: &quot;Helvetica Neue&quot;, sans-serif; font-size: 12px; font-weight: 200;" fill="rgb(50, 49, 63)" stroke="none" stroke-width="1px">100</text><text x="0" y="76.21205357142858" dx="0em" dy="0.3em" style="text-anchor: end; visibility: inherit; font-family: &quot;Helvetica Neue&quot;, sans-serif; font-size: 12px; font-weight: 200;" fill="rgb(50, 49, 63)" stroke="none" stroke-width="1px">150</text><text x="0" y="50.80803571428571" dx="0em" dy="0.3em" style="text-anchor: end; visibility: inherit; font-family: &quot;Helvetica Neue&quot;, sans-serif; font-size: 12px; font-weight: 200;" fill="rgb(50, 49, 63)" stroke="none" stroke-width="1px">200</text><text x="0" y="25.40401785714286" dx="0em" dy="0.3em" style="text-anchor: end; visibility: inherit; font-family: &quot;Helvetica Neue&quot;, sans-serif; font-size: 12px; font-weight: 200;" fill="rgb(50, 49, 63)" stroke="none" stroke-width="1px">250</text><text x="0" y="0" dx="0em" dy="0.3em" style="text-anchor: end; visibility: hidden; font-family: &quot;Helvetica Neue&quot;, sans-serif; font-size: 12px; font-weight: 200;" fill="rgb(50, 49, 63)" stroke="none" stroke-width="1px">300</text></g><line x1="39.15625" y1="0" x2="39.15625" y2="177.828125" fill="rgb(0, 0, 0)" stroke="rgb(204, 204, 204)" stroke-width="1px"></line></g></g><g transform="translate(39, 0)" clip-path="url(#clip_0)"><clipPath id="clip_0"><rect width="290" height="177"></rect></clipPath><g><g><g><line x1="0" y1="0" x2="0" y2="177.828125" fill="rgb(0, 0, 0)" stroke="rgb(60, 60, 60)" stroke-width="1px" opacity="0.25"></line><line x1="24.236979166666664" y1="0" x2="24.236979166666664" y2="177.828125" fill="rgb(0, 0, 0)" stroke="rgb(60, 60, 60)" stroke-width="1px" opacity="0.25"></line><line x1="48.47395833333333" y1="0" x2="48.47395833333333" y2="177.828125" fill="rgb(0, 0, 0)" stroke="rgb(60, 60, 60)" stroke-width="1px" opacity="0.25"></line><line x1="72.7109375" y1="0" x2="72.7109375" y2="177.828125" fill="rgb(0, 0, 0)" stroke="rgb(60, 60, 60)" stroke-width="1px" opacity="0.25"></line><line x1="96.94791666666666" y1="0" x2="96.94791666666666" y2="177.828125" fill="rgb(0, 0, 0)" stroke="rgb(60, 60, 60)" stroke-width="1px" opacity="0.25"></line><line x1="121.18489583333334" y1="0" x2="121.18489583333334" y2="177.828125" fill="rgb(0, 0, 0)" stroke="rgb(60, 60, 60)" stroke-width="1px" opacity="0.25"></line><line x1="145.421875" y1="0" x2="145.421875" y2="177.828125" fill="rgb(0, 0, 0)" stroke="rgb(60, 60, 60)" stroke-width="1px" opacity="0.25"></line><line x1="169.65885416666669" y1="0" x2="169.65885416666669" y2="177.828125" fill="rgb(0, 0, 0)" stroke="rgb(60, 60, 60)" stroke-width="1px" opacity="0.25"></line><line x1="193.89583333333331" y1="0" x2="193.89583333333331" y2="177.828125" fill="rgb(0, 0, 0)" stroke="rgb(60, 60, 60)" stroke-width="1px" opacity="0.25"></line><line x1="218.1328125" y1="0" x2="218.1328125" y2="177.828125" fill="rgb(0, 0, 0)" stroke="rgb(60, 60, 60)" stroke-width="1px" opacity="0.25"></line><line x1="242.36979166666669" y1="0" x2="242.36979166666669" y2="177.828125" fill="rgb(0, 0, 0)" stroke="rgb(60, 60, 60)" stroke-width="1px" opacity="0.25"></line><line x1="266.6067708333333" y1="0" x2="266.6067708333333" y2="177.828125" fill="rgb(0, 0, 0)" stroke="rgb(60, 60, 60)" stroke-width="1px" opacity="0.25"></line><line x1="290.84375" y1="0" x2="290.84375" y2="177.828125" fill="rgb(0, 0, 0)" stroke="rgb(60, 60, 60)" stroke-width="1px" opacity="0.25"></line></g><g><line x1="0" y1="177.828125" x2="290.84375" y2="177.828125" fill="rgb(0, 0, 0)" stroke="rgb(60, 60, 60)" stroke-width="1px" opacity="0.25"></line><line x1="0" y1="152.42410714285714" x2="290.84375" y2="152.42410714285714" fill="rgb(0, 0, 0)" stroke="rgb(60, 60, 60)" stroke-width="1px" opacity="0.25"></line><line x1="0" y1="127.02008928571429" x2="290.84375" y2="127.02008928571429" fill="rgb(0, 0, 0)" stroke="rgb(60, 60, 60)" stroke-width="1px" opacity="0.25"></line><line x1="0" y1="101.61607142857143" x2="290.84375" y2="101.61607142857143" fill="rgb(0, 0, 0)" stroke="rgb(60, 60, 60)" stroke-width="1px" opacity="0.25"></line><line x1="0" y1="76.21205357142858" x2="290.84375" y2="76.21205357142858" fill="rgb(0, 0, 0)" stroke="rgb(60, 60, 60)" stroke-width="1px" opacity="0.25"></line><line x1="0" y1="50.80803571428571" x2="290.84375" y2="50.80803571428571" fill="rgb(0, 0, 0)" stroke="rgb(60, 60, 60)" stroke-width="1px" opacity="0.25"></line><line x1="0" y1="25.40401785714286" x2="290.84375" y2="25.40401785714286" fill="rgb(0, 0, 0)" stroke="rgb(60, 60, 60)" stroke-width="1px" opacity="0.25"></line><line x1="0" y1="0" x2="290.84375" y2="0" fill="rgb(0, 0, 0)" stroke="rgb(60, 60, 60)" stroke-width="1px" opacity="0.25"></line></g></g></g><g><g><line x1="0" y1="152.42410714285714" x2="290.84375" y2="152.42410714285714" fill="rgb(0, 0, 0)" stroke="rgb(153, 153, 153)" stroke-width="1.5px"></line></g></g><g><g><line x1="24.236979166666664" y1="0" x2="24.236979166666664" y2="177.828125" fill="rgb(0, 0, 0)" stroke="rgb(153, 153, 153)" stroke-width="1.5px"></line></g></g><g><g><g><g><g><path stroke="rgb(255, 112, 67)" stroke-width="2px" d="M26.660677083333333,90.18426339285713L29.084375,71.51185395062245L31.508072916666666,79.15046543942269L33.93177083333333,62.12702872712798L36.35546875,62.63818899816772L38.77916666666667,66.02889602099937L41.20286458333333,50.86837454541208L43.6265625,61.147718949567064L46.05026041666667,45.34930221265347L48.47395833333333,63.73751997802377L50.89765625,48.098706729293866L53.321354166666666,65.29485563048465L55.745052083333334,53.26071804906685L58.16875,45.87788076455175L60.59244791666667,44.41036743477932L63.01614583333333,44.43906568782697L65.43984375000001,47.23109068669052L67.86354166666666,42.712819200289545L70.28723958333333,36.692454658496786L72.7109375,40.03030804183976L75.13463541666667,34.7535237544389L77.55833333333334,24.347785174189227L79.98203125,30.77805253947713L82.40572916666666,35.50348434161347L84.82942708333334,35.76042848670133L87.253125,35.10942728255728L89.67682291666667,44.20162555919052L92.10052083333333,28.61024321616179L94.52421875,35.231323660550004L96.94791666666666,43.967335094145966L99.37161458333334,53.142627840692654L101.7953125,54.081623179400125L104.21901041666666,41.28817191067594L106.64270833333333,42.61208156507453L109.06640625,38.27851077755369L111.49010416666667,27.36098929576758L113.91380208333334,30.469530805665784L116.3375,26.32309030392173L118.76119791666666,25.851602528626557L121.18489583333334,25.420103245842682L123.60859375,24.879013671980402L126.03229166666667,35.607123873543486L128.45598958333332,30.238373083259376L130.87968750000002,31.23360529508099L133.30338541666666,33.210365643972864L135.72708333333333,27.909508776481857L138.15078125,30.212006676276502L140.57447916666666,31.598416578383052L142.99817708333333,25.72656128801549L145.421875,33.24619078962638L147.84557291666667,25.392297251289335L150.26927083333334,20.837449989941547L152.69296875,20.146227913946404L155.11666666666667,19.41140328522397L157.54036458333331,21.846983568382655L159.9640625,35.03348227381778L162.38776041666668,38.360458386153255L164.81145833333332,28.954886223292732L167.23515625,33.98914767902255L169.65885416666669,31.490268766225995L172.08255208333333,24.278811991942177L174.50625,35.875994437414306L176.92994791666666,29.71694941106395L179.35364583333333,32.37647663933106L181.77734375,34.46278874183761L184.20104166666667,38.359469016509905L186.62473958333334,33.51656074992775L189.0484375,33.96431286548878L191.47213541666667,24.79386368982034L193.89583333333331,17.451110023221133L196.31953125,25.654326096459243L198.74322916666668,22.000725214955708L201.16692708333332,23.093849000624658L203.590625,20.921204521490495L206.01432291666669,26.86532184969286L208.43802083333333,29.934980570157904L210.86171875,22.055190775799048L213.28541666666666,28.39554952635163L215.70911458333333,38.335853716742974L218.1328125,34.88233239878406L220.55651041666667,21.928870002141537L222.98020833333334,18.504134077648473L225.40390625,29.965608102949517L227.82760416666667,42.19001109376185L230.25130208333331,27.710785786315142L232.675,31.572854794676488L235.09869791666668,27.02909537811243L237.52239583333332,24.686053244670887L239.94609375,35.03288113043871L242.36979166666669,33.95440622182605L244.79348958333333,28.477189737376875L247.2171875,22.587584273928343L249.64088541666666,27.72560569455044L252.06458333333333,27.422720992421034L254.48828125,35.30532466421542L256.91197916666664,45.21445430999907L259.33567708333334,35.812011819151934L261.75937500000003,36.84786867359733L264.1830729166667,33.62202638753968L266.6067708333333,44.06643626279333" style="fill: none;" fill="none"></path></g></g></g></g><g opacity="0.20000000298023224"><g><g><g><path stroke="rgb(255, 112, 67)" stroke-width="2px" d="M26.660677083333333,90.18426339285713L29.084375,64.32297631536211L31.508072916666666,83.2235640505382L33.93177083333333,52.078236607142856L36.35546875,62.951153148923595L38.77916666666667,68.13357899393354L41.20286458333333,41.408549107142846L43.6265625,67.5746875L46.05026041666667,35.46401047910962L48.47395833333333,75.24670399393355L50.89765625,38.30925582749501L53.321354166666666,76.0596279137475L55.745052083333334,45.72723214285713L58.16875,41.256123449461796L60.59244791666667,43.49168167250497L63.01614583333333,44.45703125L65.43984375000001,48.97894332749502L67.86354166666666,39.8843080357143L70.28723958333333,32.92360869339535L72.7109375,42.119858506066464L75.13463541666667,31.450171006066455L77.55833333333334,17.833623636790662L79.98203125,34.80350446428571L82.40572916666666,38.461681485176086L84.82942708333334,35.92127969946182L87.253125,34.701889943395344L89.67682291666667,49.89348952089037L92.10052083333333,18.84978435107641L94.52421875,39.37622767857144L96.94791666666666,49.436220300538196L99.37161458333334,58.88651029178075L101.7953125,54.66944952964782L104.21901041666666,33.27926339285716L106.64270833333333,43.44087053571428L109.06640625,35.56562499999998L111.49010416666667,20.52644332749503L113.91380208333334,32.41552833625249L116.3375,23.727351128033234L118.76119791666666,25.55644351482391L121.18489583333334,25.149977678571446L123.60859375,24.540282800538193L126.03229166666667,42.3230953005382L128.45598958333332,26.877447791780725L130.87968750000002,31.85663684231895L133.30338541666666,34.44784976482393L135.72708333333333,24.591086184637902L138.15078125,31.65340780053819L140.57447916666666,32.46633172035217L142.99817708333333,22.050684398923607L145.421875,37.95360112803323L147.84557291666667,20.475632190704346L150.26927083333334,17.986041541780736L152.69296875,19.713511654990043L155.11666666666667,18.95139111927577L157.54036458333331,23.371696428571425L159.9640625,43.28844487803323L162.38776041666668,40.44319952964784L164.81145833333332,23.066845113209325L167.23515625,37.14067720821927L169.65885416666669,29.925929934637907L172.08255208333333,19.764322791780756L174.50625,43.13601922035218L176.92994791666666,25.861287077495035L179.35364583333333,34.041383928571435L181.77734375,35.76885404178074L184.20104166666667,40.79885422910962L186.62473958333334,30.484821428571422L189.0484375,34.244612970352165L191.47213541666667,19.05301339285714L193.89583333333331,12.85442683356149L196.31953125,30.78967274393355L198.74322916666668,19.713511654990043L201.16692708333332,23.77816226482392L203.590625,19.561093749999998L206.01432291666669,30.586435949461816L208.43802083333333,31.85663684231895L210.86171875,17.122314237867073L213.28541666666666,32.36471719946181L215.70911458333333,44.558645770890365L218.1328125,32.72037189892362L220.55651041666667,13.819791916438504L222.98020833333334,16.3601937021528L225.40390625,37.14067720821927L227.82760416666667,49.84268613679069L230.25130208333331,18.64655530929565L232.675,33.99057279178075L235.09869791666668,24.184628101076413L237.52239583333332,23.219270770890375L239.94609375,41.51016362803324L242.36979166666669,33.27926339285716L244.79348958333333,25.048363157681052L247.2171875,18.900595487867093L249.64088541666666,30.942090648923596L252.06458333333333,27.233110243933538L254.48828125,40.23996273517608L256.91197916666664,51.41773059231895L259.33567708333334,29.925929934637907L261.75937500000003,37.49633190768105L264.1830729166667,31.602596663747505L266.6067708333333,50.60480667250498" style="fill: none;" fill="none"></path></g></g></g></g></g></g><g transform="translate(39, 177)" clip-path="url(#clip_1)"><clipPath id="clip_1"><rect width="290" height="22"></rect></clipPath><g><g><line x1="0" y1="0" x2="0" y2="5" style="visibility: inherit;" fill="rgb(0, 0, 0)" stroke="rgb(204, 204, 204)" stroke-width="1px"></line><line x1="24.236979166666664" y1="0" x2="24.236979166666664" y2="5" style="visibility: inherit;" fill="rgb(0, 0, 0)" stroke="rgb(204, 204, 204)" stroke-width="1px"></line><line x1="48.47395833333333" y1="0" x2="48.47395833333333" y2="5" style="visibility: inherit;" fill="rgb(0, 0, 0)" stroke="rgb(204, 204, 204)" stroke-width="1px"></line><line x1="72.7109375" y1="0" x2="72.7109375" y2="5" style="visibility: inherit;" fill="rgb(0, 0, 0)" stroke="rgb(204, 204, 204)" stroke-width="1px"></line><line x1="96.94791666666666" y1="0" x2="96.94791666666666" y2="5" style="visibility: inherit;" fill="rgb(0, 0, 0)" stroke="rgb(204, 204, 204)" stroke-width="1px"></line><line x1="121.18489583333334" y1="0" x2="121.18489583333334" y2="5" style="visibility: inherit;" fill="rgb(0, 0, 0)" stroke="rgb(204, 204, 204)" stroke-width="1px"></line><line x1="145.421875" y1="0" x2="145.421875" y2="5" style="visibility: inherit;" fill="rgb(0, 0, 0)" stroke="rgb(204, 204, 204)" stroke-width="1px"></line><line x1="169.65885416666669" y1="0" x2="169.65885416666669" y2="5" style="visibility: inherit;" fill="rgb(0, 0, 0)" stroke="rgb(204, 204, 204)" stroke-width="1px"></line><line x1="193.89583333333331" y1="0" x2="193.89583333333331" y2="5" style="visibility: inherit;" fill="rgb(0, 0, 0)" stroke="rgb(204, 204, 204)" stroke-width="1px"></line><line x1="218.1328125" y1="0" x2="218.1328125" y2="5" style="visibility: inherit;" fill="rgb(0, 0, 0)" stroke="rgb(204, 204, 204)" stroke-width="1px"></line><line x1="242.36979166666669" y1="0" x2="242.36979166666669" y2="5" style="visibility: inherit;" fill="rgb(0, 0, 0)" stroke="rgb(204, 204, 204)" stroke-width="1px"></line><line x1="266.6067708333333" y1="0" x2="266.6067708333333" y2="5" style="visibility: inherit;" fill="rgb(0, 0, 0)" stroke="rgb(204, 204, 204)" stroke-width="1px"></line><line x1="290.84375" y1="0" x2="290.84375" y2="5" style="visibility: inherit;" fill="rgb(0, 0, 0)" stroke="rgb(204, 204, 204)" stroke-width="1px"></line></g><g transform="translate(0, 8)"><text x="0" y="0" dx="0em" dy="0.95em" style="text-anchor: middle; visibility: hidden; font-family: &quot;Helvetica Neue&quot;, sans-serif; font-size: 12px; font-weight: 200;" fill="rgb(50, 49, 63)" stroke="none" stroke-width="1px">-10</text><text x="24.236979166666664" y="0" dx="0em" dy="0.95em" style="text-anchor: middle; visibility: inherit; font-family: &quot;Helvetica Neue&quot;, sans-serif; font-size: 12px; font-weight: 200;" fill="rgb(50, 49, 63)" stroke="none" stroke-width="1px">0</text><text x="48.47395833333333" y="0" dx="0em" dy="0.95em" style="text-anchor: middle; visibility: inherit; font-family: &quot;Helvetica Neue&quot;, sans-serif; font-size: 12px; font-weight: 200;" fill="rgb(50, 49, 63)" stroke="none" stroke-width="1px">10</text><text x="72.7109375" y="0" dx="0em" dy="0.95em" style="text-anchor: middle; visibility: inherit; font-family: &quot;Helvetica Neue&quot;, sans-serif; font-size: 12px; font-weight: 200;" fill="rgb(50, 49, 63)" stroke="none" stroke-width="1px">20</text><text x="96.94791666666666" y="0" dx="0em" dy="0.95em" style="text-anchor: middle; visibility: inherit; font-family: &quot;Helvetica Neue&quot;, sans-serif; font-size: 12px; font-weight: 200;" fill="rgb(50, 49, 63)" stroke="none" stroke-width="1px">30</text><text x="121.18489583333334" y="0" dx="0em" dy="0.95em" style="text-anchor: middle; visibility: inherit; font-family: &quot;Helvetica Neue&quot;, sans-serif; font-size: 12px; font-weight: 200;" fill="rgb(50, 49, 63)" stroke="none" stroke-width="1px">40</text><text x="145.421875" y="0" dx="0em" dy="0.95em" style="text-anchor: middle; visibility: inherit; font-family: &quot;Helvetica Neue&quot;, sans-serif; font-size: 12px; font-weight: 200;" fill="rgb(50, 49, 63)" stroke="none" stroke-width="1px">50</text><text x="169.65885416666669" y="0" dx="0em" dy="0.95em" style="text-anchor: middle; visibility: inherit; font-family: &quot;Helvetica Neue&quot;, sans-serif; font-size: 12px; font-weight: 200;" fill="rgb(50, 49, 63)" stroke="none" stroke-width="1px">60</text><text x="193.89583333333331" y="0" dx="0em" dy="0.95em" style="text-anchor: middle; visibility: inherit; font-family: &quot;Helvetica Neue&quot;, sans-serif; font-size: 12px; font-weight: 200;" fill="rgb(50, 49, 63)" stroke="none" stroke-width="1px">70</text><text x="218.1328125" y="0" dx="0em" dy="0.95em" style="text-anchor: middle; visibility: inherit; font-family: &quot;Helvetica Neue&quot;, sans-serif; font-size: 12px; font-weight: 200;" fill="rgb(50, 49, 63)" stroke="none" stroke-width="1px">80</text><text x="242.36979166666669" y="0" dx="0em" dy="0.95em" style="text-anchor: middle; visibility: inherit; font-family: &quot;Helvetica Neue&quot;, sans-serif; font-size: 12px; font-weight: 200;" fill="rgb(50, 49, 63)" stroke="none" stroke-width="1px">90</text><text x="266.6067708333333" y="0" dx="0em" dy="0.95em" style="text-anchor: middle; visibility: inherit; font-family: &quot;Helvetica Neue&quot;, sans-serif; font-size: 12px; font-weight: 200;" fill="rgb(50, 49, 63)" stroke="none" stroke-width="1px">100</text><text x="290.84375" y="0" dx="0em" dy="0.95em" style="text-anchor: middle; visibility: hidden; font-family: &quot;Helvetica Neue&quot;, sans-serif; font-size: 12px; font-weight: 200;" fill="rgb(50, 49, 63)" stroke="none" stroke-width="1px">110</text></g><line x1="0" y1="0" x2="290.84375" y2="0" fill="rgb(0, 0, 0)" stroke="rgb(204, 204, 204)" stroke-width="1px"></line></g></g></g></g></svg>